<svg width="49" height="48" viewBox="0 0 49 48" fill="none" xmlns="http://www.w3.org/2000/svg">
<path d="M29.5658 36.049C30.0662 35.8155 30.2826 35.2204 30.0491 34.72C29.8155 34.2195 29.2205 34.0031 28.72 34.2367L29.5658 36.049ZM24.7759 37.1808L24.353 36.2746L24.7759 37.1808ZM19.1402 36.049L23.5072 38.087L24.353 36.2746L19.9859 34.2367L19.1402 36.049ZM25.1987 38.087L29.5658 36.049L28.72 34.2367L24.353 36.2746L25.1987 38.087ZM23.5072 38.087C24.0433 38.3372 24.6626 38.3372 25.1987 38.087L24.353 36.2746L23.5072 38.087Z" fill="#7B8896"/>
<path d="M24.353 43.7647V37.3781" stroke="#7B8896" stroke-width="2"/>
<path d="M19.563 35.1429L24.353 32.9076L29.1429 35.1429V41.5295L24.353 43.7648L19.563 41.5295V35.1429Z" stroke="#7B8896" stroke-width="2" stroke-linecap="round" stroke-linejoin="round"/>
<path d="M29.5658 21.36C30.0662 21.1264 30.2826 20.5314 30.0491 20.0309C29.8155 19.5304 29.2205 19.314 28.72 19.5476L29.5658 21.36ZM19.1402 21.36L23.5072 23.3979L24.353 21.5855L19.9859 19.5476L19.1402 21.36ZM25.1987 23.3979L29.5658 21.36L28.72 19.5476L24.353 21.5855L25.1987 23.3979ZM23.5072 23.3979C24.0433 23.6481 24.6626 23.6481 25.1987 23.3979L24.353 21.5855L24.353 21.5855L23.5072 23.3979Z" fill="#7B8896"/>
<path d="M24.353 29.0756V22.6891" stroke="#7B8896" stroke-width="2"/>
<path d="M19.563 20.4538L24.353 18.2185L29.1429 20.4538V26.8404L24.353 29.0757L19.563 26.8404V20.4538Z" stroke="#7B8896" stroke-width="2" stroke-linecap="round" stroke-linejoin="round"/>
<path d="M43.885 28.4188C44.3855 28.1852 44.6019 27.5902 44.3683 27.0897C44.1348 26.5892 43.5397 26.3729 43.0393 26.6064L43.885 28.4188ZM38.2494 29.5505L37.8265 30.4567L38.2494 29.5505ZM39.0951 29.5505L38.6722 28.6444L39.0951 29.5505ZM33.4594 28.4188L37.8265 30.4567L38.6722 28.6444L34.3052 26.6064L33.4594 28.4188ZM39.518 30.4567L43.885 28.4188L43.0393 26.6064L38.6722 28.6444L39.518 30.4567ZM37.8265 30.4567C38.3626 30.7069 38.9819 30.7069 39.518 30.4567L38.6722 28.6444L37.8265 30.4567Z" fill="#7B8896"/>
<path d="M38.6722 36.1344V29.7479" stroke="#7B8896" stroke-width="2"/>
<path d="M33.8823 27.5126L38.6722 25.2773L43.4622 27.5126V33.8992L38.6722 36.1345L33.8823 33.8992V27.5126Z" stroke="#7B8896" stroke-width="2" stroke-linecap="round" stroke-linejoin="round"/>
<path d="M15.6498 28.4188C16.1502 28.1852 16.3666 27.5902 16.133 27.0897C15.8995 26.5892 15.3045 26.3729 14.804 26.6064L15.6498 28.4188ZM10.8598 29.5505L10.4369 28.6444L10.8598 29.5505ZM5.22415 28.4188L9.59118 30.4567L10.4369 28.6444L6.06992 26.6064L5.22415 28.4188ZM11.2827 30.4567L15.6498 28.4188L14.804 26.6064L10.4369 28.6444L11.2827 30.4567ZM9.59118 30.4567C10.1273 30.7069 10.7466 30.7069 11.2827 30.4567L10.4369 28.6444L9.59118 30.4567Z" fill="#7B8896"/>
<path d="M10.437 36.1344V29.7479" stroke="#7B8896" stroke-width="2"/>
<path d="M5.64703 27.5126L10.4369 25.2773L15.2269 27.5126V33.8992L10.4369 36.1345L5.64703 33.8992V27.5126Z" stroke="#7B8896" stroke-width="2" stroke-linecap="round" stroke-linejoin="round"/>
<path d="M29.5658 6.67089C30.0662 6.43734 30.2826 5.8423 30.0491 5.34182C29.8155 4.84135 29.2205 4.62497 28.72 4.85853L29.5658 6.67089ZM24.7759 7.80266L24.353 6.89647L24.7759 7.80266ZM19.1402 6.67089L23.5072 8.70884L24.353 6.89647L19.9859 4.85853L19.1402 6.67089ZM25.1987 8.70884L29.5658 6.67089L28.72 4.85853L24.353 6.89647L25.1987 8.70884ZM23.5072 8.70884C24.0433 8.95902 24.6626 8.95902 25.1987 8.70884L24.353 6.89647V6.89647L23.5072 8.70884Z" fill="#7B8896"/>
<path d="M24.353 14.3866V8" stroke="#7B8896" stroke-width="2"/>
<path d="M19.563 5.76471L24.353 3.52942L29.1429 5.76471V12.1513L24.353 14.3866L19.563 12.1513V5.76471Z" stroke="#7B8896" stroke-width="2" stroke-linecap="round" stroke-linejoin="round"/>
<path d="M43.885 13.7297C44.3855 13.4962 44.6019 12.9011 44.3683 12.4006C44.1348 11.9002 43.5397 11.6838 43.0393 11.9173L43.885 13.7297ZM33.4594 13.7297L37.8265 15.7677L38.6722 13.9553L34.3052 11.9173L33.4594 13.7297ZM39.518 15.7677L43.885 13.7297L43.0393 11.9173L38.6722 13.9553L39.518 15.7677ZM37.8265 15.7677C38.3626 16.0178 38.9819 16.0178 39.518 15.7677L38.6722 13.9553L37.8265 15.7677Z" fill="#7B8896"/>
<path d="M38.6722 21.4454V15.0588" stroke="#7B8896" stroke-width="2"/>
<path d="M33.8823 12.8235L38.6722 10.5882L43.4622 12.8235V19.2101L38.6722 21.4454L33.8823 19.2101V12.8235Z" stroke="#7B8896" stroke-width="2" stroke-linecap="round" stroke-linejoin="round"/>
<path d="M15.6498 13.7297C16.1502 13.4962 16.3666 12.9011 16.133 12.4006C15.8995 11.9002 15.3045 11.6838 14.804 11.9173L15.6498 13.7297ZM10.0141 14.8615L9.59118 15.7677L10.0141 14.8615ZM10.8598 14.8615L10.4369 13.9553L10.8598 14.8615ZM5.22415 13.7297L9.59118 15.7677L10.4369 13.9553L6.06992 11.9173L5.22415 13.7297ZM11.2827 15.7677L15.6498 13.7297L14.804 11.9173L10.4369 13.9553L11.2827 15.7677ZM9.59118 15.7677C10.1273 16.0178 10.7466 16.0178 11.2827 15.7677L10.4369 13.9553V13.9553L9.59118 15.7677Z" fill="#7B8896"/>
<path d="M10.437 21.4454V15.0588" stroke="#7B8896" stroke-width="2"/>
<path d="M5.64703 12.8235L10.4369 10.5882L15.2269 12.8235V19.2101L10.4369 21.4454L5.64703 19.2101V12.8235Z" stroke="#7B8896" stroke-width="2" stroke-linecap="round" stroke-linejoin="round"/>
</svg>
