<svg width="39" height="39" viewBox="0 0 39 39" fill="none" xmlns="http://www.w3.org/2000/svg">
<path d="M23.7549 14.5786C24.1231 14.9901 24.7553 15.0253 25.1669 14.657C25.5785 14.2887 25.6136 13.6566 25.2454 13.245L23.7549 14.5786ZM20.5001 19.5L20.1136 20.4223L20.5001 19.5ZM16.1425 23.763C15.7193 23.4083 15.0885 23.4638 14.7338 23.887C14.379 24.3103 14.4345 24.941 14.8577 25.2958L16.1425 23.763ZM20.0001 26.3876L20.0266 25.388L20.0001 26.3876ZM19.0001 29C19.0001 29.5523 19.4478 30 20.0001 30C20.5524 30 21.0001 29.5523 21.0001 29H19.0001ZM21.5001 10C21.5001 9.44772 21.0524 9 20.5001 9C19.9478 9 19.5001 9.44772 19.5001 10H21.5001ZM23.1738 25.2973L22.4768 24.5802L23.1738 25.2973ZM22.2565 20.4118L22.8158 19.5829L22.2565 20.4118ZM25.2454 13.245C24.6066 12.5311 22.853 11.2353 20.5001 11.2353V13.2353C22.1472 13.2353 23.3936 14.1748 23.7549 14.5786L25.2454 13.245ZM20.5001 11.2353C17.5339 11.2353 15.5001 13.2772 15.5001 15.5882H17.5001C17.5001 14.5464 18.4663 13.2353 20.5001 13.2353V11.2353ZM15.5001 15.5882C15.5001 16.7702 16.0446 17.7361 16.8827 18.5132C17.6971 19.2682 18.8228 19.8813 20.1136 20.4223L20.8867 18.5777C19.6774 18.0709 18.8032 17.5664 18.2425 17.0466C17.7056 16.5488 17.5001 16.0827 17.5001 15.5882H15.5001ZM20.0266 25.388C18.8824 25.3577 17.5043 24.9045 16.1425 23.763L14.8577 25.2958C16.5344 26.7012 18.3388 27.344 19.9736 27.3873L20.0266 25.388ZM19.0001 26.3876V29H21.0001V26.3876H19.0001ZM21.5001 12.2353V10H19.5001V12.2353H21.5001ZM22.4768 24.5802C21.983 25.0601 21.1258 25.4171 20.0266 25.388L19.9736 27.3873C21.5081 27.4279 22.9221 26.9364 23.8707 26.0145L22.4768 24.5802ZM20.1136 20.4223C20.7317 20.6813 21.2627 20.9476 21.6972 21.2408L22.8158 19.5829C22.2306 19.188 21.5678 18.8632 20.8867 18.5777L20.1136 20.4223ZM21.6972 21.2408C23.3323 22.344 23.2054 23.8722 22.4768 24.5802L23.8707 26.0145C25.6737 24.2622 25.3044 21.2619 22.8158 19.5829L21.6972 21.2408Z" fill="#7B8896"/>
<circle cx="19.9586" cy="19.2056" r="18" stroke="#7B8896" stroke-width="2" stroke-linecap="round" stroke-linejoin="round"/>
</svg>
