<svg width="49" height="48" viewBox="0 0 49 48" fill="none" xmlns="http://www.w3.org/2000/svg">
<path d="M6.35132 10.9371V21.6342" stroke="url(#paint0_linear_1267_90478)" stroke-width="2" stroke-linecap="round" stroke-linejoin="round"/>
<path d="M24.3643 10.9371V21.6342" stroke="url(#paint1_linear_1267_90478)" stroke-width="2" stroke-linecap="round" stroke-linejoin="round"/>
<path d="M24.3642 21.6343L15.3861 25.7485L6.35132 21.6343" stroke="url(#paint2_linear_1267_90478)" stroke-width="2" stroke-linecap="round" stroke-linejoin="round"/>
<path d="M24.3642 10.6148L15.3578 15.0514L6.35132 10.6148L15.0306 6" stroke="url(#paint3_linear_1267_90478)" stroke-width="2" stroke-linecap="round" stroke-linejoin="round"/>
<path d="M24.3637 10.5257L15.3577 6" stroke="url(#paint4_linear_1267_90478)" stroke-width="2" stroke-linecap="round" stroke-linejoin="round"/>
<path d="M15.3577 15.0514V25.7485" stroke="url(#paint5_linear_1267_90478)" stroke-width="2" stroke-linecap="round" stroke-linejoin="round"/>
<path d="M36.3823 29.0321C36.7505 29.4437 37.3827 29.4788 37.7943 29.1105C38.2059 28.7423 38.241 28.1101 37.8727 27.6985L36.3823 29.0321ZM34.7089 31.7443L34.3223 32.6665L34.7089 31.7443ZM32.3279 34.019C31.9047 33.6642 31.274 33.7197 30.9192 34.143C30.5644 34.5662 30.6199 35.1969 31.0431 35.5517L32.3279 34.019ZM34.4065 35.9089L34.433 34.9093L34.4065 35.9089ZM33.4065 37.4886C33.4065 38.0408 33.8542 38.4886 34.4065 38.4886C34.9588 38.4886 35.4065 38.0408 35.4065 37.4886H33.4065ZM35.7089 26C35.7089 25.4477 35.2611 25 34.7089 25C34.1566 25 33.7089 25.4477 33.7089 26H35.7089ZM36.3255 35.2497L35.6286 34.5326L36.3255 35.2497ZM35.7709 32.2956L36.3302 31.4667L35.7709 32.2956ZM37.8727 27.6985C37.4317 27.2055 36.2711 26.3516 34.7089 26.3516V28.3516C35.5653 28.3516 36.2187 28.8493 36.3823 29.0321L37.8727 27.6985ZM34.7089 26.3516C32.731 26.3516 31.2902 27.7307 31.2902 29.379H33.2902C33.2902 28.9999 33.6634 28.3516 34.7089 28.3516V26.3516ZM31.2902 29.379C31.2902 30.2296 31.6864 30.9124 32.2528 31.4375C32.7953 31.9405 33.5257 32.3327 34.3223 32.6665L35.0954 30.822C34.3803 30.5223 33.9014 30.2387 33.6125 29.9709C33.3475 29.7251 33.2902 29.5421 33.2902 29.379H31.2902ZM34.433 34.9093C33.8381 34.8935 33.0891 34.657 32.3279 34.019L31.0431 35.5517C32.1192 36.4537 33.2945 36.8798 34.38 36.9086L34.433 34.9093ZM33.4065 35.9089V37.4886H35.4065V35.9089H33.4065ZM35.7089 27.3516V26H33.7089V27.3516H35.7089ZM35.6286 34.5326C35.4199 34.7354 35.0116 34.9246 34.433 34.9093L34.38 36.9086C35.3939 36.9354 36.3589 36.6117 37.0224 35.9668L35.6286 34.5326ZM34.3223 32.6665C34.6836 32.818 34.9787 32.9674 35.2116 33.1246L36.3302 31.4667C35.9465 31.2078 35.5197 30.9999 35.0954 30.822L34.3223 32.6665ZM35.2116 33.1246C35.6286 33.406 35.7796 33.7223 35.8131 33.9529C35.8474 34.1891 35.772 34.3931 35.6286 34.5326L37.0224 35.9668C38.325 34.7009 38.0036 32.5957 36.3302 31.4667L35.2116 33.1246Z" fill="#7B8896"/>
<ellipse cx="34.5984" cy="31.92" rx="10.2346" ry="10.2857" stroke="url(#paint6_linear_1267_90478)" stroke-width="2" stroke-linecap="round" stroke-linejoin="round"/>
<path d="M19.4517 35.7999C20.0039 35.7999 20.4517 35.3522 20.4517 34.7999C20.4517 34.2476 20.0039 33.7999 19.4517 33.7999L19.4517 35.7999ZM5.5326 33.7999C4.98031 33.7999 4.5326 34.2476 4.5326 34.7999C4.5326 35.3522 4.98031 35.7999 5.5326 35.7999L5.5326 33.7999ZM19.4517 33.7999L5.5326 33.7999L5.5326 35.7999L19.4517 35.7999L19.4517 33.7999Z" fill="url(#paint7_linear_1267_90478)"/>
<path d="M9.48291 39.9935L4.71362 35.2004L9.48291 30.4074" stroke="url(#paint8_linear_1267_90478)" stroke-width="2" stroke-linecap="round" stroke-linejoin="round"/>
<path d="M29.2769 11.5828C28.7246 11.5828 28.2769 12.0305 28.2769 12.5828C28.2769 13.135 28.7246 13.5828 29.2769 13.5828V11.5828ZM44.0147 13.5828C44.567 13.5828 45.0147 13.135 45.0147 12.5828C45.0147 12.0305 44.567 11.5828 44.0147 11.5828V13.5828ZM29.2769 13.5828H44.0147V11.5828H29.2769V13.5828Z" fill="url(#paint9_linear_1267_90478)"/>
<path d="M40.064 8.28503L44.8333 13.0781L40.064 17.8712" stroke="url(#paint10_linear_1267_90478)" stroke-width="2" stroke-linecap="round" stroke-linejoin="round"/>
<defs>
<linearGradient id="paint0_linear_1267_90478" x1="6.85132" y1="10.9371" x2="6.85132" y2="21.6342" gradientUnits="userSpaceOnUse">
<stop stop-color="#606D7F"/>
<stop offset="1" stop-color="#495565"/>
</linearGradient>
<linearGradient id="paint1_linear_1267_90478" x1="23.8643" y1="10.9371" x2="23.8643" y2="21.6342" gradientUnits="userSpaceOnUse">
<stop stop-color="#606D7F"/>
<stop offset="1" stop-color="#495565"/>
</linearGradient>
<linearGradient id="paint2_linear_1267_90478" x1="15.3578" y1="21.6343" x2="15.3578" y2="25.7485" gradientUnits="userSpaceOnUse">
<stop stop-color="#606D7F"/>
<stop offset="1" stop-color="#495565"/>
</linearGradient>
<linearGradient id="paint3_linear_1267_90478" x1="15.3578" y1="6" x2="15.3578" y2="15.0514" gradientUnits="userSpaceOnUse">
<stop stop-color="#606D7F"/>
<stop offset="1" stop-color="#495565"/>
</linearGradient>
<linearGradient id="paint4_linear_1267_90478" x1="19.8607" y1="6" x2="19.8607" y2="10.5257" gradientUnits="userSpaceOnUse">
<stop stop-color="#606D7F"/>
<stop offset="1" stop-color="#495565"/>
</linearGradient>
<linearGradient id="paint5_linear_1267_90478" x1="15.8577" y1="15.0514" x2="15.8577" y2="25.7485" gradientUnits="userSpaceOnUse">
<stop stop-color="#606D7F"/>
<stop offset="1" stop-color="#495565"/>
</linearGradient>
<linearGradient id="paint6_linear_1267_90478" x1="34.5984" y1="21.6343" x2="34.5984" y2="42.2056" gradientUnits="userSpaceOnUse">
<stop stop-color="#606D7F"/>
<stop offset="1" stop-color="#495565"/>
</linearGradient>
<linearGradient id="paint7_linear_1267_90478" x1="12.4921" y1="34.7999" x2="12.4921" y2="33.7999" gradientUnits="userSpaceOnUse">
<stop stop-color="#606D7F"/>
<stop offset="1" stop-color="#495565"/>
</linearGradient>
<linearGradient id="paint8_linear_1267_90478" x1="7.09827" y1="37.597" x2="11.8913" y2="32.8278" gradientUnits="userSpaceOnUse">
<stop stop-color="#606D7F"/>
<stop offset="1" stop-color="#495565"/>
</linearGradient>
<linearGradient id="paint9_linear_1267_90478" x1="36.6458" y1="12.5828" x2="36.6458" y2="13.5828" gradientUnits="userSpaceOnUse">
<stop stop-color="#606D7F"/>
<stop offset="1" stop-color="#495565"/>
</linearGradient>
<linearGradient id="paint10_linear_1267_90478" x1="42.4486" y1="10.6816" x2="37.6556" y2="15.4508" gradientUnits="userSpaceOnUse">
<stop stop-color="#606D7F"/>
<stop offset="1" stop-color="#495565"/>
</linearGradient>
</defs>
</svg>
