<svg width="49" height="48" viewBox="0 0 49 48" fill="none" xmlns="http://www.w3.org/2000/svg">
<path d="M9.32153 32.9979C12.581 31.1243 12.9181 31.1243 15.1055 31.1243C18.9082 31.1243 18.969 32.4001 21.1563 32.4001C23.3437 32.4001 23.3581 32.4001 26.0923 32.4001C29.3572 32.4001 29.3572 36.7451 26.0923 36.7451C24.8835 36.7451 22.2644 36.7451 21.7176 36.7451" stroke="url(#paint0_linear_1267_90484)" stroke-width="2" stroke-linecap="round" stroke-linejoin="round"/>
<path d="M7.5 43.2L13.5714 40.3657L21.7424 42.9289C22.3059 43.1057 22.9091 43.1122 23.4764 42.9476L31.6073 40.5882C32.1098 40.4424 32.5655 40.1676 32.929 39.7913L41.5 30.9179C40.9726 30.1306 39.1793 29.1228 36.2257 31.3903C33.272 33.6577 29.7252 35.3702 28.1429 36" stroke="url(#paint1_linear_1267_90484)" stroke-width="2" stroke-linecap="round" stroke-linejoin="round"/>
<path d="M27.4178 12.5491C27.7861 12.9607 28.4183 12.9959 28.8299 12.6276C29.2415 12.2593 29.2766 11.6271 28.9083 11.2156L27.4178 12.5491ZM25.2157 16L24.8292 16.9223L25.2157 16ZM22.1739 18.9395C21.7506 18.5847 21.1199 18.6402 20.7651 19.0635C20.4103 19.4867 20.4658 20.1175 20.8891 20.4723L22.1739 18.9395ZM24.8473 21.0751L24.8738 20.0754L24.8473 21.0751ZM23.8473 23C23.8473 23.5523 24.295 24 24.8473 24C25.3996 24 25.8473 23.5523 25.8473 23H23.8473ZM26.2157 9C26.2157 8.44772 25.768 8 25.2157 8C24.6634 8 24.2157 8.44772 24.2157 9H26.2157ZM27.1858 20.2717L26.4888 19.5546L27.1858 20.2717ZM26.5099 16.6719L27.0692 15.8429L26.5099 16.6719ZM28.9083 11.2156C28.4011 10.6487 27.0423 9.64706 25.2157 9.64706V11.6471C26.3365 11.6471 27.1882 12.2925 27.4178 12.5491L28.9083 11.2156ZM25.2157 9.64706C22.9074 9.64706 21.2683 11.2478 21.2683 13.1176H23.2683C23.2683 12.5169 23.8398 11.6471 25.2157 11.6471V9.64706ZM21.2683 13.1176C21.2683 14.079 21.7141 14.8565 22.3713 15.4659C23.0048 16.0531 23.8674 16.5192 24.8292 16.9223L25.6022 15.0777C24.7219 14.7088 24.1109 14.3513 23.7311 13.9992C23.3752 13.6692 23.2683 13.3916 23.2683 13.1176H21.2683ZM24.8738 20.0754C24.0952 20.0548 23.1358 19.7458 22.1739 18.9395L20.8891 20.4723C22.1659 21.5426 23.5516 22.0411 24.8208 22.0747L24.8738 20.0754ZM23.8473 21.0751V23H25.8473V21.0751H23.8473ZM26.2157 10.6471V9H24.2157V10.6471H26.2157ZM26.4888 19.5546C26.1848 19.85 25.6264 20.0954 24.8738 20.0754L24.8208 22.0747C26.0088 22.1062 27.1239 21.7263 27.8827 20.9889L26.4888 19.5546ZM24.8292 16.9223C25.2763 17.1097 25.6503 17.2982 25.9506 17.5008L27.0692 15.8429C26.6181 15.5386 26.1125 15.2916 25.6022 15.0777L24.8292 16.9223ZM25.9506 17.5008C27.0431 18.2379 26.8843 19.1703 26.4888 19.5546L27.8827 20.9889C29.3526 19.5603 29.0152 17.1559 27.0692 15.8429L25.9506 17.5008Z" fill="#7B8896"/>
<ellipse cx="24.5315" cy="16" rx="12" ry="12" stroke="url(#paint2_linear_1267_90484)" stroke-width="2" stroke-linecap="round" stroke-linejoin="round"/>
<defs>
<linearGradient id="paint0_linear_1267_90484" x1="18.9313" y1="31.1243" x2="18.9313" y2="36.7451" gradientUnits="userSpaceOnUse">
<stop stop-color="#606D7F"/>
<stop offset="1" stop-color="#495565"/>
</linearGradient>
<linearGradient id="paint1_linear_1267_90484" x1="24.5" y1="30" x2="24.5" y2="43.2" gradientUnits="userSpaceOnUse">
<stop stop-color="#606D7F"/>
<stop offset="1" stop-color="#495565"/>
</linearGradient>
<linearGradient id="paint2_linear_1267_90484" x1="24.5315" y1="4" x2="24.5315" y2="28" gradientUnits="userSpaceOnUse">
<stop stop-color="#606D7F"/>
<stop offset="1" stop-color="#495565"/>
</linearGradient>
</defs>
</svg>
