<svg width="24" height="24" viewBox="0 0 24 24" fill="none" xmlns="http://www.w3.org/2000/svg">
<path d="M12.2662 3.64771L11.9992 3.4869L11.7322 3.64771L8.72153 5.46092L7.8136 4.90991L11.9992 2.38196L16.1847 4.9099L15.2768 5.46092L12.2662 3.64771ZM13.6383 12.7031L13.3878 12.854V13.1465V16.8045L11.9992 17.6472L10.6105 16.8044V13.1465V12.854L10.36 12.7031L7.33184 10.8794V9.14942L8.72153 8.30603L11.7322 10.1192L11.9992 10.28L12.2662 10.1192L15.2768 8.30603L16.6665 9.14943V10.8794L13.6383 12.7031ZM19.926 16.8037L15.7763 19.31V18.206L18.8044 16.3822L19.055 16.2313V15.9389V12.2809L19.926 11.7522V16.8037ZM19.055 8.04033V7.74902L18.8059 7.59789L17.6288 6.88348L18.5374 6.33202L19.926 7.17478V8.9059L19.055 9.43456V8.04033ZM10.6105 20.7737V19.6707L11.7307 20.3505L11.9992 20.5135L12.2677 20.3505L13.3878 19.6708V20.7737L11.9992 21.6164L10.6105 20.7737ZM6.36954 6.88348L5.19237 7.59789L4.94334 7.74903V8.04033V9.43458L4.07223 8.90589V7.17478L5.46088 6.33202L6.36954 6.88348ZM4.94334 15.9389V16.2313L5.19387 16.3822L8.22199 18.206V19.31L4.07223 16.8037V11.7522L4.94334 12.2809V15.9389ZM15.7953 14.2555L16.6665 13.7269V14.8298L15.7953 15.3585V14.2555ZM8.20296 14.2555V15.3585L7.33184 14.8298V13.7269L8.20296 14.2555ZM12.9078 6.88348L11.9992 7.43493L11.0905 6.88348L11.9992 6.33202L12.9078 6.88348Z" fill="#FCC413" stroke="#FCC413" stroke-width="1.03509"/>
</svg>
