<svg width="114" height="16" viewBox="0 0 114 16" fill="none" xmlns="http://www.w3.org/2000/svg">
<mask id="path-1-inside-1_592_9105" fill="white">
<path fill-rule="evenodd" clip-rule="evenodd" d="M24.1423 9.82199V9.85126C24.1423 11.3439 22.9286 12.1049 21.1082 12.0903H17.2507V3.8805H21.0215C22.6686 3.8805 23.6944 4.71464 23.6944 6.00245V6.03172C23.6944 6.95368 23.2031 7.48049 22.6252 7.80243C23.5643 8.16833 24.1423 8.72441 24.1423 9.82199ZM20.6314 7.20245C21.4261 7.20245 21.9172 6.95368 21.9172 6.33901V6.30974C21.9172 5.7683 21.4983 5.46099 20.747 5.46099H18.9844V7.20245H20.6314ZM21.1082 10.5244C21.8884 10.5244 22.3652 10.2464 22.3652 9.63175V9.60248C22.3652 9.04635 21.9606 8.70977 21.0504 8.70977H18.9844V10.5244H21.1082ZM27.8842 3.89513V12.1049H26.0927V3.89513H27.8842ZM37.4775 3.89513V12.1049H35.9606L32.0307 6.88052V12.1049H30.2681V3.89513H31.9152L35.7149 8.95855V3.89513H37.4775ZM43.8779 3.83659L47.3598 12.1049H45.4672L44.7304 10.261H41.3062L40.5694 12.1049H38.7489L42.2309 3.83659H43.8779ZM41.9564 8.66587H44.1091L43.04 6.00245L41.9564 8.66587ZM55.8551 3.89513V12.1049H54.3381L50.4083 6.88052V12.1049H48.6457V3.89513H50.2927L54.0925 8.95855V3.89513H55.8551ZM63.9317 9.61712L65.0728 10.7732C64.2346 11.6805 63.3103 12.2366 61.7498 12.2366C59.3659 12.2366 57.5889 10.3634 57.5889 8.0073V7.97803C57.5889 5.65123 59.3371 3.73416 61.822 3.73416C63.3536 3.73416 64.2637 4.26098 65.0152 5.00733L63.8734 6.33901C63.2378 5.7683 62.6022 5.41708 61.7932 5.41708C60.4206 5.41708 59.4382 6.57321 59.4382 7.97803V8.0073C59.4382 9.41219 60.4062 10.5829 61.7932 10.5829C62.7323 10.5829 63.296 10.2025 63.9317 9.61712ZM72.6868 10.4951V12.0903H66.5176V3.8805H72.6292V5.49025H68.2801V7.15855H72.1088V8.76831H68.2801V10.4951H72.6868ZM6.40039 0.5L2.47058 2.79756L3.91536 3.64635L6.40039 2.19756L8.88537 3.64635L10.3302 2.79756L6.40039 0.5ZM8.88537 4.84635L10.3302 5.69514V7.39269L7.84512 8.84148V11.739L6.40039 12.5879L4.9556 11.739V8.84148L2.47058 7.39269V5.69514L3.91536 4.84635L6.40039 6.29511L8.88537 4.84635ZM10.3302 8.59271V10.2903L8.88537 11.1391V9.44145L10.3302 8.59271ZM8.87094 12.339L11.356 10.8902V7.99267L12.8007 7.14392V11.739L8.87094 14.0366V12.339ZM11.356 5.09513L9.91119 4.24635L11.356 3.39757L12.8007 4.24635V5.94391L11.356 6.79271V5.09513ZM4.9556 14.6513V12.9537L6.40039 13.8024L7.84512 12.9537V14.6513L6.40039 15.5L4.9556 14.6513ZM3.91536 11.1391L2.47058 10.2903V8.59271L3.91536 9.44145V11.1391ZM6.40039 5.09513L4.9556 4.24635L6.40039 3.39757L7.84512 4.24635L6.40039 5.09513ZM2.88956 4.24635L1.44478 5.09513V6.79271L0 5.94391V4.24635L1.44478 3.39757L2.88956 4.24635ZM0 7.14392L1.44478 7.99267V10.8902L3.92979 12.339V14.0366L0 11.739V7.14392ZM77.3605 8.07727C77.3605 10.448 79.1231 12.3211 81.4928 12.3211C83.0243 12.3211 83.9486 11.7504 84.7868 10.8578L83.8767 9.92116C83.1829 10.5797 82.5472 10.9895 81.5504 10.9895C80.0047 10.9895 78.8778 9.67239 78.8778 8.048C78.8778 6.42361 79.9904 5.13578 81.5504 5.13578C82.4754 5.13578 83.1686 5.54553 83.8191 6.16017L84.7292 5.09187C83.9486 4.34553 83.0534 3.8187 81.5504 3.8187C79.0946 3.8187 77.3605 5.73578 77.3605 8.07727ZM87.4594 12.1748V8.70651H91.3315V12.1748H92.762V3.95041H91.3315V7.37479H87.4594V3.95041H86.0296V12.1748H87.4594ZM100.853 12.1748H102.355L98.7578 3.89187H97.4431L93.8746 12.1748H95.3336L96.1719 10.1846H100.015L100.853 12.1748ZM96.7065 8.91138L98.093 5.6187L99.4944 8.91138H96.7065ZM104.941 12.1748V3.95041H103.511V12.1748H104.941ZM114 3.95041H112.599H112.584V9.62849L108.235 3.95041H106.921V12.1748H108.322V6.32111L112.801 12.1748H114V3.95041Z"/>
</mask>
<path fill-rule="evenodd" clip-rule="evenodd" d="M24.1423 9.82199V9.85126C24.1423 11.3439 22.9286 12.1049 21.1082 12.0903H17.2507V3.8805H21.0215C22.6686 3.8805 23.6944 4.71464 23.6944 6.00245V6.03172C23.6944 6.95368 23.2031 7.48049 22.6252 7.80243C23.5643 8.16833 24.1423 8.72441 24.1423 9.82199ZM20.6314 7.20245C21.4261 7.20245 21.9172 6.95368 21.9172 6.33901V6.30974C21.9172 5.7683 21.4983 5.46099 20.747 5.46099H18.9844V7.20245H20.6314ZM21.1082 10.5244C21.8884 10.5244 22.3652 10.2464 22.3652 9.63175V9.60248C22.3652 9.04635 21.9606 8.70977 21.0504 8.70977H18.9844V10.5244H21.1082ZM27.8842 3.89513V12.1049H26.0927V3.89513H27.8842ZM37.4775 3.89513V12.1049H35.9606L32.0307 6.88052V12.1049H30.2681V3.89513H31.9152L35.7149 8.95855V3.89513H37.4775ZM43.8779 3.83659L47.3598 12.1049H45.4672L44.7304 10.261H41.3062L40.5694 12.1049H38.7489L42.2309 3.83659H43.8779ZM41.9564 8.66587H44.1091L43.04 6.00245L41.9564 8.66587ZM55.8551 3.89513V12.1049H54.3381L50.4083 6.88052V12.1049H48.6457V3.89513H50.2927L54.0925 8.95855V3.89513H55.8551ZM63.9317 9.61712L65.0728 10.7732C64.2346 11.6805 63.3103 12.2366 61.7498 12.2366C59.3659 12.2366 57.5889 10.3634 57.5889 8.0073V7.97803C57.5889 5.65123 59.3371 3.73416 61.822 3.73416C63.3536 3.73416 64.2637 4.26098 65.0152 5.00733L63.8734 6.33901C63.2378 5.7683 62.6022 5.41708 61.7932 5.41708C60.4206 5.41708 59.4382 6.57321 59.4382 7.97803V8.0073C59.4382 9.41219 60.4062 10.5829 61.7932 10.5829C62.7323 10.5829 63.296 10.2025 63.9317 9.61712ZM72.6868 10.4951V12.0903H66.5176V3.8805H72.6292V5.49025H68.2801V7.15855H72.1088V8.76831H68.2801V10.4951H72.6868ZM6.40039 0.5L2.47058 2.79756L3.91536 3.64635L6.40039 2.19756L8.88537 3.64635L10.3302 2.79756L6.40039 0.5ZM8.88537 4.84635L10.3302 5.69514V7.39269L7.84512 8.84148V11.739L6.40039 12.5879L4.9556 11.739V8.84148L2.47058 7.39269V5.69514L3.91536 4.84635L6.40039 6.29511L8.88537 4.84635ZM10.3302 8.59271V10.2903L8.88537 11.1391V9.44145L10.3302 8.59271ZM8.87094 12.339L11.356 10.8902V7.99267L12.8007 7.14392V11.739L8.87094 14.0366V12.339ZM11.356 5.09513L9.91119 4.24635L11.356 3.39757L12.8007 4.24635V5.94391L11.356 6.79271V5.09513ZM4.9556 14.6513V12.9537L6.40039 13.8024L7.84512 12.9537V14.6513L6.40039 15.5L4.9556 14.6513ZM3.91536 11.1391L2.47058 10.2903V8.59271L3.91536 9.44145V11.1391ZM6.40039 5.09513L4.9556 4.24635L6.40039 3.39757L7.84512 4.24635L6.40039 5.09513ZM2.88956 4.24635L1.44478 5.09513V6.79271L0 5.94391V4.24635L1.44478 3.39757L2.88956 4.24635ZM0 7.14392L1.44478 7.99267V10.8902L3.92979 12.339V14.0366L0 11.739V7.14392ZM77.3605 8.07727C77.3605 10.448 79.1231 12.3211 81.4928 12.3211C83.0243 12.3211 83.9486 11.7504 84.7868 10.8578L83.8767 9.92116C83.1829 10.5797 82.5472 10.9895 81.5504 10.9895C80.0047 10.9895 78.8778 9.67239 78.8778 8.048C78.8778 6.42361 79.9904 5.13578 81.5504 5.13578C82.4754 5.13578 83.1686 5.54553 83.8191 6.16017L84.7292 5.09187C83.9486 4.34553 83.0534 3.8187 81.5504 3.8187C79.0946 3.8187 77.3605 5.73578 77.3605 8.07727ZM87.4594 12.1748V8.70651H91.3315V12.1748H92.762V3.95041H91.3315V7.37479H87.4594V3.95041H86.0296V12.1748H87.4594ZM100.853 12.1748H102.355L98.7578 3.89187H97.4431L93.8746 12.1748H95.3336L96.1719 10.1846H100.015L100.853 12.1748ZM96.7065 8.91138L98.093 5.6187L99.4944 8.91138H96.7065ZM104.941 12.1748V3.95041H103.511V12.1748H104.941ZM114 3.95041H112.599H112.584V9.62849L108.235 3.95041H106.921V12.1748H108.322V6.32111L112.801 12.1748H114V3.95041Z" fill="#FCC413" stroke="#FCC413" stroke-width="2.07018" mask="url(#path-1-inside-1_592_9105)"/>
</svg>
