<svg width="97" height="24" viewBox="0 0 97 24" fill="none" xmlns="http://www.w3.org/2000/svg">
<path fill-rule="evenodd" clip-rule="evenodd" d="M6.96778 0.5L0 12.222L6.96778 9.03262V0.5Z" fill="#0F0F0F"/>
<path opacity="0.601" fill-rule="evenodd" clip-rule="evenodd" d="M6.96778 9.03247L0 12.2219L6.96778 16.3772V9.03247Z" fill="#0F0F0F"/>
<path opacity="0.504" fill-rule="evenodd" clip-rule="evenodd" d="M13.9354 12.222L6.96875 0.5V9.03262L13.9354 12.222Z" fill="#0F0F0F"/>
<path opacity="0.073" fill-rule="evenodd" clip-rule="evenodd" d="M6.96875 16.3773L13.9354 12.2219L6.96875 9.03253V16.3773Z" fill="#0F0F0F"/>
<path fill-rule="evenodd" clip-rule="evenodd" d="M0 13.5575L6.96778 23.5V17.7128L0 13.5575Z" fill="#0F0F0F"/>
<path opacity="0.504" fill-rule="evenodd" clip-rule="evenodd" d="M6.96875 17.7127V23.4999L13.9354 13.5574L6.96875 17.7127Z" fill="#0F0F0F"/>
<path fill-rule="evenodd" clip-rule="evenodd" d="M45.1799 14.2505V17.9885C45.1799 18.1408 45.1041 18.293 44.9536 18.293C44.8042 18.293 44.7283 18.1408 44.7283 17.9885V14.2505C44.7283 13.03 43.9757 11.734 42.6222 11.734C40.8159 11.734 40.0632 13.3357 40.1391 14.9374V17.9885C40.1391 18.1408 40.0632 18.293 39.9127 18.293C39.7633 18.293 39.6875 18.1408 39.6875 17.9885V5.78408C39.6875 5.63182 39.7633 5.47839 39.9127 5.47839C40.0632 5.47839 40.1391 5.63066 40.1391 5.78408V12.6488C40.7412 11.734 41.4926 11.1226 42.5463 11.1226C44.2009 11.1994 45.1799 12.6488 45.1799 14.2505ZM36.0031 11.5811C36.0031 11.4288 35.8514 11.2766 35.702 11.2766H34.1221V9.06466C34.1221 8.91124 33.9704 8.75897 33.821 8.75897C33.6705 8.75897 33.52 8.91124 33.52 9.06466V11.2766H32.0147C31.8642 11.2766 31.7148 11.4288 31.7148 11.5811C31.7148 11.7334 31.8654 11.8868 32.0147 11.8868H33.52V18.0645C33.52 18.2168 33.6705 18.3702 33.821 18.3702C33.9716 18.3702 34.1221 18.218 34.1221 18.0645V11.8868H35.702C35.8525 11.8868 36.0031 11.7334 36.0031 11.5811ZM28.6291 14.7843C28.6289 14.9377 28.4796 15.0898 28.328 15.0898H22.5345C22.6851 16.4625 23.7387 17.8352 25.244 17.8352C26.2965 17.8352 27.0491 17.454 27.6512 16.6148C27.7259 16.5392 27.8006 16.4637 27.8764 16.4637C28.027 16.4637 28.1775 16.6148 28.1775 16.7682C28.1775 16.8002 28.1775 16.8187 28.1718 16.8352C28.164 16.8575 28.1458 16.8763 28.1028 16.9204C27.5007 17.9119 26.3723 18.4466 25.244 18.4466C23.2872 18.4466 21.9336 16.6915 21.9336 14.7853C21.9336 12.8779 23.2872 11.1995 25.2428 11.1995C27.274 11.1995 28.6286 12.954 28.6291 14.7843ZM28.0259 14.4797C27.8766 13.0303 26.8229 11.7332 25.3177 11.7332C23.8124 11.7332 22.6841 13.0303 22.6094 14.4797H28.0259ZM55.3374 15.0898C55.4879 15.0898 55.6383 14.9377 55.6385 14.7844C55.638 12.954 54.2088 11.1995 52.2534 11.1995C50.2219 11.1995 48.8672 12.8779 48.8672 14.7853C48.8672 16.6915 50.2966 18.4466 52.2534 18.4466C53.3818 18.4466 54.5101 17.9119 55.1122 16.9205C55.1552 16.8763 55.1735 16.8576 55.1812 16.8352C55.1869 16.8187 55.1869 16.8003 55.1869 16.7682C55.1869 16.6148 55.0364 16.4637 54.8859 16.4637C54.81 16.4637 54.7353 16.5392 54.6607 16.6148C54.0586 17.454 53.3059 17.8352 52.2534 17.8352C50.7482 17.8352 49.6945 16.4625 49.544 15.0898H55.3374ZM55.0377 14.4797C54.8883 13.0303 53.8346 11.7332 52.3294 11.7332C50.8241 11.7332 49.6958 13.0303 49.6211 14.4797H55.0377ZM62.4863 11.8864C62.7127 11.8864 62.7873 11.733 62.7873 11.5807V11.5796C62.7873 11.4273 62.6368 11.275 62.4116 11.275C61.4338 11.275 60.5306 12.0375 60.0044 12.8767V11.5796C60.0044 11.4273 59.8527 11.275 59.7033 11.275C59.5516 11.275 59.4023 11.4273 59.4023 11.5796V17.9886C59.4023 18.1409 59.5528 18.2931 59.7033 18.2931C59.8538 18.2931 60.0044 18.1409 60.0044 17.9886V15.1665C60.0044 13.5648 60.7558 12.1154 62.4863 11.8864ZM72.3416 14.7841C72.3415 14.9375 72.191 15.0896 72.0406 15.0896H66.2471C66.3976 16.4623 67.4513 17.835 68.9554 17.835C70.0091 17.835 70.7617 17.4538 71.3638 16.6146C71.4385 16.539 71.5132 16.4635 71.589 16.4635C71.7384 16.4635 71.89 16.6146 71.89 16.768C71.89 16.7999 71.89 16.8184 71.8843 16.8348C71.8765 16.8572 71.858 16.876 71.8142 16.9202L71.8142 16.9202C71.2133 17.9117 70.0837 18.4464 68.9554 18.4464C66.9997 18.4464 65.5703 16.6913 65.5703 14.7851C65.5703 12.8777 66.9239 11.1993 68.9554 11.1993C70.9119 11.1226 72.3411 12.9538 72.3416 14.7841ZM69.0286 11.7332C70.5327 11.7332 71.5864 13.0303 71.7369 14.4797H66.3203C66.395 13.0303 67.5234 11.7332 69.0286 11.7332ZM81.745 11.6569V18.0636C81.745 18.2171 81.5956 18.3693 81.4439 18.3693C81.2945 18.3693 81.1429 18.2171 81.1429 18.0636V16.8432C80.6166 17.8358 79.7893 18.5216 78.7356 18.5216C77.0052 18.5216 76.0273 16.9966 76.0273 15.4705V11.7324C76.0273 11.5813 76.1779 11.4279 76.3284 11.4279C76.4778 11.4279 76.6294 11.5802 76.6294 11.7324V15.3938C76.6294 16.6142 77.3074 17.9114 78.7356 17.9114C80.6925 17.9114 81.1429 16.0807 81.1429 14.0211V11.6569C81.1429 11.5046 81.2934 11.3512 81.4439 11.3512C81.5944 11.3512 81.745 11.5046 81.745 11.6569ZM96.4152 17.9887V14.2506C96.4152 12.6489 95.4362 11.1995 93.7816 11.1995C92.5785 11.1995 91.6007 11.962 91.148 13.0302C90.7722 11.962 89.8702 11.1995 88.6661 11.1995C87.6124 11.1995 86.7104 11.7342 86.183 12.6489V11.5808C86.183 11.4285 86.0325 11.2762 85.8819 11.2762C85.7314 11.2762 85.582 11.4285 85.582 11.5808V18.1409C85.582 18.2944 85.7326 18.4455 85.8819 18.4455C86.0336 18.4455 86.183 18.2932 86.183 18.1409V15.1665C86.1083 13.2592 86.8609 11.8865 88.5914 11.8865C90.0196 11.8865 90.6976 13.1069 90.6976 14.3273V18.0642C90.6976 18.2176 90.8481 18.3699 90.9986 18.3699C91.1491 18.3699 91.2997 18.2176 91.2997 18.0642V15.1665C91.2997 13.716 91.9764 11.8097 93.7069 11.8097C95.1363 11.8097 95.8131 13.0302 95.8131 14.2506V17.9887C95.8131 18.1409 95.9648 18.2932 96.1141 18.2932C96.2658 18.2932 96.4152 18.1409 96.4152 17.9887Z" fill="#0F0F0F"/>
<path d="M40.1391 14.9374H40.3894L40.3888 14.9256L40.1391 14.9374ZM40.1391 12.6488H39.8891V13.4833L40.3479 12.7862L40.1391 12.6488ZM42.5463 11.1226L42.5579 10.8726H42.5463V11.1226ZM34.1221 11.2766H33.8721V11.5266H34.1221V11.2766ZM33.52 11.2766V11.5266H33.77V11.2766H33.52ZM33.52 11.8868H33.77V11.6368H33.52V11.8868ZM34.1221 11.8868V11.6368H33.8721V11.8868H34.1221ZM28.6291 14.7843L28.8791 14.7846L28.8791 14.7843L28.6291 14.7843ZM22.5345 15.0898V14.8398H22.2556L22.286 15.117L22.5345 15.0898ZM27.6512 16.6148L27.4734 16.439L27.4596 16.453L27.4481 16.469L27.6512 16.6148ZM28.1718 16.8352L27.9355 16.7534L27.9355 16.7534L28.1718 16.8352ZM28.1028 16.9204L27.9237 16.7461L27.9039 16.7664L27.8891 16.7907L28.1028 16.9204ZM28.0259 14.4797V14.7297H28.303L28.2746 14.4541L28.0259 14.4797ZM22.6094 14.4797L22.3597 14.4669L22.3462 14.7297H22.6094V14.4797ZM55.6385 14.7844L55.8885 14.7846L55.8885 14.7843L55.6385 14.7844ZM55.1122 16.9205L54.9331 16.7461L54.9133 16.7664L54.8985 16.7907L55.1122 16.9205ZM55.1812 16.8352L55.4175 16.9169L55.4175 16.9169L55.1812 16.8352ZM54.6607 16.6148L54.4829 16.439L54.469 16.4531L54.4575 16.4691L54.6607 16.6148ZM49.544 15.0898V14.8398H49.2651L49.2955 15.1171L49.544 15.0898ZM55.0377 14.4797V14.7297H55.3148L55.2864 14.4541L55.0377 14.4797ZM49.6211 14.4797L49.3714 14.4669L49.3579 14.7297H49.6211V14.4797ZM62.4863 11.8864V11.6364H62.4698L62.4535 11.6386L62.4863 11.8864ZM60.0044 12.8767H59.7544V13.7459L60.2162 13.0095L60.0044 12.8767ZM72.3416 14.7841L72.5916 14.7844L72.5916 14.7841L72.3416 14.7841ZM66.2471 15.0896V14.8396H65.9682L65.9986 15.1168L66.2471 15.0896ZM71.3638 16.6146L71.186 16.4388L71.1721 16.4528L71.1607 16.4688L71.3638 16.6146ZM71.8843 16.8348L72.1204 16.9171L72.1204 16.9171L71.8843 16.8348ZM71.8142 16.9202L71.6362 16.7442L71.6274 16.7541L71.8142 16.9202ZM71.8142 16.9202L71.6274 16.7542L71.6122 16.7712L71.6004 16.7907L71.8142 16.9202ZM68.9554 11.1993V11.4495L68.9652 11.4491L68.9554 11.1993ZM71.7369 14.4797V14.7297H72.0142L71.9855 14.4539L71.7369 14.4797ZM66.3203 14.4797L66.0706 14.4669L66.0571 14.7297H66.3203V14.4797ZM81.1429 16.8432H81.3929L80.922 16.7261L81.1429 16.8432ZM91.148 13.0302L90.9121 13.1131L91.1263 13.722L91.3782 13.1277L91.148 13.0302ZM86.183 12.6489H85.933V13.5831L86.3996 12.7738L86.183 12.6489ZM86.183 15.1665L86.4332 15.1665L86.4328 15.1568L86.183 15.1665ZM45.4299 17.9885V14.2505H44.9299V17.9885H45.4299ZM44.9536 18.543C45.127 18.543 45.2561 18.4501 45.3317 18.3358C45.4025 18.2287 45.4299 18.1015 45.4299 17.9885H44.9299C44.9299 18.0063 44.9277 18.0227 44.9241 18.0362C44.9204 18.05 44.9163 18.0575 44.9147 18.0599C44.9133 18.062 44.9161 18.057 44.9256 18.0514C44.9363 18.0451 44.9472 18.043 44.9536 18.043V18.543ZM44.4783 17.9885C44.4783 18.1015 44.5057 18.2285 44.5762 18.3354C44.6513 18.4494 44.78 18.543 44.9536 18.543V18.043C44.9606 18.043 44.9719 18.0453 44.9828 18.0518C44.9924 18.0575 44.9951 18.0625 44.9937 18.0603C44.992 18.0578 44.9879 18.0502 44.9842 18.0364C44.9806 18.0227 44.9783 18.0063 44.9783 17.9885H44.4783ZM44.4783 14.2505V17.9885H44.9783V14.2505H44.4783ZM42.6222 11.984C43.2092 11.984 43.6657 12.2616 43.9828 12.6846C44.3039 13.1128 44.4783 13.6876 44.4783 14.2505H44.9783C44.9783 13.5928 44.7764 12.9095 44.3829 12.3846C43.9853 11.8544 43.3887 11.484 42.6222 11.484V11.984ZM40.3888 14.9256C40.3527 14.1627 40.5155 13.4192 40.8822 12.8747C41.2418 12.3407 41.805 11.984 42.6222 11.984V11.484C41.6331 11.484 40.9168 11.9281 40.4674 12.5954C40.0252 13.2522 39.8496 14.1103 39.8894 14.9492L40.3888 14.9256ZM40.3891 17.9885V14.9374H39.8891V17.9885H40.3891ZM39.9127 18.543C40.0861 18.543 40.2152 18.4501 40.2908 18.3358C40.3617 18.2287 40.3891 18.1015 40.3891 17.9885H39.8891C39.8891 18.0063 39.8868 18.0227 39.8832 18.0362C39.8796 18.05 39.8754 18.0575 39.8738 18.0599C39.8724 18.062 39.8752 18.057 39.8847 18.0514C39.8954 18.0451 39.9063 18.043 39.9127 18.043V18.543ZM39.4375 17.9885C39.4375 18.1015 39.4649 18.2285 39.5353 18.3354C39.6104 18.4494 39.7391 18.543 39.9127 18.543V18.043C39.9197 18.043 39.9311 18.0453 39.9419 18.0518C39.9515 18.0575 39.9543 18.0625 39.9528 18.0603C39.9512 18.0578 39.947 18.0502 39.9434 18.0364C39.9398 18.0227 39.9375 18.0063 39.9375 17.9885H39.4375ZM39.4375 5.78408V17.9885H39.9375V5.78408H39.4375ZM39.9127 5.22839C39.7383 5.22839 39.6097 5.32316 39.535 5.43705C39.4649 5.54405 39.4375 5.67107 39.4375 5.78408H39.9375C39.9375 5.76632 39.9398 5.74969 39.9434 5.73586C39.9471 5.72178 39.9514 5.71395 39.9532 5.71123C39.9548 5.70876 39.9521 5.71375 39.9425 5.71948C39.9316 5.72597 39.9201 5.72839 39.9127 5.72839V5.22839ZM40.3891 5.78408C40.3891 5.67077 40.3618 5.54333 40.291 5.43601C40.2154 5.32141 40.0862 5.22839 39.9127 5.22839V5.72839C39.9063 5.72839 39.8954 5.72628 39.8846 5.71994C39.8751 5.7143 39.8723 5.70926 39.8737 5.7114C39.8753 5.71385 39.8795 5.72141 39.8831 5.73539C39.8868 5.74913 39.8891 5.76588 39.8891 5.78408H40.3891ZM40.3891 12.6488V5.78408H39.8891V12.6488H40.3891ZM42.5463 10.8726C41.3741 10.8726 40.5557 11.561 39.9303 12.5113L40.3479 12.7862C40.9266 11.907 41.6112 11.3726 42.5463 11.3726V10.8726ZM45.4299 14.2505C45.4299 12.5606 44.3871 10.9577 42.5579 10.8729L42.5347 11.3724C44.0148 11.441 44.9299 12.7369 44.9299 14.2505H45.4299ZM35.702 11.5266C35.697 11.5266 35.6981 11.5254 35.7052 11.5288C35.7123 11.5321 35.7217 11.5383 35.731 11.5477C35.7403 11.5571 35.7467 11.5668 35.7502 11.5745C35.7538 11.5822 35.7531 11.5845 35.7531 11.5811H36.2531C36.2531 11.4241 36.1774 11.2878 36.0861 11.1957C35.9951 11.1039 35.8593 11.0266 35.702 11.0266V11.5266ZM34.1221 11.5266H35.702V11.0266H34.1221V11.5266ZM33.8721 9.06466V11.2766H34.3721V9.06466H33.8721ZM33.821 9.00897C33.816 9.00897 33.8171 9.0078 33.8241 9.01113C33.8312 9.01445 33.8405 9.02066 33.8498 9.03004C33.859 9.03941 33.8655 9.04914 33.8691 9.05697C33.8727 9.06479 33.8721 9.06745 33.8721 9.06466H34.3721C34.3721 8.90755 34.2968 8.77105 34.2054 8.67852C34.1143 8.58638 33.9784 8.50897 33.821 8.50897V9.00897ZM33.77 9.06466C33.77 9.06714 33.7695 9.0643 33.773 9.0565C33.7766 9.04868 33.783 9.03904 33.7921 9.02981C33.8012 9.02057 33.8104 9.01447 33.8173 9.01119C33.8242 9.00793 33.8255 9.00897 33.821 9.00897V8.50897C33.6634 8.50897 33.5274 8.58613 33.4361 8.67875C33.3445 8.77165 33.27 8.90812 33.27 9.06466H33.77ZM33.77 11.2766V9.06466H33.27V11.2766H33.77ZM32.0147 11.5266H33.52V11.0266H32.0147V11.5266ZM31.9648 11.5811C31.9648 11.5838 31.9643 11.5812 31.9678 11.5734C31.9713 11.5657 31.9776 11.5562 31.9866 11.547C31.9956 11.5379 32.0046 11.5319 32.0114 11.5287C32.0181 11.5255 32.0193 11.5266 32.0147 11.5266V11.0266C31.857 11.0266 31.7211 11.1039 31.6301 11.1964C31.5389 11.2892 31.4648 11.4253 31.4648 11.5811H31.9648ZM32.0147 11.6368C32.0202 11.6368 32.0194 11.6381 32.0126 11.6348C32.0058 11.6316 31.9965 11.6254 31.9872 11.616C31.978 11.6065 31.9715 11.5967 31.9679 11.5887C31.9642 11.5807 31.9648 11.5781 31.9648 11.5811H31.4648C31.4648 11.7373 31.5395 11.8736 31.6303 11.9661C31.7208 12.0584 31.8566 12.1368 32.0147 12.1368V11.6368ZM33.52 11.6368H32.0147V12.1368H33.52V11.6368ZM33.77 18.0645V11.8868H33.27V18.0645H33.77ZM33.821 18.1202C33.8259 18.1202 33.8247 18.1214 33.8178 18.1181C33.8108 18.1148 33.8016 18.1086 33.7923 18.0992C33.7831 18.0898 33.7766 18.08 33.773 18.0721C33.7693 18.0642 33.77 18.0615 33.77 18.0645H33.27C33.27 18.2208 33.3447 18.3571 33.4358 18.4498C33.5268 18.5423 33.6628 18.6202 33.821 18.6202V18.1202ZM33.8721 18.0645C33.8721 18.0621 33.8726 18.0649 33.869 18.0727C33.8654 18.0805 33.8591 18.0902 33.85 18.0994C33.8409 18.1086 33.8317 18.1147 33.8248 18.118C33.8179 18.1213 33.8165 18.1202 33.821 18.1202V18.6202C33.9787 18.6202 34.1147 18.5431 34.206 18.4505C34.2976 18.3576 34.3721 18.2211 34.3721 18.0645H33.8721ZM33.8721 11.8868V18.0645H34.3721V11.8868H33.8721ZM35.702 11.6368H34.1221V12.1368H35.702V11.6368ZM35.7531 11.5811C35.7531 11.5781 35.7537 11.5807 35.7501 11.5886C35.7464 11.5966 35.74 11.6063 35.7308 11.6157C35.7215 11.6251 35.7122 11.6313 35.7053 11.6346C35.6983 11.6379 35.6972 11.6368 35.702 11.6368V12.1368C35.8602 12.1368 35.9963 12.0588 36.0872 11.9663C36.1784 11.8737 36.2531 11.7373 36.2531 11.5811H35.7531ZM28.328 15.3398C28.4859 15.3398 28.622 15.2629 28.7135 15.1699C28.8052 15.0767 28.8789 14.9404 28.8791 14.7846L28.3791 14.7841C28.3791 14.7819 28.3795 14.785 28.3759 14.7928C28.3723 14.8006 28.3661 14.8101 28.3571 14.8192C28.3482 14.8283 28.3392 14.8343 28.3323 14.8375C28.3256 14.8407 28.3241 14.8398 28.328 14.8398V15.3398ZM22.5345 15.3398H28.328V14.8398H22.5345V15.3398ZM25.244 17.5852C23.9083 17.5852 22.9248 16.3552 22.7831 15.0625L22.286 15.117C22.4453 16.5698 23.5692 18.0852 25.244 18.0852V17.5852ZM27.4481 16.469C27.1659 16.8623 26.8563 17.1378 26.5035 17.3167C26.1504 17.4957 25.7394 17.5852 25.244 17.5852V18.0852C25.8011 18.0852 26.2927 17.9841 26.7295 17.7627C27.1666 17.5411 27.5344 17.2064 27.8543 16.7605L27.4481 16.469ZM27.8764 16.2137C27.7568 16.2137 27.665 16.2719 27.6127 16.3114C27.558 16.3528 27.5075 16.4046 27.4734 16.439L27.829 16.7905C27.8482 16.7711 27.864 16.7552 27.8792 16.7408C27.8943 16.7264 27.9056 16.7168 27.9141 16.7103C27.9229 16.7037 27.9247 16.7036 27.9202 16.7056C27.9151 16.7078 27.8996 16.7137 27.8764 16.7137V16.2137ZM28.4275 16.7682C28.4275 16.6115 28.3528 16.4751 28.261 16.3824C28.1694 16.29 28.0334 16.2137 27.8764 16.2137V16.7137C27.8723 16.7137 27.8738 16.7127 27.8807 16.716C27.8877 16.7192 27.8968 16.7253 27.9058 16.7344C27.9148 16.7434 27.921 16.7529 27.9245 16.7605C27.928 16.768 27.9275 16.7707 27.9275 16.7682H28.4275ZM28.408 16.9169C28.4306 16.8517 28.4275 16.7843 28.4275 16.7682H27.9275C27.9275 16.7767 27.9275 16.782 27.9274 16.7864C27.9274 16.7908 27.9273 16.7917 27.9273 16.7909C27.9275 16.7887 27.9286 16.7735 27.9355 16.7534L28.408 16.9169ZM28.2819 17.0948C28.3006 17.0757 28.3238 17.0521 28.3421 17.0303C28.3629 17.0054 28.3903 16.9683 28.408 16.9169L27.9355 16.7534C27.9403 16.7397 27.9461 16.7284 27.9514 16.7199C27.9561 16.7123 27.9596 16.7082 27.959 16.709C27.9582 16.7099 27.9556 16.7129 27.9491 16.7197C27.9427 16.7265 27.9348 16.7346 27.9237 16.7461L28.2819 17.0948ZM25.244 18.6966C26.4457 18.6966 27.6622 18.1276 28.3165 17.0502L27.8891 16.7907C27.3392 17.6963 26.299 18.1966 25.244 18.1966V18.6966ZM21.6836 14.7853C21.6836 16.7931 23.1153 18.6966 25.244 18.6966V18.1966C23.459 18.1966 22.1836 16.5898 22.1836 14.7853H21.6836ZM25.2428 10.9495C23.1215 10.9495 21.6836 12.7692 21.6836 14.7853H22.1836C22.1836 12.9866 23.4529 11.4495 25.2428 11.4495V10.9495ZM28.8791 14.7843C28.8786 12.8447 27.4392 10.9495 25.2428 10.9495V11.4495C27.1088 11.4495 28.3786 13.0633 28.3791 14.7844L28.8791 14.7843ZM25.3177 11.9832C26.6575 11.9832 27.6368 13.1425 27.7773 14.5054L28.2746 14.4541C28.1163 12.9181 26.9884 11.4832 25.3177 11.4832V11.9832ZM22.859 14.4926C22.9281 13.1515 23.9687 11.9832 25.3177 11.9832V11.4832C23.6561 11.4832 22.44 12.9091 22.3597 14.4669L22.859 14.4926ZM28.0259 14.2297H22.6094V14.7297H28.0259V14.2297ZM55.3885 14.7841C55.3885 14.7817 55.389 14.7845 55.3854 14.7923C55.3818 14.8002 55.3755 14.8098 55.3664 14.819C55.3573 14.8282 55.3481 14.8343 55.3412 14.8376C55.3343 14.8409 55.333 14.8398 55.3374 14.8398V15.3398C55.495 15.3398 55.631 15.2627 55.7223 15.1702C55.8139 15.0774 55.8883 14.941 55.8885 14.7846L55.3885 14.7841ZM52.2534 11.4495C54.0469 11.4495 55.388 13.0671 55.3885 14.7844L55.8885 14.7843C55.888 12.841 54.3706 10.9495 52.2534 10.9495V11.4495ZM49.1172 14.7853C49.1172 12.9907 50.384 11.4495 52.2534 11.4495V10.9495C50.0599 10.9495 48.6172 12.7651 48.6172 14.7853H49.1172ZM52.2534 18.1966C50.4615 18.1966 49.1172 16.5819 49.1172 14.7853H48.6172C48.6172 16.8011 50.1317 18.6966 52.2534 18.6966V18.1966ZM54.8985 16.7907C54.3486 17.6963 53.3084 18.1966 52.2534 18.1966V18.6966C53.4551 18.6966 54.6717 18.1276 55.3259 17.0503L54.8985 16.7907ZM54.945 16.7535C54.9497 16.7397 54.9555 16.7284 54.9608 16.7199C54.9655 16.7123 54.969 16.7083 54.9684 16.709C54.9677 16.7099 54.9651 16.7129 54.9586 16.7197C54.9521 16.7266 54.9442 16.7347 54.9331 16.7461L55.2914 17.0949C55.31 17.0757 55.3332 17.0521 55.3515 17.0303C55.3724 17.0054 55.3997 16.9683 55.4175 16.9169L54.945 16.7535ZM54.9369 16.7682C54.9369 16.7767 54.9369 16.782 54.9369 16.7865C54.9368 16.7908 54.9367 16.7918 54.9368 16.7909C54.9369 16.7887 54.938 16.7736 54.9449 16.7535L55.4175 16.9169C55.44 16.8518 55.4369 16.7844 55.4369 16.7682H54.9369ZM54.8859 16.7137C54.8817 16.7137 54.8832 16.7127 54.8902 16.716C54.8971 16.7193 54.9063 16.7253 54.9153 16.7344C54.9243 16.7435 54.9305 16.7529 54.934 16.7605C54.9375 16.7681 54.9369 16.7707 54.9369 16.7682H55.4369C55.4369 16.6115 55.3623 16.4751 55.2704 16.3824C55.1788 16.29 55.0429 16.2137 54.8859 16.2137V16.7137ZM54.8385 16.7905C54.8577 16.7711 54.8734 16.7552 54.8886 16.7408C54.9037 16.7265 54.915 16.7168 54.9236 16.7104C54.9324 16.7037 54.9341 16.7036 54.9296 16.7056C54.9245 16.7079 54.909 16.7137 54.8859 16.7137V16.2137C54.7662 16.2137 54.6744 16.2719 54.6221 16.3115C54.5674 16.3528 54.5169 16.4046 54.4829 16.439L54.8385 16.7905ZM52.2534 18.0852C52.8105 18.0852 53.3021 17.9841 53.739 17.7627C54.1761 17.5411 54.5438 17.2065 54.8638 16.7605L54.4575 16.4691C54.1754 16.8623 53.8658 17.1379 53.5129 17.3167C53.1598 17.4957 52.7488 17.5852 52.2534 17.5852V18.0852ZM49.2955 15.1171C49.4548 16.5698 50.5786 18.0852 52.2534 18.0852V17.5852C50.9177 17.5852 49.9342 16.3552 49.7925 15.0626L49.2955 15.1171ZM55.3374 14.8398H49.544V15.3398H55.3374V14.8398ZM52.3294 11.9832C53.6692 11.9832 54.6485 13.1425 54.789 14.5054L55.2864 14.4541C55.1281 12.9181 54.0001 11.4832 52.3294 11.4832V11.9832ZM49.8708 14.4926C49.9399 13.1515 50.9805 11.9832 52.3294 11.9832V11.4832C50.6678 11.4832 49.4517 12.9091 49.3714 14.4669L49.8708 14.4926ZM55.0377 14.2297H49.6211V14.7297H55.0377V14.2297ZM62.5373 11.5807C62.5373 11.5989 62.535 11.6128 62.5323 11.6221C62.5297 11.6311 62.5273 11.6334 62.5282 11.6323C62.5298 11.6304 62.5315 11.6298 62.5297 11.6305C62.5271 11.6317 62.5146 11.6364 62.4863 11.6364V12.1364C62.6611 12.1364 62.8129 12.074 62.9152 11.949C63.0104 11.8327 63.0373 11.693 63.0373 11.5807H62.5373ZM62.5373 11.5796V11.5807H63.0373V11.5796H62.5373ZM62.4116 11.525C62.4671 11.525 62.502 11.5433 62.52 11.559C62.54 11.5763 62.5373 11.5868 62.5373 11.5796H63.0373C63.0373 11.2572 62.7405 11.025 62.4116 11.025V11.525ZM60.2162 13.0095C60.7223 12.2024 61.5589 11.525 62.4116 11.525V11.025C61.3086 11.025 60.3389 11.8726 59.7926 12.7439L60.2162 13.0095ZM59.7544 11.5796V12.8767H60.2544V11.5796H59.7544ZM59.7033 11.525C59.6983 11.525 59.6994 11.5238 59.7065 11.5272C59.7136 11.5306 59.723 11.5368 59.7323 11.5462C59.7416 11.5555 59.748 11.5652 59.7515 11.5729C59.7551 11.5806 59.7544 11.5829 59.7544 11.5796H60.2544C60.2544 11.4225 60.1787 11.2863 60.0874 11.1942C59.9964 11.1024 59.8606 11.025 59.7033 11.025V11.525ZM59.6523 11.5796C59.6523 11.5823 59.6517 11.5796 59.6552 11.572C59.6587 11.5643 59.6649 11.5548 59.6739 11.5457C59.6829 11.5366 59.692 11.5306 59.6989 11.5273C59.7057 11.5241 59.7072 11.525 59.7033 11.525V11.025C59.5454 11.025 59.4094 11.1019 59.3179 11.1947C59.2263 11.2875 59.1523 11.4237 59.1523 11.5796H59.6523ZM59.6523 17.9886V11.5796H59.1523V17.9886H59.6523ZM59.7033 18.0431C59.7078 18.0431 59.7064 18.0442 59.6995 18.0409C59.6925 18.0376 59.6833 18.0315 59.6741 18.0222C59.665 18.013 59.6587 18.0034 59.6551 17.9957C59.6516 17.988 59.6523 17.9856 59.6523 17.9886H59.1523C59.1523 18.145 59.2271 18.2813 59.3185 18.3737C59.4098 18.466 59.5457 18.5431 59.7033 18.5431V18.0431ZM59.7544 17.9886C59.7544 17.9856 59.755 17.988 59.7515 17.9957C59.7479 18.0034 59.7416 18.013 59.7325 18.0222C59.7233 18.0315 59.7141 18.0376 59.7071 18.0409C59.7002 18.0442 59.6988 18.0431 59.7033 18.0431V18.5431C59.8609 18.5431 59.9968 18.466 60.0881 18.3737C60.1795 18.2813 60.2544 18.145 60.2544 17.9886H59.7544ZM59.7544 15.1665V17.9886H60.2544V15.1665H59.7544ZM62.4535 11.6386C61.5177 11.7624 60.8342 12.2209 60.39 12.8706C59.9503 13.5138 59.7544 14.3296 59.7544 15.1665H60.2544C60.2544 14.4017 60.4341 13.692 60.8028 13.1528C61.1669 12.6201 61.7244 12.2394 62.5191 12.1342L62.4535 11.6386ZM72.0406 15.3396C72.1981 15.3396 72.3341 15.2625 72.4254 15.17C72.517 15.0771 72.5915 14.9408 72.5916 14.7844L72.0916 14.7839C72.0916 14.7814 72.0921 14.7843 72.0885 14.7921C72.0849 14.7999 72.0786 14.8096 72.0695 14.8188C72.0604 14.828 72.0512 14.8341 72.0443 14.8374C72.0374 14.8406 72.0361 14.8396 72.0406 14.8396V15.3396ZM66.2471 15.3396H72.0406V14.8396H66.2471V15.3396ZM68.9554 17.585C67.6209 17.585 66.6374 16.3551 66.4956 15.0623L65.9986 15.1168C66.1579 16.5695 67.2817 18.085 68.9554 18.085V17.585ZM71.1607 16.4688C70.8785 16.8621 70.5689 17.1376 70.2159 17.3165C69.8627 17.4955 69.4514 17.585 68.9554 17.585V18.085C69.513 18.085 70.0049 17.9839 70.4419 17.7625C70.8792 17.5409 71.247 17.2062 71.5669 16.7603L71.1607 16.4688ZM71.589 16.2135C71.4693 16.2135 71.3776 16.2717 71.3252 16.3112C71.2705 16.3526 71.22 16.4044 71.186 16.4388L71.5416 16.7903C71.5608 16.7709 71.5766 16.755 71.5918 16.7406C71.6069 16.7262 71.6181 16.7166 71.6267 16.7101C71.6355 16.7035 71.6373 16.7034 71.6328 16.7054C71.6276 16.7076 71.6121 16.7135 71.589 16.7135V16.2135ZM72.14 16.768C72.14 16.6107 72.0646 16.4743 71.9729 16.382C71.8815 16.29 71.7457 16.2135 71.589 16.2135V16.7135C71.5843 16.7135 71.5856 16.7124 71.5927 16.7157C71.5997 16.719 71.609 16.7252 71.6182 16.7344C71.6273 16.7436 71.6336 16.7531 71.6372 16.7607C71.6407 16.7683 71.64 16.7708 71.64 16.768H72.14ZM72.1204 16.9171C72.1432 16.8517 72.14 16.7839 72.14 16.768H71.64C71.64 16.7764 71.64 16.7817 71.64 16.7861C71.6399 16.7904 71.6398 16.7913 71.6399 16.7904C71.64 16.7882 71.6412 16.7728 71.6482 16.7525L72.1204 16.9171ZM71.992 17.096C72.011 17.0768 72.0346 17.0532 72.0532 17.0313C72.0743 17.0064 72.1023 16.9691 72.1204 16.9171L71.6482 16.7525C71.6506 16.7458 71.6533 16.7394 71.6562 16.7334C71.6591 16.7275 71.662 16.7225 71.6645 16.7184C71.6694 16.7107 71.673 16.7066 71.6723 16.7073C71.6716 16.7082 71.6689 16.7112 71.6623 16.7181C71.6558 16.7249 71.6478 16.733 71.6364 16.7445L71.992 17.096ZM72.0011 17.0863L72.0011 17.0863L71.6274 16.7541L71.6274 16.7542L72.0011 17.0863ZM68.9554 18.6964C70.1569 18.6964 71.3748 18.1275 72.028 17.0498L71.6004 16.7907C71.0517 17.696 70.0105 18.1964 68.9554 18.1964V18.6964ZM65.3203 14.7851C65.3203 16.8008 66.8348 18.6964 68.9554 18.6964V18.1964C67.1647 18.1964 65.8203 16.5817 65.8203 14.7851H65.3203ZM68.9554 10.9493C66.7617 10.9493 65.3203 12.765 65.3203 14.7851H65.8203C65.8203 12.9904 67.086 11.4493 68.9554 11.4493V10.9493ZM72.5916 14.7841C72.5911 12.8509 71.0801 10.8658 68.9456 10.9495L68.9652 11.4491C70.7437 11.3794 72.0912 13.0567 72.0916 14.7842L72.5916 14.7841ZM71.9855 14.4539C71.8261 12.9182 70.6982 11.4832 69.0286 11.4832V11.9832C70.3672 11.9832 71.3467 13.1425 71.4882 14.5055L71.9855 14.4539ZM66.3203 14.7297H71.7369V14.2297H66.3203V14.7297ZM69.0286 11.4832C67.367 11.4832 66.1509 12.9091 66.0706 14.4669L66.57 14.4926C66.6391 13.1515 67.6797 11.9832 69.0286 11.9832V11.4832ZM81.995 18.0636V11.6569H81.495V18.0636H81.995ZM81.4439 18.6193C81.6019 18.6193 81.738 18.5424 81.8296 18.4493C81.9213 18.356 81.995 18.2196 81.995 18.0636H81.495C81.495 18.0615 81.4954 18.0645 81.4919 18.0723C81.4883 18.0801 81.482 18.0896 81.4731 18.0987C81.4641 18.1078 81.4551 18.1138 81.4483 18.117C81.4415 18.1202 81.44 18.1193 81.4439 18.1193V18.6193ZM80.8929 18.0636C80.8929 18.2207 80.9681 18.3572 81.0596 18.4498C81.1507 18.5419 81.2866 18.6193 81.4439 18.6193V18.1193C81.449 18.1193 81.4479 18.1205 81.4408 18.1172C81.4338 18.1138 81.4245 18.1076 81.4152 18.0982C81.4059 18.0889 81.3995 18.0792 81.3959 18.0713C81.3923 18.0635 81.3929 18.0608 81.3929 18.0636H80.8929ZM80.8929 16.8432V18.0636H81.3929V16.8432H80.8929ZM78.7356 18.7716C79.914 18.7716 80.8116 18.0017 81.3638 16.9603L80.922 16.7261C80.4216 17.67 79.6646 18.2716 78.7356 18.2716V18.7716ZM75.7773 15.4705C75.7773 17.0815 76.8193 18.7716 78.7356 18.7716V18.2716C77.191 18.2716 76.2773 16.9117 76.2773 15.4705H75.7773ZM75.7773 11.7324V15.4705H76.2773V11.7324H75.7773ZM76.3284 11.1779C76.1702 11.1779 76.0343 11.2558 75.9434 11.348C75.8525 11.4402 75.7773 11.5763 75.7773 11.7324H76.2773C76.2773 11.736 76.2766 11.7338 76.2802 11.726C76.2838 11.7182 76.2902 11.7084 76.2994 11.699C76.3087 11.6896 76.3181 11.6834 76.325 11.6801C76.332 11.6768 76.3332 11.6779 76.3284 11.6779V11.1779ZM76.8794 11.7324C76.8794 11.5754 76.8038 11.4392 76.7125 11.3471C76.6215 11.2553 76.4857 11.1779 76.3284 11.1779V11.6779C76.3234 11.6779 76.3245 11.6767 76.3316 11.6801C76.3387 11.6834 76.3481 11.6897 76.3574 11.6991C76.3667 11.7084 76.373 11.7181 76.3766 11.7258C76.3802 11.7335 76.3794 11.7358 76.3794 11.7324H76.8794ZM76.8794 15.3938V11.7324H76.3794V15.3938H76.8794ZM78.7356 17.6614C78.1082 17.6614 77.654 17.381 77.3489 16.9628C77.0381 16.537 76.8794 15.9621 76.8794 15.3938H76.3794C76.3794 16.0458 76.5598 16.7298 76.945 17.2576C77.3359 17.7932 77.9348 18.1614 78.7356 18.1614V17.6614ZM80.8929 14.0211C80.8929 15.0419 80.7796 15.9658 80.4494 16.6269C80.2865 16.953 80.0742 17.2081 79.8022 17.3828C79.531 17.5569 79.1844 17.6614 78.7356 17.6614V18.1614C79.2652 18.1614 79.7088 18.037 80.0724 17.8035C80.4352 17.5706 80.7024 17.2393 80.8967 16.8503C81.2809 16.0812 81.3929 15.0599 81.3929 14.0211H80.8929ZM80.8929 11.6569V14.0211H81.3929V11.6569H80.8929ZM81.4439 11.1012C81.2857 11.1012 81.1497 11.1792 81.0587 11.2716C80.9676 11.3643 80.8929 11.5007 80.8929 11.6569H81.3929C81.3929 11.6599 81.3922 11.6573 81.3959 11.6493C81.3995 11.6414 81.406 11.6316 81.4152 11.6222C81.4244 11.6128 81.4337 11.6067 81.4407 11.6034C81.4476 11.6001 81.4487 11.6012 81.4439 11.6012V11.1012ZM81.995 11.6569C81.995 11.5007 81.9203 11.3643 81.8291 11.2716C81.7382 11.1792 81.6021 11.1012 81.4439 11.1012V11.6012C81.4391 11.6012 81.4402 11.6001 81.4472 11.6034C81.4541 11.6067 81.4634 11.6128 81.4727 11.6222C81.4819 11.6316 81.4883 11.6414 81.492 11.6493C81.4956 11.6573 81.495 11.6599 81.495 11.6569H81.995ZM96.1652 14.2506V17.9887H96.6652V14.2506H96.1652ZM93.7816 11.4495C95.2496 11.4495 96.1652 12.7329 96.1652 14.2506H96.6652C96.6652 12.565 95.6228 10.9495 93.7816 10.9495V11.4495ZM91.3782 13.1277C91.7978 12.1377 92.6936 11.4495 93.7816 11.4495V10.9495C92.4635 10.9495 91.4036 11.7863 90.9178 12.9326L91.3782 13.1277ZM88.6661 11.4495C89.7492 11.4495 90.5664 12.1302 90.9121 13.1131L91.3838 12.9472C90.9781 11.7938 89.9913 10.9495 88.6661 10.9495V11.4495ZM86.3996 12.7738C86.8835 11.9344 87.7042 11.4495 88.6661 11.4495V10.9495C87.5206 10.9495 86.5372 11.534 85.9664 12.5241L86.3996 12.7738ZM85.933 11.5808V12.6489H86.433V11.5808H85.933ZM85.8819 11.5262C85.8774 11.5262 85.8788 11.5252 85.8857 11.5285C85.8927 11.5318 85.902 11.5379 85.9111 11.5472C85.9202 11.5564 85.9266 11.566 85.9301 11.5737C85.9336 11.5813 85.933 11.5838 85.933 11.5808H86.433C86.433 11.4243 86.3581 11.2881 86.2667 11.1956C86.1755 11.1034 86.0395 11.0262 85.8819 11.0262V11.5262ZM85.832 11.5808C85.832 11.5835 85.8315 11.5808 85.835 11.5731C85.8385 11.5654 85.8448 11.5558 85.8538 11.5467C85.8628 11.5376 85.8718 11.5316 85.8786 11.5284C85.8853 11.5252 85.8865 11.5262 85.8819 11.5262V11.0262C85.7241 11.0262 85.5883 11.1035 85.4973 11.1961C85.4061 11.2888 85.332 11.425 85.332 11.5808H85.832ZM85.832 18.1409V11.5808H85.332V18.1409H85.832ZM85.8819 18.1955C85.8867 18.1955 85.8855 18.1966 85.8787 18.1933C85.8719 18.1901 85.8628 18.1841 85.8538 18.175C85.8448 18.1659 85.8385 18.1564 85.835 18.1487C85.8315 18.1411 85.832 18.1384 85.832 18.1409H85.332C85.332 18.2976 85.4066 18.4339 85.4982 18.5265C85.5894 18.6187 85.725 18.6955 85.8819 18.6955V18.1955ZM85.933 18.1409C85.933 18.1382 85.9336 18.1408 85.93 18.1485C85.9265 18.1562 85.9203 18.1657 85.9113 18.1748C85.9023 18.1839 85.8933 18.1899 85.8864 18.1931C85.8795 18.1964 85.878 18.1955 85.8819 18.1955V18.6955C86.0398 18.6955 86.1759 18.6186 86.2673 18.5258C86.3589 18.433 86.433 18.2968 86.433 18.1409H85.933ZM85.933 15.1665V18.1409H86.433V15.1665H85.933ZM88.5914 11.6365C87.6502 11.6365 86.9489 12.0151 86.5035 12.6707C86.0671 13.313 85.8947 14.1933 85.9332 15.1763L86.4328 15.1568C86.3966 14.2324 86.5631 13.4726 86.917 12.9517C87.2619 12.4441 87.8021 12.1365 88.5914 12.1365V11.6365ZM90.9476 14.3273C90.9476 13.6748 90.7669 13.008 90.3791 12.4979C89.9854 11.9802 89.3863 11.6365 88.5914 11.6365V12.1365C89.2247 12.1365 89.6787 12.4029 89.9811 12.8006C90.2892 13.2058 90.4476 13.7594 90.4476 14.3273H90.9476ZM90.9476 18.0642V14.3273H90.4476V18.0642H90.9476ZM90.9986 18.1199C91.0031 18.1199 91.0018 18.121 90.9949 18.1177C90.988 18.1144 90.9788 18.1083 90.9696 18.0991C90.9605 18.0898 90.9542 18.0802 90.9506 18.0724C90.947 18.0646 90.9476 18.0617 90.9476 18.0642H90.4476C90.4476 18.2208 90.522 18.3572 90.6136 18.4501C90.705 18.5427 90.841 18.6199 90.9986 18.6199V18.1199ZM91.0497 18.0642C91.0497 18.0617 91.0502 18.0646 91.0466 18.0724C91.043 18.0802 91.0367 18.0898 91.0276 18.0991C91.0184 18.1083 91.0093 18.1144 91.0023 18.1177C90.9954 18.121 90.9941 18.1199 90.9986 18.1199V18.6199C91.1563 18.6199 91.2923 18.5427 91.3836 18.4501C91.4752 18.3572 91.5497 18.2208 91.5497 18.0642H91.0497ZM91.0497 15.1665V18.0642H91.5497V15.1665H91.0497ZM93.7069 11.5597C92.7309 11.5597 92.0567 12.1044 91.6387 12.8178C91.2253 13.5232 91.0497 14.4088 91.0497 15.1665H91.5497C91.5497 14.4737 91.7124 13.6809 92.07 13.0706C92.423 12.4682 92.9524 12.0597 93.7069 12.0597V11.5597ZM96.0631 14.2506C96.0631 13.5982 95.8828 12.9313 95.495 12.4212C95.1015 11.9035 94.5023 11.5597 93.7069 11.5597V12.0597C94.3409 12.0597 94.7948 12.3262 95.097 12.7238C95.405 13.129 95.5631 13.6826 95.5631 14.2506H96.0631ZM96.0631 17.9887V14.2506H95.5631V17.9887H96.0631ZM96.1141 18.0432C96.1192 18.0432 96.118 18.0444 96.1109 18.041C96.1039 18.0377 96.0945 18.0314 96.0852 18.022C96.0759 18.0127 96.0695 18.003 96.0659 17.9953C96.0623 17.9876 96.0631 17.9853 96.0631 17.9887H95.5631C95.5631 18.1457 95.6388 18.2819 95.73 18.374C95.821 18.4658 95.9568 18.5432 96.1141 18.5432V18.0432ZM96.1652 17.9887C96.1652 17.9859 96.1658 17.9886 96.1622 17.9962C96.1587 18.0039 96.1525 18.0134 96.1435 18.0225C96.1345 18.0316 96.1255 18.0376 96.1186 18.0409C96.1117 18.0441 96.1102 18.0432 96.1141 18.0432V18.5432C96.272 18.5432 96.4081 18.4663 96.4996 18.3736C96.5911 18.2807 96.6652 18.1445 96.6652 17.9887H96.1652Z" fill="#0F0F0F"/>
</svg>
