<svg width="24" height="24" viewBox="0 0 24 24" fill="none" xmlns="http://www.w3.org/2000/svg">
<path fill-rule="evenodd" clip-rule="evenodd" d="M13.4901 4C16.1912 4 18.6309 5.13432 20.3518 6.94487C20.5914 7.18485 20.8165 7.45386 21.0053 7.71564L13.4829 15.256L5.96045 7.72291C6.17105 7.4539 6.39613 7.19212 6.62846 6.94487C8.3566 5.13432 10.789 4 13.4901 4ZM19.3207 7.65749C17.7742 6.09414 15.712 5.23612 13.4901 5.23612C11.2683 5.23612 9.21339 6.09414 7.65953 7.65749L13.4901 13.4964L19.3207 7.65749ZM21.608 8.58093L20.0759 10.1152C20.5842 10.726 20.8891 11.4967 20.8891 12.3548C20.8891 14.2816 19.328 15.845 17.4038 15.845C16.5543 15.845 15.7774 15.5396 15.1675 15.0306L13.4902 16.7103L11.8129 15.0306C11.2029 15.5396 10.4333 15.845 9.57647 15.845C7.65229 15.845 6.09117 14.2816 6.09117 12.3548C6.09117 11.504 6.39614 10.726 6.90442 10.1152L6.12023 9.3299L5.37233 8.58093C4.50102 10.0207 4 11.7004 4 13.5036C4 18.7535 8.24769 23 13.4829 23C18.7181 23 22.9658 18.7463 22.9658 13.5036C22.9803 11.6931 22.4793 10.0134 21.608 8.58093ZM19.3498 10.8277C19.6766 11.2495 19.8654 11.773 19.8654 12.3402C19.8654 13.7072 18.7617 14.8124 17.4039 14.8051C16.8303 14.8051 16.3075 14.6161 15.8936 14.2889L19.3498 10.8277ZM11.0941 14.2962C10.6729 14.6234 10.1501 14.8125 9.58381 14.8125C8.21873 14.8125 7.11506 13.7072 7.12231 12.3475C7.12231 11.773 7.3111 11.2495 7.63785 10.835L11.0941 14.2962Z" fill="#04795B"/>
</svg>
