<svg width="85" height="20" viewBox="0 0 85 20" fill="none" xmlns="http://www.w3.org/2000/svg">
<path d="M27.0458 13.1633C28.0863 13.1633 29.1079 12.8127 29.7228 12.3389V9.31597H26.9039V10.6237H28.2093V11.4197C27.8215 11.6282 27.462 11.7134 27.0458 11.7134C25.9012 11.7134 25.2296 10.8227 25.2296 9.73292C25.2296 8.48204 26.0242 7.75237 26.9796 7.75237C27.6985 7.75237 28.2282 8.06509 28.5877 8.41571L29.7039 7.46808C29.0133 6.67209 27.9539 6.2646 26.9796 6.2646C24.8323 6.2646 23.5742 7.7808 23.5742 9.73292C23.5742 11.9219 25.1066 13.1633 27.0458 13.1633ZM30.7 13.0875H32.1757V10.7563C32.1757 10.0361 32.5162 9.68552 33.027 9.68552C33.5094 9.68552 33.7648 9.90348 33.7648 10.671V13.0875H35.2404V10.311C35.2404 8.84216 34.5403 8.36834 33.5851 8.36834C33.0459 8.36834 32.554 8.5768 32.1946 8.99375H32.1757V8.45361H30.7V13.0875ZM38.4853 13.1728C39.942 13.1728 40.9827 12.1967 40.9827 10.7753C40.9827 9.3444 39.942 8.36834 38.4853 8.36834C36.9907 8.36834 35.9787 9.36333 35.9787 10.7753C35.9787 12.1778 36.9907 13.1728 38.4853 13.1728ZM38.4853 11.8651C37.8987 11.8651 37.4733 11.3912 37.4733 10.7753C37.4733 10.1404 37.8896 9.68552 38.4853 9.68552C39.0624 9.68552 39.4881 10.1309 39.4881 10.7753C39.4881 11.4102 39.0434 11.8651 38.4853 11.8651ZM43.299 13.1728C44.5663 13.1728 45.1814 12.5474 45.1814 11.685C45.1814 10.7753 44.6232 10.5099 43.6017 10.1593C43.1381 9.99824 42.9677 9.89401 42.9677 9.75185C42.9677 9.57182 43.1665 9.49599 43.3369 9.49599C43.6488 9.49599 44.0461 9.65709 44.3678 9.97931L45.0679 8.94638C44.5287 8.54837 44.0176 8.36834 43.3179 8.36834C42.353 8.36834 41.5866 8.90849 41.5866 9.84661C41.5866 10.7374 42.2677 11.1165 43.0436 11.3533C43.6204 11.5334 43.7623 11.6282 43.7623 11.7798C43.7623 11.9504 43.6109 12.0546 43.3179 12.0546C42.8922 12.0546 42.4949 11.884 42.1071 11.5334L41.4166 12.4905C41.9273 12.9454 42.5705 13.1728 43.299 13.1728ZM46.7271 7.87557C47.2382 7.87557 47.6165 7.50598 47.6165 7.0227C47.6165 6.55836 47.2382 6.18881 46.7271 6.18881C46.2164 6.18881 45.8475 6.56786 45.8475 7.0227C45.8475 7.50598 46.2164 7.87557 46.7271 7.87557ZM45.9894 13.0875H47.4651V8.45361H45.9894V13.0875ZM50.0607 13.1728C51.3284 13.1728 51.9431 12.5474 51.9431 11.685C51.9431 10.7753 51.3853 10.5099 50.3635 10.1593C49.9002 9.99824 49.7298 9.89401 49.7298 9.75185C49.7298 9.57182 49.9283 9.49599 50.0987 9.49599C50.4109 9.49599 50.8082 9.65709 51.1296 9.97931L51.8297 8.94638C51.2905 8.54837 50.7798 8.36834 50.0797 8.36834C49.1148 8.36834 48.3487 8.90849 48.3487 9.84661C48.3487 10.7374 49.0298 11.1165 49.8054 11.3533C50.3825 11.5334 50.5244 11.6282 50.5244 11.7798C50.5244 11.9504 50.373 12.0546 50.0797 12.0546C49.654 12.0546 49.2567 11.884 48.8689 11.5334L48.1783 12.4905C48.6894 12.9454 49.3326 13.1728 50.0607 13.1728ZM58.3154 13.1728C59.5072 13.1728 60.4437 12.6042 61.0208 11.8935L59.8666 10.8985C59.4788 11.3628 58.9396 11.6566 58.3154 11.6566C57.2181 11.6566 56.5085 10.8132 56.5085 9.73292C56.5085 8.501 57.3315 7.7808 58.3059 7.7808C58.9586 7.7808 59.4977 8.13142 59.8571 8.55787L61.0113 7.56285C60.2733 6.66262 59.2519 6.2646 58.3059 6.2646C56.0923 6.2646 54.8436 7.80923 54.8436 9.73292C54.8436 11.9693 56.3856 13.1728 58.3154 13.1728ZM61.7476 13.0875H63.2236V10.7469C63.2236 10.0267 63.5639 9.68552 64.0842 9.68552C64.6044 9.68552 64.8597 9.91298 64.8597 10.6616V13.0875H66.3357V10.292C66.3357 8.83266 65.6262 8.36834 64.6707 8.36834C64.1031 8.36834 63.6019 8.5768 63.2422 8.98428L63.2236 8.97482V6.11298H61.7476V13.0875ZM69.2389 13.1728C69.7967 13.1728 70.2129 12.9833 70.5157 12.5947L70.5347 12.6042V13.0875H71.9443V8.45361H70.4591V8.93692L70.4402 8.94638C70.1184 8.56733 69.6551 8.36834 69.163 8.36834C67.9712 8.36834 67.0537 9.35387 67.0537 10.7753C67.0537 12.2062 67.9712 13.1728 69.2389 13.1728ZM69.5508 11.8651C68.9646 11.8651 68.5578 11.4291 68.5578 10.7753C68.5578 10.112 68.9835 9.67605 69.5508 9.67605C70.0995 9.67605 70.5252 10.1404 70.5252 10.7753C70.5252 11.4386 70.0805 11.8651 69.5508 11.8651ZM73.7196 7.87557C74.2304 7.87557 74.609 7.50598 74.609 7.0227C74.609 6.55836 74.2304 6.18881 73.7196 6.18881C73.2089 6.18881 72.8401 6.56786 72.8401 7.0227C72.8401 7.50598 73.2089 7.87557 73.7196 7.87557ZM72.982 13.0875H74.4576V8.45361H72.982V13.0875ZM75.5302 13.0875H77.0058V10.7563C77.0058 10.0361 77.3466 9.68552 77.8573 9.68552C78.3399 9.68552 78.5953 9.90348 78.5953 10.671V13.0875H80.0709V10.311C80.0709 8.84216 79.3709 8.36834 78.4154 8.36834C77.8763 8.36834 77.3845 8.5768 77.0248 8.99375H77.0058V8.45361H75.5302V13.0875Z" fill="#04795B"/>
<path d="M9.1456 11.1095C9.62666 11.1095 10.0707 10.9489 10.4285 10.6709L7.49263 7.7309C7.21508 8.08297 7.05472 8.52767 7.05472 9.01564C7.04855 10.1706 7.98606 11.1095 9.1456 11.1095Z" fill="#04795B"/>
<path d="M17.8777 9.00944C17.8777 8.52768 17.7173 8.08298 17.4398 7.72473L14.5039 10.6647C14.8555 10.9427 15.2996 11.1033 15.7868 11.1033C16.9402 11.1094 17.8777 10.1706 17.8777 9.00944Z" fill="#04795B"/>
<path d="M19.3592 5.81622L18.0578 7.11949C18.4895 7.63829 18.7486 8.29301 18.7486 9.02186C18.7486 10.6586 17.4225 11.9866 15.788 11.9866C15.0664 11.9866 14.4065 11.7272 13.8884 11.2948L12.4636 12.7216L11.0389 11.2948C10.5208 11.7272 9.86699 11.9866 9.1392 11.9866C7.50473 11.9866 6.17866 10.6586 6.17866 9.02186C6.17866 8.29918 6.43771 7.63829 6.86946 7.11949L6.20335 6.45242L5.56805 5.81622C4.82793 7.03918 4.40234 8.46598 4.40234 9.99775C4.40234 14.4572 8.01048 18.0643 12.4575 18.0643C16.9044 18.0643 20.5125 14.451 20.5125 9.99775C20.5249 8.4598 20.0993 7.033 19.3592 5.81622Z" fill="#04795B"/>
<path d="M18.2909 4.42647C16.8292 2.88852 14.7568 1.92499 12.4624 1.92499C10.168 1.92499 8.10178 2.88852 6.63383 4.42647C6.43648 4.63649 6.2453 4.85886 6.06641 5.08736L12.4562 11.4862L18.846 5.08119C18.6857 4.85882 18.4945 4.63031 18.2909 4.42647ZM12.4624 2.975C14.3497 2.975 16.1014 3.70383 17.4151 5.03179L12.4624 9.99154L7.50966 5.03179C8.82957 3.70383 10.5751 2.975 12.4624 2.975Z" fill="#04795B"/>
</svg>
