<svg width="60" height="16" viewBox="0 0 60 16" fill="none" xmlns="http://www.w3.org/2000/svg">
<path d="M1.82808 0.527632C1.80966 0.54605 1.79585 2.65963 1.79585 5.22907V9.89368H0.897925H0L0.00920948 10.8008L0.0230237 11.7125L2.79968 11.7264L5.57174 11.7356V10.8146V9.89368H4.76591H3.96008V9.44241C3.96008 8.85761 4.05217 8.43858 4.28241 7.9735C4.48962 7.54986 4.83958 7.17227 5.20796 6.97427C5.94012 6.57366 7.188 6.57366 7.92476 6.97427C8.21486 7.13544 8.65692 7.59591 8.81348 7.90903C8.88255 8.04257 8.98385 8.30964 9.03911 8.50304C9.13581 8.8484 9.13581 8.9497 9.15423 12.0901L9.16804 15.3273H10.2271H11.2862L11.2724 11.7678L11.2586 8.21294L11.1343 7.75708C10.8073 6.57826 10.1489 5.73099 9.15423 5.21526C8.6431 4.95279 8.17342 4.83307 7.52875 4.79623C6.07366 4.71795 4.93628 5.19684 4.20413 6.19146L3.9831 6.49538L3.96008 3.5069L3.93705 0.523026L2.89638 0.509212C2.32539 0.504608 1.8465 0.513817 1.82808 0.527632Z" fill="#BECAD4"/>
<path d="M31.8672 7.91364V15.3273L32.9401 15.3181L34.0084 15.3042L34.0314 11.9888L34.0544 8.67342L34.1788 8.33727C34.3584 7.84456 34.5702 7.51763 34.8741 7.26437C35.3668 6.84994 35.7352 6.7164 36.4719 6.68417C37.2962 6.64733 37.881 6.82231 38.3599 7.25516C38.6592 7.52684 38.8434 7.78931 38.9861 8.1715C39.2164 8.77933 39.2348 9.11547 39.2348 12.3434V15.3273H40.2939H41.3576L41.3437 11.7954L41.3253 8.25899L41.2056 7.82154C40.9523 6.89138 40.6669 6.39407 40.0406 5.80466C39.7321 5.50996 39.5571 5.39024 39.1795 5.20605C38.521 4.88372 38.1435 4.80543 37.2547 4.81004C36.6791 4.81464 36.4673 4.83306 36.1726 4.91134C35.3898 5.12316 34.7452 5.55601 34.257 6.20067L34.0314 6.49998L34.0222 3.5115L34.0084 0.523026L32.9401 0.509212L31.8672 0.500001V7.91364Z" fill="#BECAD4"/>
<path d="M25.7302 3.73248L25.7163 4.94352L25.1039 4.95734L24.4961 4.97115L24.5053 5.83224L24.5191 6.69332L25.1269 6.70714L25.7348 6.72095L25.7486 9.95348C25.767 13.1584 25.767 13.1906 25.8729 13.5314C26.1354 14.4017 26.6097 14.8806 27.5122 15.1753C27.8668 15.2904 27.9312 15.2996 29.1607 15.318L30.4362 15.3364V14.4385V13.5406L29.5291 13.5268C28.668 13.5083 28.6035 13.5037 28.3871 13.3932C28.2167 13.3103 28.1246 13.2228 28.0417 13.0709L27.9266 12.8637L27.9128 9.78771L27.899 6.71635H29.1699H30.4362V5.84145V4.96655L29.1837 4.95734L27.9266 4.94352L27.9128 3.73248L27.9036 2.52603H26.8215H25.7394L25.7302 3.73248Z" fill="#BECAD4"/>
<path d="M16.6044 4.82854C15.9183 4.93906 15.2229 5.20613 14.6888 5.5653C14.523 5.67582 14.2007 5.9521 13.9704 6.18234C13.2245 6.93291 12.8423 7.66046 12.5844 8.81165C12.4877 9.25831 12.4509 10.4279 12.52 10.9759C12.7502 12.7947 13.7909 14.3051 15.3104 15.0327C15.8814 15.3043 16.2037 15.3918 16.8852 15.4701C18.0502 15.6036 19.1646 15.2767 19.9981 14.5676C20.2928 14.3143 20.698 13.8584 20.8914 13.5499C20.9328 13.4809 20.9466 13.6558 20.9466 14.3926L20.9512 15.3274H22.0333H23.1155V10.147V4.96669H22.0333H20.9512V5.84619V6.7257L20.7486 6.45862C20.4723 6.08564 20.2835 5.88763 19.9612 5.62977C19.6113 5.35348 18.8561 4.9851 18.4417 4.89301C18.0549 4.81012 16.9819 4.77329 16.6044 4.82854ZM18.8284 6.827C19.556 7.08026 20.2375 7.68809 20.5782 8.3788C20.8361 8.90834 20.9098 9.21686 20.9374 9.91678C20.9697 10.7548 20.8822 11.2383 20.5875 11.8508C20.2007 12.6428 19.5652 13.2092 18.7732 13.4716C18.4463 13.5776 18.3219 13.596 17.82 13.596C17.3089 13.596 17.203 13.5822 16.876 13.4716C15.9873 13.1631 15.1769 12.3435 14.9006 11.464C14.5875 10.4694 14.6381 9.23528 15.0341 8.40182C15.3749 7.67888 16.0978 7.04803 16.853 6.81319C17.2813 6.67965 17.3273 6.67505 17.9351 6.69346C18.3864 6.70267 18.5522 6.7303 18.8284 6.827Z" fill="#BECAD4"/>
<path d="M46.9907 4.83324C45.3284 5.05426 43.8411 6.10875 43.1043 7.58227C42.9294 7.93223 42.7222 8.55387 42.6347 8.99592C42.5932 9.20774 42.5702 9.62217 42.5748 10.1932C42.5748 11.174 42.6393 11.5608 42.9294 12.3251C43.5142 13.8816 44.9462 15.0834 46.5855 15.3919C48.0959 15.6728 49.6247 15.4011 50.7897 14.6367C51.9869 13.8493 52.7835 12.6705 53.023 11.3351C53.3223 9.66821 52.9953 8.01051 52.1481 6.87314C51.3975 5.8693 50.3614 5.19701 49.1319 4.91612C48.6715 4.81021 47.4881 4.76416 46.9907 4.83324ZM48.1926 6.62908C49.4911 6.80867 50.4397 7.66976 50.7989 8.99592C50.9416 9.53007 50.9416 10.7181 50.7943 11.2476C50.6331 11.8417 50.3798 12.3113 50.0207 12.6843C49.399 13.3244 48.7682 13.6145 47.9071 13.6559C47.0736 13.6974 46.3921 13.4671 45.8165 12.9468C45.0936 12.2883 44.7574 11.4042 44.7574 10.1471C44.7574 9.20774 44.9324 8.50782 45.3192 7.93683C45.8119 7.19547 46.5119 6.75341 47.396 6.62448C47.7459 6.57383 47.8012 6.57383 48.1926 6.62908Z" fill="#BECAD4"/>
<path d="M58.665 4.85148C57.7671 5.03107 56.9797 5.59285 56.5192 6.38486L56.3396 6.68878L56.3258 5.82769L56.3166 4.9666H55.2345H54.1523V10.1469V15.3273H55.2345H56.312L56.3258 12.1592C56.3442 9.06482 56.3442 8.98654 56.4455 8.63658C56.754 7.53605 57.4263 7.07557 58.84 7.0065L59.4017 6.97887V5.87834V4.78241L59.1853 4.78702C59.061 4.78702 58.8308 4.81925 58.665 4.85148Z" fill="#BECAD4"/>
<path d="M0.0322332 13.5176C0.0138142 13.5314 0 13.9458 0 14.4386V15.3273H2.78587H5.57174V14.4063V13.4854H2.8181C1.30314 13.4854 0.0460474 13.4992 0.0322332 13.5176Z" fill="#BECAD4"/>
</svg>
