<svg width="24" height="24" viewBox="0 0 24 24" fill="none" xmlns="http://www.w3.org/2000/svg">
<path d="M8.06692 4.46583C8.04834 4.48441 8.0344 6.6167 8.0344 9.20889V13.9148H7.12853H6.22266L6.23195 14.83L6.24588 15.7498L9.04712 15.7637L11.8437 15.773V14.8439V13.9148H11.0308H10.2178V13.4595C10.2178 12.8695 10.3107 12.4468 10.543 11.9776C10.752 11.5502 11.1051 11.1693 11.4767 10.9695C12.2154 10.5654 13.4743 10.5654 14.2176 10.9695C14.5102 11.1321 14.9562 11.5967 15.1142 11.9126C15.1838 12.0473 15.286 12.3167 15.3418 12.5118C15.4393 12.8603 15.4393 12.9625 15.4579 16.1307L15.4719 19.3965H16.5403H17.6088L17.5949 15.8055L17.5809 12.2192L17.4555 11.7593C17.1257 10.57 16.4614 9.71525 15.4579 9.19495C14.9423 8.93016 14.4684 8.80937 13.8181 8.77221C12.3501 8.69324 11.2026 9.17637 10.464 10.1798L10.241 10.4864L10.2178 7.47147L10.1946 4.46118L9.14468 4.44724C8.56864 4.4426 8.0855 4.45189 8.06692 4.46583Z" fill="#BECAD4"/>
<path d="M6.25517 17.5708C6.23659 17.5847 6.22266 18.0028 6.22266 18.4999V19.3965H9.03319H11.8437V18.4674V17.5383H9.06571C7.53733 17.5383 6.26911 17.5522 6.25517 17.5708Z" fill="#BECAD4"/>
</svg>
