<svg width="130" height="44" viewBox="0 0 130 44" fill="none" xmlns="http://www.w3.org/2000/svg"><path d="M51.76 1.541a.734.734 0 0 0-.272.558l.074 13.548a6.196 6.196 0 0 0 6.197 6.17h.065a2.375 2.375 0 0 0 2.38-2.37 2.377 2.377 0 0 0-2.367-2.376c-.658 0-1.19-.534-1.192-1.19l-.027-10.285c0-2.355-2.54-4.258-4.067-4.258-.33 0-.54-.002-.79.203zM64.83 21.789a2.527 2.527 0 0 1-2.527-2.526V7.569c0-.616.498-1.114 1.114-1.114a3.939 3.939 0 0 1 3.94 3.94v8.877a2.523 2.523 0 0 1-2.527 2.517zM91.072 21.789a2.527 2.527 0 0 1-2.527-2.526V7.569c0-.616.498-1.114 1.114-1.114a3.939 3.939 0 0 1 3.936 3.944V19.272a2.523 2.523 0 0 1-2.523 2.517zM85.909 13.842l-.007-.11a7.856 7.856 0 0 0-7.856-7.855h-.092a7.945 7.945 0 1 0-.583 15.876 9.347 9.347 0 0 0 2.296-.257c.44-.093.944-.25 1.17-.323v2.14c0 .203.026.4.07.589a3.94 3.94 0 0 0 3.885 3.323c.616 0 1.114-.498 1.114-1.114v-5.278c0-.089-.004-.176-.013-.263.009-3.008.016-6.728.016-6.728zm-7.95 3.126h-.005a3.146 3.146 0 1 1 .002-6.293 3.148 3.148 0 0 1 3.148 3.142 3.151 3.151 0 0 1-3.145 3.151zM17.13.6L2.24 9.192A4.475 4.475 0 0 0 0 13.07v17.188c0 1.6.853 3.077 2.24 3.876l14.89 8.594a4.484 4.484 0 0 0 4.478 0l7.463-4.31a2.09 2.09 0 0 0 1.045-1.807V30.18c0-.938.5-1.803 1.313-2.272l6.267-3.615a2.09 2.09 0 0 0 1.044-1.808v-9.417c0-1.6-.852-3.078-2.239-3.877L21.611.597A4.493 4.493 0 0 0 17.13.6zm2.183 22.809v10.957c0 1.303-1.41 2.118-2.54 1.466L7.28 30.354a3.047 3.047 0 0 1-1.525-2.64V15.583c0-1.09.58-2.096 1.525-2.64l10.51-6.066a3.05 3.05 0 0 1 3.05 0l9.493 5.479a1.692 1.692 0 0 1 0 2.932l-9.493 5.479a3.05 3.05 0 0 0-1.527 2.642z" fill="#0F0F0F"></path><path d="M33.883 38.515v-6.37a2.81 2.81 0 0 1 1.404-2.432l5.762-3.325a1.256 1.256 0 0 1 1.884 1.09v6.65a2.81 2.81 0 0 1-1.404 2.432l-5.516 3.185a1.421 1.421 0 0 1-2.13-1.23zM55.463 34.321v4.588c0 .32.078.552.232.694.154.143.413.215.78.215h1.113v2.02h-1.507c-2.02 0-3.031-.983-3.031-2.947V34.32h-1.13v-1.97h1.13v-2.346h2.415v2.345h2.125v1.97h-2.127v.003zM61.92 41.387a4.4 4.4 0 0 1-1.72-1.721c-.418-.743-.626-1.598-.626-2.569 0-.97.215-1.825.643-2.568a4.443 4.443 0 0 1 1.757-1.72c.741-.407 1.57-.608 2.485-.608.913 0 1.741.203 2.485.607.74.406 1.328.98 1.757 1.72.428.744.643 1.599.643 2.57 0 .97-.221 1.827-.659 2.568a4.551 4.551 0 0 1-1.782 1.72c-.747.407-1.585.608-2.509.608-.92 0-1.741-.203-2.473-.607zm3.693-1.8c.382-.211.688-.528.918-.95.227-.422.341-.935.341-1.542 0-.901-.236-1.596-.71-2.08a2.34 2.34 0 0 0-1.739-.727c-.685 0-1.259.243-1.721.727-.462.484-.694 1.179-.694 2.08 0 .902.225 1.596.676 2.08.451.484 1.02.728 1.704.728.435.002.843-.103 1.225-.315zM77.578 41.84l-3.221-4.042v4.041h-2.398V29.17h2.398v7.21l3.185-4.026h3.12l-4.18 4.76 4.215 4.726h-3.119zM91.573 37.816h-6.938c.055.685.296 1.22.718 1.609.422.388.943.582 1.559.582.89 0 1.524-.381 1.902-1.147H91.4a4.321 4.321 0 0 1-1.576 2.252c-.777.589-1.73.881-2.862.881-.913 0-1.732-.203-2.458-.607a4.295 4.295 0 0 1-1.697-1.72c-.406-.743-.607-1.598-.607-2.569 0-.982.199-1.843.6-2.586.4-.743.96-1.313 1.68-1.712.718-.4 1.547-.6 2.484-.6.902 0 1.71.194 2.425.582.714.389 1.268.94 1.66 1.652.394.714.592 1.533.592 2.457 0 .343-.024.651-.069.926zm-2.415-1.611c-.012-.616-.235-1.11-.668-1.482-.435-.37-.964-.556-1.594-.556-.594 0-1.094.18-1.498.54-.406.36-.654.86-.746 1.498h4.506zM102.249 33.286c.697.714 1.045 1.71 1.045 2.988v5.566h-2.398V36.6c0-.755-.187-1.333-.565-1.739-.377-.406-.89-.607-1.542-.607-.663 0-1.186.203-1.568.607-.381.407-.573.984-.573 1.739v5.24H94.25v-9.487h2.398v1.18c.319-.41.728-.734 1.225-.966a3.792 3.792 0 0 1 1.637-.35c1.127-.002 2.042.355 2.739 1.069zM106.59 30.82a1.334 1.334 0 0 1-.42-1.002c0-.4.141-.734.42-1.002s.631-.402 1.053-.402c.422 0 .773.134 1.054.402.279.268.42.602.42 1.002s-.141.734-.42 1.002-.632.401-1.054.401c-.424 0-.774-.133-1.053-.401zm2.234 1.533v9.486h-2.397v-9.486h2.397zM114.239 39.869h4.231v1.968h-6.954v-1.934l4.145-5.584h-4.128v-1.97h6.888v1.934l-4.182 5.586zM129.931 37.816h-6.939c.056.685.297 1.22.719 1.609.422.388.942.582 1.558.582.891 0 1.525-.381 1.902-1.147h2.588a4.328 4.328 0 0 1-1.576 2.252c-.777.589-1.731.881-2.863.881-.913 0-1.732-.203-2.457-.607a4.292 4.292 0 0 1-1.697-1.72c-.406-.743-.607-1.598-.607-2.569 0-.982.198-1.843.6-2.586a4.18 4.18 0 0 1 1.679-1.712c.719-.4 1.547-.6 2.485-.6.902 0 1.71.194 2.424.582.715.389 1.268.94 1.661 1.652.393.714.592 1.533.592 2.457 0 .343-.025.651-.069.926zm-2.416-1.611c-.011-.616-.234-1.11-.667-1.482-.436-.37-.965-.556-1.594-.556-.594 0-1.094.18-1.498.54-.407.36-.655.86-.746 1.498h4.505z" fill="#0F0F0F"></path></svg>
