<svg width="38" height="38" viewBox="0 0 38 38" fill="none" xmlns="http://www.w3.org/2000/svg">
<path d="M15.2152 0.526119L1.98815 8.06269C1.38353 8.40752 0.881552 8.90331 0.532573 9.50025C0.183595 10.0972 -0.000119934 10.7743 5.87415e-08 11.4634V26.5366C-0.000119934 27.2257 0.183595 27.9028 0.532573 28.4997C0.881552 29.0967 1.38353 29.5925 1.98815 29.9373L15.2152 37.4739C15.8201 37.8185 16.5062 38 17.2047 38C17.9032 38 18.5894 37.8185 19.1943 37.4739L25.8223 33.6956C26.1042 33.535 26.3383 33.304 26.5011 33.0259C26.6639 32.7478 26.7496 32.4322 26.7497 32.111V26.4565C26.746 26.0514 26.8514 25.6525 27.0551 25.3008C27.2588 24.949 27.5534 24.6569 27.909 24.4544L33.4821 21.3082C33.7639 21.1476 33.998 20.9166 34.1608 20.6385C34.3236 20.3603 34.4093 20.0448 34.4094 19.7236V11.4634C34.4096 10.7743 34.2259 10.0972 33.8769 9.50025C33.528 8.90331 33.026 8.40752 32.4214 8.06269L19.1943 0.526119C18.5894 0.18145 17.9032 0 17.2047 0C16.5062 0 15.8201 0.18145 15.2152 0.526119ZM17.1541 20.5273V30.1375C17.1545 30.3984 17.0852 30.6549 16.9532 30.8809C16.8212 31.107 16.6312 31.2948 16.4023 31.4253C16.1734 31.5558 15.9136 31.6244 15.6492 31.6243C15.3849 31.6242 15.1252 31.5553 14.8964 31.4246L6.46284 26.6195C6.05106 26.3846 5.7092 26.0468 5.47163 25.6401C5.23405 25.2334 5.10915 24.7722 5.10943 24.3028V13.6658C5.10915 13.1964 5.23405 12.7351 5.47163 12.3284C5.7092 11.9218 6.05106 11.584 6.46284 11.349L15.7977 6.0291C16.2096 5.79438 16.6769 5.67081 17.1526 5.67081C17.6282 5.67081 18.0955 5.79438 18.5075 6.0291L26.9381 10.8342C27.1675 10.9643 27.3581 11.1518 27.4906 11.3777C27.6231 11.6037 27.6929 11.8602 27.6929 12.1213C27.6929 12.3824 27.6231 12.6388 27.4906 12.8648C27.3581 13.0908 27.1675 13.2783 26.9381 13.4084L18.5046 18.2134C18.0938 18.4485 17.7527 18.786 17.5157 19.1921C17.2787 19.5982 17.154 20.0587 17.1541 20.5273Z" fill="#14171B"/>
<path d="M29.9212 33.7735V28.1209C29.9212 27.6831 30.0372 27.2531 30.2574 26.874C30.4777 26.495 30.7945 26.1803 31.176 25.9617L36.3173 23.0095C36.4878 22.9113 36.6814 22.8595 36.8785 22.8594C37.0756 22.8593 37.2692 22.9108 37.4399 23.0089C37.6106 23.1069 37.7522 23.248 37.8506 23.4178C37.9489 23.5876 38.0004 23.7802 38 23.9762V29.8777C38 30.3155 37.8841 30.7455 37.6638 31.1246C37.4435 31.5036 37.1267 31.8183 36.7452 32.0369L31.8223 34.8617C31.6299 34.9725 31.4116 35.031 31.1892 35.0312C30.9669 35.0315 30.7484 34.9736 30.5557 34.8633C30.363 34.753 30.203 34.5942 30.0916 34.4029C29.9802 34.2116 29.9215 33.9945 29.9212 33.7735Z" fill="#14171B"/>
</svg>
