<svg width="97" height="20" viewBox="0 0 97 20" fill="none" xmlns="http://www.w3.org/2000/svg">
<path d="M17.0775 6.11972C16.8616 5.99531 16.6168 5.92983 16.3676 5.92983C16.1185 5.92983 15.8737 5.99531 15.6578 6.11972L12.401 8.05984L10.1881 9.32516L6.93127 11.2653C6.7154 11.3897 6.47062 11.4552 6.22147 11.4552C5.97232 11.4552 5.72754 11.3897 5.51167 11.2653L2.92295 9.74697C2.71052 9.62012 2.53388 9.44127 2.4097 9.22727C2.28551 9.01327 2.21787 8.77117 2.21313 8.5238V5.52923C2.209 5.28007 2.27292 5.03451 2.39799 4.81898C2.52307 4.60345 2.70457 4.42613 2.92295 4.30609L5.46992 2.82989C5.6858 2.70548 5.93058 2.64 6.17974 2.64C6.4289 2.64 6.67368 2.70548 6.88956 2.82989L9.43654 4.30609C9.64895 4.43295 9.82557 4.61179 9.94975 4.82579C10.0739 5.03978 10.1416 5.28186 10.1463 5.52923V7.46939L12.3593 6.16189V4.22171C12.3634 3.97256 12.2995 3.72699 12.1744 3.51147C12.0493 3.29594 11.8678 3.11861 11.6495 2.99857L6.93127 0.214909C6.7154 0.0905066 6.47062 0.0250244 6.22147 0.0250244C5.97232 0.0250244 5.72754 0.0905066 5.51167 0.214909L0.709991 2.99861C0.491621 3.11864 0.310128 3.29596 0.185054 3.51148C0.0599807 3.72701 -0.00393544 3.97256 0.000187947 4.22171V9.8313C-0.00393925 10.0805 0.0599763 10.326 0.185053 10.5415C0.310129 10.7571 0.491627 10.9344 0.710003 11.0544L5.51168 13.8381C5.72755 13.9625 5.97233 14.028 6.22148 14.028C6.47064 14.028 6.71542 13.9625 6.93128 13.8381L10.1881 11.9401L12.401 10.6327L15.6578 8.73468C15.8737 8.61028 16.1185 8.5448 16.3677 8.5448C16.6168 8.5448 16.8616 8.61028 17.0775 8.73468L19.6244 10.2109C19.8369 10.3378 20.0135 10.5166 20.1377 10.7306C20.2618 10.9446 20.3295 11.1867 20.3342 11.434V14.4286C20.3384 14.6778 20.2744 14.9233 20.1494 15.1388C20.0243 15.3544 19.8428 15.5317 19.6244 15.6517L17.0775 17.1702C16.8616 17.2946 16.6168 17.36 16.3677 17.36C16.1185 17.36 15.8737 17.2946 15.6578 17.1702L13.1109 15.6939C12.8984 15.5671 12.7218 15.3882 12.5976 15.1742C12.4734 14.9602 12.4058 14.7181 12.401 14.4708V12.5306L10.1881 13.8381V15.7783C10.184 16.0274 10.2479 16.273 10.3729 16.4885C10.498 16.704 10.6795 16.8814 10.8979 17.0014L15.6996 19.7852C15.9154 19.9095 16.1602 19.975 16.4094 19.975C16.6585 19.975 16.9033 19.9095 17.1192 19.7852L21.9209 17.0014C22.1333 16.8746 22.3099 16.6957 22.4341 16.4817C22.5583 16.2677 22.626 16.0257 22.6307 15.7783V10.1687C22.6348 9.91954 22.5709 9.67398 22.4458 9.45846C22.3207 9.24294 22.1392 9.06561 21.9209 8.94559L17.0775 6.11972Z" fill="#7B3FE4"/>
<path d="M31.4495 18.1785V13.5215C31.7687 13.8612 32.1591 14.1263 32.5927 14.2976C33.0263 14.469 33.4924 14.5425 33.9577 14.5127C36.6922 14.5127 38.5403 12.5863 38.5403 9.64996C38.5403 6.71359 36.8431 4.78719 34.184 4.78719C33.668 4.75797 33.1523 4.84922 32.6777 5.05373C32.2031 5.25824 31.7826 5.57038 31.4495 5.96548V4.93681H28.8281V18.1785H31.4495ZM33.6371 12.2684C32.2227 12.2684 31.2986 11.221 31.2986 9.64996C31.2986 8.06021 32.2227 7.01284 33.6371 7.01284C35.0138 7.01284 35.9567 8.06021 35.9567 9.64996C35.9567 11.221 35.0138 12.2684 33.6371 12.2684Z" fill="black"/>
<path d="M44.49 14.5127C45.4453 14.483 46.3707 14.1725 47.1507 13.6201C47.9307 13.0676 48.5306 12.2977 48.8757 11.4064C49.2207 10.515 49.2956 9.54182 49.091 8.6082C48.8863 7.67458 48.4112 6.82192 47.7249 6.15667C47.0386 5.49142 46.1716 5.04304 45.2321 4.86753C44.2926 4.69201 43.3221 4.79712 42.442 5.16974C41.5618 5.54237 40.8109 6.16599 40.283 6.96275C39.7551 7.75952 39.4735 8.69414 39.4735 9.64993C39.4609 10.3051 39.5833 10.9559 39.8329 11.5617C40.0826 12.1676 40.4542 12.7157 40.9247 13.1718C41.3952 13.6279 41.9546 13.9823 42.5679 14.213C43.1813 14.4437 43.8355 14.5457 44.49 14.5127ZM44.49 12.2683C43.0756 12.2683 42.1138 11.2023 42.1138 9.64993C42.1138 8.07888 43.0756 7.01281 44.49 7.01281C45.9044 7.01281 46.8662 8.07888 46.8662 9.64993C46.8662 11.2023 45.9044 12.2683 44.49 12.2683Z" fill="black"/>
<path d="M53.7112 14.3632V0.840942H51.0898V14.3632H53.7112Z" fill="black"/>
<path d="M61.5907 4.93689L59.6105 11.0154L57.6115 4.93689H54.9336L58.3847 14.2884L56.9892 18.1786H59.4974L60.8364 14.3258L64.2874 4.93689H61.5907Z" fill="black"/>
<path d="M71.6503 5.8721C71.3206 5.50886 70.9146 5.22319 70.4613 5.03563C70.008 4.84806 69.5188 4.76326 69.0288 4.78732C66.2564 4.78732 64.5781 6.71373 64.5781 9.6501C64.5781 12.5865 66.2564 14.5129 69.0668 14.5129C69.5564 14.5425 70.0461 14.4583 70.4976 14.2668C70.9491 14.0754 71.35 13.7819 71.6691 13.4094V14.6438C71.6837 14.834 71.6591 15.0251 71.5967 15.2053C71.5343 15.3856 71.4354 15.551 71.3063 15.6914C71.1772 15.8317 71.0205 15.944 70.8461 16.0212C70.6717 16.0984 70.4832 16.1388 70.2925 16.14H65.9173V18.1787H70.7071C72.8573 18.1787 74.2906 16.8882 74.2906 14.9243V4.93695H71.6503V5.8721ZM69.4814 12.2685C68.0862 12.2685 67.1616 11.2399 67.1616 9.6501C67.1616 8.06034 68.0862 7.01298 69.4814 7.01298C70.896 7.01298 71.8199 8.06034 71.8199 9.6501C71.8199 11.2399 70.896 12.2685 69.4814 12.2685V12.2685Z" fill="black"/>
<path d="M80.8998 14.5127C81.8552 14.483 82.7806 14.1726 83.5606 13.6202C84.3406 13.0678 84.9406 12.2979 85.2857 11.4066C85.6309 10.5152 85.7058 9.54202 85.5012 8.60838C85.2965 7.67474 84.8214 6.82205 84.1352 6.15677C83.4489 5.49149 82.5819 5.04309 81.6423 4.86755C80.7028 4.69201 79.7324 4.7971 78.8522 5.16971C77.972 5.54233 77.2211 6.16595 76.6931 6.96272C76.1652 7.7595 75.8837 8.69412 75.8837 9.64992C75.8711 10.3051 75.9935 10.9558 76.2431 11.5616C76.4928 12.1675 76.8644 12.7155 77.3348 13.1716C77.8053 13.6277 78.3646 13.9821 78.9779 14.2128C79.5912 14.4435 80.2454 14.5456 80.8998 14.5127ZM80.8998 12.2683C79.4853 12.2683 78.5239 11.2023 78.5239 9.64992C78.5239 8.07887 79.4853 7.0128 80.8998 7.0128C82.3144 7.0128 83.2764 8.07887 83.2764 9.64992C83.2764 11.2023 82.3144 12.2683 80.8998 12.2683Z" fill="black"/>
<path d="M89.9912 14.3631V9.20103C89.972 8.93228 90.0086 8.66246 90.0986 8.4085C90.1886 8.15455 90.3301 7.92193 90.5143 7.72525C90.6984 7.52857 90.9212 7.37206 91.1687 7.26555C91.4162 7.15904 91.6831 7.10482 91.9525 7.1063C92.2051 7.10369 92.4554 7.15377 92.6875 7.25333C92.9196 7.35289 93.1284 7.49975 93.3006 7.68455C93.4728 7.86934 93.6046 8.08799 93.6875 8.32656C93.7704 8.56513 93.8027 8.81837 93.7823 9.07011V14.3631H96.4225V8.49032C96.4225 6.32077 95.0266 4.78713 92.877 4.78713C92.3097 4.75161 91.7432 4.86807 91.2359 5.12451C90.7286 5.38095 90.2989 5.76808 89.9912 6.24596V4.93675H87.3516V14.3631H89.9912Z" fill="black"/>
</svg>
