<svg width="24" height="24" viewBox="0 0 24 24" fill="none" xmlns="http://www.w3.org/2000/svg">
<path d="M16.754 8.71421C16.5759 8.6089 16.374 8.55347 16.1685 8.55347C15.963 8.55347 15.7611 8.6089 15.583 8.71421L12.8967 10.3566L11.0714 11.4278L8.3851 13.0703C8.20704 13.1756 8.00514 13.231 7.79963 13.231C7.59413 13.231 7.39223 13.1756 7.21417 13.0703L5.07891 11.7849C4.90369 11.6775 4.758 11.5261 4.65556 11.3449C4.55313 11.1638 4.49733 10.9588 4.49343 10.7494V8.21433C4.49002 8.00341 4.54274 7.79552 4.64591 7.61306C4.74908 7.4306 4.89878 7.28049 5.07891 7.17887L7.17973 5.92917C7.3578 5.82386 7.5597 5.76842 7.76522 5.76842C7.97073 5.76842 8.17263 5.82386 8.3507 5.92917L10.4515 7.17887C10.6267 7.28626 10.7724 7.43767 10.8748 7.61882C10.9773 7.79998 11.0331 8.00492 11.037 8.21433V9.85679L12.8623 8.74992V7.10744C12.8657 6.89651 12.813 6.68863 12.7098 6.50617C12.6066 6.32371 12.4569 6.17359 12.2768 6.07198L8.3851 3.71544C8.20704 3.61012 8.00514 3.55469 7.79963 3.55469C7.59413 3.55469 7.39223 3.61012 7.21417 3.71544L3.25359 6.07201C3.07347 6.17362 2.92377 6.32374 2.82061 6.50619C2.71744 6.68864 2.66472 6.89652 2.66812 7.10744V11.8563C2.66472 12.0672 2.71744 12.2751 2.82061 12.4576C2.92377 12.64 3.07348 12.7901 3.2536 12.8917L7.21418 15.2483C7.39223 15.3536 7.59413 15.4091 7.79965 15.4091C8.00516 15.4091 8.20706 15.3536 8.38511 15.2483L11.0714 13.6415L12.8967 12.5347L15.5831 10.9279C15.7611 10.8226 15.963 10.7672 16.1685 10.7672C16.374 10.7672 16.5759 10.8226 16.754 10.9279L18.8548 12.1777C19.03 12.285 19.1757 12.4364 19.2781 12.6176C19.3806 12.7987 19.4364 13.0037 19.4403 13.2131V15.7482C19.4437 15.9591 19.391 16.167 19.2878 16.3495C19.1846 16.5319 19.0349 16.682 18.8548 16.7836L16.754 18.0691C16.5759 18.1744 16.374 18.2298 16.1685 18.2298C15.963 18.2298 15.7611 18.1744 15.5831 18.0691L13.4822 16.8194C13.307 16.712 13.1613 16.5606 13.0589 16.3794C12.9564 16.1983 12.9006 15.9933 12.8967 15.7839V14.1414L11.0714 15.2483V16.8908C11.068 17.1017 11.1207 17.3096 11.2239 17.492C11.3271 17.6745 11.4768 17.8246 11.6569 17.9262L15.6175 20.2828C15.7955 20.3881 15.9974 20.4436 16.2029 20.4436C16.4084 20.4436 16.6103 20.3881 16.7884 20.2828L20.749 17.9262C20.9242 17.8188 21.0699 17.6674 21.1723 17.4863C21.2748 17.3051 21.3306 17.1002 21.3345 16.8908V12.1419C21.3379 11.931 21.2852 11.7231 21.182 11.5407C21.0788 11.3582 20.9291 11.2081 20.749 11.1065L16.754 8.71421Z" fill="#7B3FE4"/>
</svg>
