<?xml version="1.0" encoding="UTF-8"?><svg id="a" xmlns="http://www.w3.org/2000/svg" width="40" height="40" viewBox="0 0 37.67 33.54"><defs><style>.b{fill:#becad4;}</style></defs><path class="b" d="M9,10.89c3,0,5.44-2.44,5.44-5.44S12,0,9,0,3.55,2.44,3.55,5.44s2.44,5.44,5.44,5.44Zm0-8.89c1.9,0,3.44,1.55,3.44,3.44s-1.54,3.44-3.44,3.44-3.44-1.54-3.44-3.44,1.54-3.44,3.44-3.44Z"/><path class="b" d="M5.04,16.22h7.8c.2,0,.39,.06,.55,.17l.83,.55c.46,.31,1.08,.18,1.39-.28,.31-.46,.18-1.08-.28-1.39l-.83-.55c-.49-.33-1.07-.5-1.66-.5H5.04c-1.79,0-3.36,1.18-3.85,2.9L.04,21.17c-.09,.3-.03,.63,.16,.88,.19,.25,.48,.4,.8,.4H10.78c.55,0,1-.45,1-1s-.45-1-1-1H2.33l.79-2.77c.25-.86,1.03-1.45,1.92-1.45Z"/><path class="b" d="M24.33,15.33c3.31,0,6-2.69,6-6s-2.69-6-6-6-6,2.69-6,6,2.69,6,6,6Zm0-10c2.21,0,4,1.79,4,4s-1.79,4-4,4-4-1.79-4-4,1.79-4,4-4Z"/><path class="b" d="M29.67,17.54c-1.24,0-2.41,.29-3.46,.8h-7.87c-2.76,0-5,2.24-5,5v4.33c0,.55,.45,1,1,1h7.97c1.22,2.86,4.06,4.87,7.36,4.87,4.42,0,8-3.58,8-8s-3.58-8-8-8Zm-8,8c0,.38,.04,.76,.09,1.13h-6.42v-3.33c0-1.65,1.35-3,3-3h5.26c-1.2,1.4-1.93,3.22-1.93,5.2Zm12,1h-3v3c0,.55-.45,1-1,1s-1-.45-1-1v-3h-3c-.55,0-1-.45-1-1s.45-1,1-1h3v-3c0-.55,.45-1,1-1s1,.45,1,1v3h3c.55,0,1,.45,1,1s-.45,1-1,1Z"/></svg>
