<svg width="24" height="24" viewBox="0 0 24 24" fill="none" xmlns="http://www.w3.org/2000/svg">
<path fill-rule="evenodd" clip-rule="evenodd" d="M12 19C11.4477 19 11 18.5523 11 18L11 9C11 8.44772 11.4477 8 12 8C12.5523 8 13 8.44772 13 9L13 18C13 18.5523 12.5523 19 12 19Z" fill="#7B8896"/>
<path fill-rule="evenodd" clip-rule="evenodd" d="M6.29289 13.7071C5.90237 13.3166 5.90237 12.6834 6.29289 12.2929L11.2929 7.29289C11.6834 6.90237 12.3166 6.90237 12.7071 7.2929C13.0976 7.68342 13.0976 8.31658 12.7071 8.70711L7.70711 13.7071C7.31658 14.0976 6.68342 14.0976 6.29289 13.7071Z" fill="#7B8896"/>
<path fill-rule="evenodd" clip-rule="evenodd" d="M17.7071 13.7071C17.3166 14.0976 16.6834 14.0976 16.2929 13.7071L11.2929 8.70708C10.9024 8.31655 10.9024 7.68339 11.2929 7.29286C11.6834 6.90234 12.3166 6.90234 12.7071 7.29286L17.7071 12.2929C18.0976 12.6834 18.0976 13.3166 17.7071 13.7071Z" fill="#7B8896"/>
<path fill-rule="evenodd" clip-rule="evenodd" d="M21 5C21 5.55228 20.5523 6 20 6L4 6C3.44772 6 3 5.55228 3 5C3 4.44771 3.44772 4 4 4L20 4C20.5523 4 21 4.44772 21 5Z" fill="#7B8896"/>
</svg>
