<svg width="24" height="24" viewBox="0 0 24 24" fill="none" xmlns="http://www.w3.org/2000/svg">
<path fill-rule="evenodd" clip-rule="evenodd" d="M12 5C12.5523 5 13 5.44772 13 6L13 15C13 15.5523 12.5523 16 12 16C11.4477 16 11 15.5523 11 15L11 6C11 5.44772 11.4477 5 12 5Z" fill="#7B8896"/>
<path fill-rule="evenodd" clip-rule="evenodd" d="M17.7071 10.2929C18.0976 10.6834 18.0976 11.3166 17.7071 11.7071L12.7071 16.7071C12.3166 17.0976 11.6834 17.0976 11.2929 16.7071C10.9023 16.3166 10.9023 15.6834 11.2929 15.2929L16.2929 10.2929C16.6834 9.90237 17.3166 9.90237 17.7071 10.2929Z" fill="#7B8896"/>
<path fill-rule="evenodd" clip-rule="evenodd" d="M6.29289 10.2929C6.68342 9.9024 7.31658 9.9024 7.70711 10.2929L12.7071 15.2929C13.0976 15.6834 13.0976 16.3166 12.7071 16.7071C12.3166 17.0977 11.6834 17.0977 11.2929 16.7071L6.29289 11.7071C5.90237 11.3166 5.90237 10.6834 6.29289 10.2929Z" fill="#7B8896"/>
<path fill-rule="evenodd" clip-rule="evenodd" d="M3 19C3 18.4477 3.44772 18 4 18L20 18C20.5523 18 21 18.4477 21 19C21 19.5523 20.5523 20 20 20L4 20C3.44772 20 3 19.5523 3 19Z" fill="#7B8896"/>
</svg>
