<svg width="24" height="24" viewBox="0 0 24 24" fill="none" xmlns="http://www.w3.org/2000/svg">
<path d="M18 14.5C18 16 18.5 17.5 20 18H4C5.5 17.5 6 16 6 14.5V11C6 8.5 7.5 6 12 6C16.5 6 18 8.5 18 11V14.5Z" stroke="#7B8896" stroke-width="2" stroke-linecap="round" stroke-linejoin="round"/>
<path d="M13 4C13 3.44772 12.5523 3 12 3C11.4477 3 11 3.44772 11 4V6H13V4Z" fill="#7B8896" stroke="#7B8896" stroke-width="2" stroke-linecap="round" stroke-linejoin="round"/>
<path d="M12 22C14 22 14 21 14 21L10 21C10 21 10 22 12 22Z" fill="#7B8896" stroke="#7B8896" stroke-width="2" stroke-linecap="round" stroke-linejoin="round"/>
<circle cx="18" cy="9" r="4" fill="#EC105F"/>
</svg>
