<svg width="24" height="24" viewBox="0 0 24 24" fill="none" xmlns="http://www.w3.org/2000/svg">
<path d="M18 2.70557C18 2.15328 17.5523 1.70557 17 1.70557C16.4477 1.70557 16 2.15328 16 2.70557H18ZM8 2.70557C8 2.15328 7.55228 1.70557 7 1.70557C6.44772 1.70557 6 2.15328 6 2.70557H8ZM5 6.20557H19V4.20557H5V6.20557ZM19 20.2056H5V22.2056H19V20.2056ZM18 5.20557V2.70557H16V5.20557H18ZM8 5.20557V2.70557H6V5.20557H8ZM5 20.2056V9.20557H3V20.2056H5ZM5 9.20557V6.20557H3V9.20557H5ZM19 6.20557V9.20557H21V6.20557H19ZM19 9.20557V20.2056H21V9.20557H19ZM4 10.2056H20V8.20557H4V10.2056ZM5 20.2056H3C3 21.3101 3.89543 22.2056 5 22.2056V20.2056ZM19 22.2056C20.1046 22.2056 21 21.3101 21 20.2056H19V22.2056ZM19 6.20557H21C21 5.101 20.1046 4.20557 19 4.20557V6.20557ZM5 4.20557C3.89543 4.20557 3 5.101 3 6.20557H5V4.20557Z" fill="#7B8896"/>
<path d="M8.73106 14.9518C8.35422 14.5481 7.72143 14.5262 7.31768 14.9031C6.91393 15.2799 6.89211 15.9127 7.26894 16.3165L8.73106 14.9518ZM10.4 18.2056L9.66894 18.8879C9.85807 19.0905 10.1228 19.2056 10.4 19.2056C10.6772 19.2056 10.9419 19.0905 11.1311 18.8879L10.4 18.2056ZM16.7311 12.8879C17.1079 12.4841 17.0861 11.8513 16.6823 11.4745C16.2786 11.0977 15.6458 11.1195 15.2689 11.5232L16.7311 12.8879ZM7.26894 16.3165L9.66894 18.8879L11.1311 17.5232L8.73106 14.9518L7.26894 16.3165ZM11.1311 18.8879L16.7311 12.8879L15.2689 11.5232L9.66894 17.5232L11.1311 18.8879Z" fill="#7B8896"/>
</svg>
