<svg width="24" height="24" viewBox="0 0 24 24" fill="none" xmlns="http://www.w3.org/2000/svg">
<path d="M18 2.70557C18 2.15328 17.5523 1.70557 17 1.70557C16.4477 1.70557 16 2.15328 16 2.70557H18ZM8 2.70557C8 2.15328 7.55228 1.70557 7 1.70557C6.44772 1.70557 6 2.15328 6 2.70557H8ZM5 6.20557H19V4.20557H5V6.20557ZM19 20.2056H5V22.2056H19V20.2056ZM18 5.20557V2.70557H16V5.20557H18ZM8 5.20557V2.70557H6V5.20557H8ZM5 20.2056V9.20557H3V20.2056H5ZM5 9.20557V6.20557H3V9.20557H5ZM19 6.20557V9.20557H21V6.20557H19ZM19 9.20557V20.2056H21V9.20557H19ZM4 10.2056H20V8.20557H4V10.2056ZM5 20.2056H3C3 21.3101 3.89543 22.2056 5 22.2056V20.2056ZM19 22.2056C20.1046 22.2056 21 21.3101 21 20.2056H19V22.2056ZM19 6.20557H21C21 5.101 20.1046 4.20557 19 4.20557V6.20557ZM5 4.20557C3.89543 4.20557 3 5.101 3 6.20557H5V4.20557Z" fill="#7B8896"/>
<circle cx="8" cy="13.2056" r="1" fill="#7B8896"/>
<circle cx="12" cy="13.2056" r="1" fill="#7B8896"/>
<circle cx="8" cy="17.2056" r="1" fill="#7B8896"/>
<circle cx="12" cy="17.2056" r="1" fill="#7B8896"/>
<circle cx="16" cy="13.2056" r="1" fill="#7B8896"/>
</svg>
