<svg width="24" height="24" viewBox="0 0 24 24" fill="none" xmlns="http://www.w3.org/2000/svg">
<circle cx="12" cy="12" r="8" stroke="#7B8896" stroke-width="2"/>
<path d="M8.67477 11.2665C8.26717 10.8939 7.63464 10.9222 7.26197 11.3298C6.88931 11.7374 6.91763 12.3699 7.32523 12.7426L8.67477 11.2665ZM10.5057 14.2955L9.83091 15.0335C10.2143 15.384 10.8022 15.3826 11.184 15.0303L10.5057 14.2955ZM15.8374 10.7348C16.2432 10.3602 16.2685 9.72754 15.8939 9.32172C15.5193 8.9159 14.8866 8.89059 14.4808 9.2652L15.8374 10.7348ZM7.32523 12.7426L9.83091 15.0335L11.1805 13.5574L8.67477 11.2665L7.32523 12.7426ZM11.184 15.0303L15.8374 10.7348L14.4808 9.2652L9.8274 13.5607L11.184 15.0303Z" fill="#7B8896"/>
</svg>
