<svg width="24" height="24" viewBox="0 0 24 24" fill="none" xmlns="http://www.w3.org/2000/svg">
<path fill-rule="evenodd" clip-rule="evenodd" d="M12 22C17.5228 22 22 17.5228 22 12C22 6.47716 17.5228 2 12 2C6.47716 2 2 6.47716 2 12C2 17.5228 6.47716 22 12 22ZM16.666 10.3487C17.078 9.98089 17.1138 9.34874 16.7459 8.93677C16.3781 8.5248 15.746 8.48902 15.334 8.85685L10.451 13.2167L8.21899 10.9078C7.83514 10.5107 7.20206 10.4999 6.80498 10.8838C6.40789 11.2676 6.39716 11.9007 6.78101 12.2978L9.68101 15.2978C10.0542 15.6838 10.6655 15.7063 11.066 15.3487L16.666 10.3487Z" fill="#7B8896"/>
</svg>
