<svg width="24" height="24" viewBox="0 0 24 24" fill="none" xmlns="http://www.w3.org/2000/svg">
<path d="M9.57414 15.096C9.19217 14.6856 9 14.1904 9 13.6146H11.2384C11.2752 14.1506 11.535 14.4181 12.0119 14.4181C12.5101 14.4181 12.7604 14.1965 12.7604 13.7524C12.7604 13.4533 12.5682 13.2042 12.1839 13.0102C12.0427 12.9367 11.8482 12.8571 11.5955 12.7672L10.9193 12.5324C10.6501 12.4324 10.4235 12.3354 10.2408 12.2394C10.0071 12.1159 9.8102 11.9801 9.65243 11.8331C9.27046 11.4706 9.07829 11 9.07829 10.4191C9.07829 9.23073 9.77817 8.47116 11.1756 8.14038V7.88256C11.1756 7.39514 11.5707 7 12.0581 7C12.5456 7 12.9407 7.39514 12.9407 7.88256V8.13834C14.1732 8.3854 14.7805 9.07963 14.7616 10.2241V10.2802H12.7367C12.7023 9.80755 12.4614 9.5707 12.0142 9.5707C11.5397 9.5707 11.3025 9.78203 11.3025 10.2027C11.3025 10.4997 11.5231 10.755 11.9632 10.9684C12.1163 11.0419 12.3108 11.1164 12.5445 11.194L13.0747 11.3655C13.6584 11.5584 14.1174 11.8321 14.4484 12.1853C14.8149 12.5661 15 13.0153 15 13.5268C15 14.0669 14.8055 14.5436 14.4164 14.9581C14.0451 15.3553 13.554 15.6401 12.9407 15.8157V16.1174C12.9407 16.6049 12.5456 17 12.0581 17C11.5707 17 11.1756 16.6049 11.1756 16.1174V15.8617C10.4662 15.7279 9.93357 15.4727 9.57414 15.096Z" fill="#7B8896"/>
<circle cx="12" cy="12" r="8" stroke="#7B8896" stroke-width="2"/>
</svg>
