<svg width="24" height="24" viewBox="0 0 24 24" fill="none" xmlns="http://www.w3.org/2000/svg">
<circle cx="12" cy="12" r="8" stroke="#7B8896" stroke-width="2"/>
<path d="M13 8C13 7.44772 12.5523 7 12 7C11.4477 7 11 7.44772 11 8H13ZM12 12H11C11 12.3344 11.1671 12.6466 11.4453 12.8321L12 12ZM14.4453 14.8321C14.9048 15.1384 15.5257 15.0142 15.8321 14.5547C16.1384 14.0952 16.0142 13.4743 15.5547 13.1679L14.4453 14.8321ZM11 8V12H13V8H11ZM11.4453 12.8321L14.4453 14.8321L15.5547 13.1679L12.5547 11.1679L11.4453 12.8321Z" fill="#7B8896"/>
</svg>
