<svg width="24" height="24" viewBox="0 0 24 24" fill="none" xmlns="http://www.w3.org/2000/svg">
<path d="M5.3847 7.5C5.76217 6.94617 6.20737 6.4422 6.70838 6C8.11864 4.75527 9.97113 4 12 4C16.4183 4 20 7.58172 20 12C20 16.4183 16.4183 20 12 20C10.9391 20 9.92639 19.7935 8.99994 19.4184C8.40632 19.1781 7.84811 18.8687 7.3353 18.5" stroke="#7B8896" stroke-width="2" stroke-linecap="round"/>
<path d="M1.57414 17.096C1.19217 16.6856 1 16.1904 1 15.6146H3.23843C3.27521 16.1506 3.53499 16.4181 4.01186 16.4181C4.51008 16.4181 4.76038 16.1965 4.76038 15.7524C4.76038 15.4533 4.56821 15.2042 4.18387 15.0102C4.0427 14.9367 3.84816 14.8571 3.59549 14.7672L2.91934 14.5324C2.65006 14.4324 2.42349 14.3354 2.24081 14.2394C2.00712 14.1159 1.8102 13.9801 1.65243 13.8331C1.27046 13.4706 1.07829 13 1.07829 12.4191C1.07829 11.2307 1.77817 10.4712 3.17556 10.1404V9.88256C3.17556 9.39514 3.5707 9 4.05813 9C4.54555 9 4.94069 9.39514 4.94069 9.88256V10.1383C6.17319 10.3854 6.78055 11.0796 6.76157 12.2241V12.2802H4.73665C4.70225 11.8076 4.46145 11.5707 4.01423 11.5707C3.53974 11.5707 3.30249 11.782 3.30249 12.2027C3.30249 12.4997 3.52313 12.755 3.96323 12.9684C4.11625 13.0419 4.3108 13.1164 4.54448 13.194L5.07473 13.3655C5.65836 13.5584 6.11744 13.8321 6.4484 14.1853C6.81495 14.5661 7 15.0153 7 15.5268C7 16.0669 6.80546 16.5436 6.41637 16.9581C6.04508 17.3553 5.55397 17.6401 4.94069 17.8157V18.1174C4.94069 18.6049 4.54555 19 4.05813 19C3.5707 19 3.17556 18.6049 3.17556 18.1174V17.8617C2.46619 17.7279 1.93357 17.4727 1.57414 17.096Z" fill="#7B8896"/>
<path d="M13 8C13 7.44772 12.5523 7 12 7C11.4477 7 11 7.44772 11 8H13ZM12 12H11C11 12.3344 11.1671 12.6466 11.4453 12.8321L12 12ZM14.4453 14.8321C14.9048 15.1384 15.5257 15.0142 15.8321 14.5547C16.1384 14.0952 16.0142 13.4743 15.5547 13.1679L14.4453 14.8321ZM11 8V12H13V8H11ZM11.4453 12.8321L14.4453 14.8321L15.5547 13.1679L12.5547 11.1679L11.4453 12.8321Z" fill="#7B8896"/>
</svg>
