<?xml version="1.0" encoding="UTF-8"?><svg id="a" xmlns="http://www.w3.org/2000/svg" width="40" height="40" viewBox="0 0 38.33 33.16"><defs><style>.b{fill:#becad4;}</style></defs><path class="b" d="M30.62,14.54h4.38c.55,0,1-.45,1-1s-.45-1-1-1h-4.38c-.55,0-1,.45-1,1s.45,1,1,1Z"/><path class="b" d="M30.63,8.71c.19,0,.38-.05,.55-.17l4.38-2.92c.46-.31,.58-.93,.28-1.39-.31-.46-.93-.58-1.39-.28l-4.38,2.92c-.46,.31-.58,.93-.28,1.39,.19,.29,.51,.45,.83,.45Z"/><path class="b" d="M30.33,17.16c-2.15,0-4.1,.86-5.54,2.24V1c0-.38-.22-.73-.56-.9-.34-.17-.75-.13-1.05,.11L13.51,7.71H5.1c-2.81,0-5.1,2.29-5.1,5.11,0,2.66,2.05,4.82,4.64,5.06l1.65,8.64c.34,1.78,1.9,3.08,3.72,3.08,1.13,0,2.2-.5,2.92-1.37,.72-.87,1.01-2.01,.8-3.12l-1.37-7.17h1.15l8.84,6.86c0,.13-.02,.26-.02,.39,0,4.42,3.58,8,8,8s8-3.58,8-8-3.58-8-8-8ZM11.38,26.94c-.34,.41-.84,.65-1.38,.65-.86,0-1.59-.61-1.75-1.45l-1.46-7.67h3.64l1.33,7c.1,.52-.04,1.06-.38,1.47Zm1.74-11.02H5.1c-1.71,0-3.1-1.39-3.1-3.1s1.39-3.1,3.1-3.1H13.12v6.21Zm9.67,6.6s-.01,.04-.02,.05l-6.73-5.22V8.28l6.75-5.23V22.52Zm11.54,3.65h-3v3c0,.55-.45,1-1,1s-1-.45-1-1v-3h-3c-.55,0-1-.45-1-1s.45-1,1-1h3v-3c0-.55,.45-1,1-1s1,.45,1,1v3h3c.55,0,1,.45,1,1s-.45,1-1,1Z"/></svg>
