<svg width="24" height="24" viewBox="0 0 24 24" fill="none" xmlns="http://www.w3.org/2000/svg">
<circle cx="12" cy="12" r="9" stroke="#7B8896" stroke-width="2"/>
<path d="M13.7705 10.4169C14.1388 10.8284 14.771 10.8635 15.1825 10.4951C15.5941 10.1268 15.6291 9.49461 15.2608 9.08309L13.7705 10.4169ZM15.2608 14.9169C15.6291 14.5054 15.5941 13.8732 15.1825 13.5049C14.771 13.1365 14.1388 13.1716 13.7705 13.5831L15.2608 14.9169ZM12 14.375C10.6883 14.375 9.625 13.3117 9.625 12H7.625C7.625 14.4162 9.58375 16.375 12 16.375V14.375ZM9.625 12C9.625 10.6883 10.6883 9.625 12 9.625V7.625C9.58375 7.625 7.625 9.58375 7.625 12H9.625ZM12 9.625C12.7033 9.625 13.3342 9.92943 13.7705 10.4169L15.2608 9.08309C14.4611 8.18963 13.2958 7.625 12 7.625V9.625ZM13.7705 13.5831C13.3342 14.0706 12.7033 14.375 12 14.375V16.375C13.2958 16.375 14.4611 15.8104 15.2608 14.9169L13.7705 13.5831Z" fill="#7B8896"/>
<path d="M10.6184 16.75C10.6184 17.3023 11.0661 17.75 11.6184 17.75C12.1707 17.75 12.6184 17.3023 12.6184 16.75H10.6184ZM12.8815 6.75C12.8815 6.19772 12.4338 5.75 11.8815 5.75C11.3293 5.75 10.8815 6.19772 10.8815 6.75H12.8815ZM10.6184 15.3751V16.75H12.6184V15.3751H10.6184ZM12.8815 7.92647V6.75H10.8815V7.92647H12.8815Z" fill="#7B8896"/>
</svg>
