<svg width="24" height="24" viewBox="0 0 24 24" fill="none" xmlns="http://www.w3.org/2000/svg">
<path fill-rule="evenodd" clip-rule="evenodd" d="M13 11.6181V19.382L19 16.382V8.61809L13 11.6181ZM12.412 21.9113C12.4251 21.9053 12.4381 21.8991 12.4511 21.8926L20.4472 17.8945C20.786 17.7251 21 17.3788 21 17.0001V7.00241C21 7.00082 21 6.99922 21 6.99762C20.9999 6.9739 20.9991 6.9503 20.9973 6.92687C20.9716 6.57539 20.762 6.26111 20.443 6.10346L12.3468 2.10345C12.0645 1.96402 11.7331 1.96561 11.4523 2.10776L3.54845 6.10776C3.21127 6.2784 2.99909 6.62454 3 7.00244L3 7.00252V17.0001C3 17.3788 3.21401 17.7251 3.55279 17.8945L11.5489 21.8926M11 19.382V11.6181L5 8.61809V16.382L11 19.382ZM11.5528 21.8945C11.824 22.0301 12.1398 22.0344 12.412 21.9113L11.5528 21.8945ZM11.9092 4.11805L6.22526 6.9946L12 9.88197L17.7532 7.00536L11.9092 4.11805Z" fill="#7B8896"/>
</svg>
