<svg width="24" height="24" viewBox="0 0 24 24" fill="none" xmlns="http://www.w3.org/2000/svg">
<path fill-rule="evenodd" clip-rule="evenodd" d="M4 18.9999C4 18.4476 4.44772 17.9999 5 17.9999L19 17.9999C19.5523 17.9999 20 18.4476 20 18.9999C20 19.5522 19.5523 19.9999 19 19.9999L5 19.9999C4.44772 19.9999 4 19.5522 4 18.9999Z" fill="#7B8896"/>
<path fill-rule="evenodd" clip-rule="evenodd" d="M5.87732 11.1762C5.92607 11.026 6.0097 10.8895 6.12135 10.7778L13.1924 3.70675C14.364 2.53518 16.2635 2.53518 17.4351 3.70675L17.4908 3.76248C18.6624 4.93405 18.6624 6.83355 17.4908 8.00512L10.4197 15.0762C10.3081 15.1878 10.1716 15.2715 10.0214 15.3202L5.75088 16.7066C5.3933 16.8226 5.00083 16.7284 4.735 16.4625C4.46917 16.1967 4.37489 15.8042 4.49097 15.4467L5.87732 11.1762ZM7.27558 13.3463L7.85128 13.922L6.99885 14.1987L7.27558 13.3463ZM9.71261 12.9549L14.3088 8.35867L12.8389 6.88873L8.24267 11.4849L9.71261 12.9549ZM14.2531 5.47452L15.723 6.94446L16.0766 6.59091C16.4671 6.20038 16.4671 5.56722 16.0766 5.17669L16.0208 5.12097C15.6303 4.73044 14.9972 4.73044 14.6066 5.12097L14.2531 5.47452Z" fill="#7B8896"/>
</svg>
