<svg width="24" height="24" viewBox="0 0 24 24" fill="none" xmlns="http://www.w3.org/2000/svg">
<path fill-rule="evenodd" clip-rule="evenodd" d="M12 22C17.5228 22 22 17.5229 22 12C22 6.47716 17.5228 2 12 2C6.47715 2 2 6.47715 2 12C2 17.5228 6.47715 22 12 22ZM19.6 12C19.6 13.1046 18.7046 14 17.6 14C16.4954 14 15.6 13.1046 15.6 12C15.6 10.8954 16.4954 10 17.6 10C18.7046 10 19.6 10.8954 19.6 12ZM12 14C13.1046 14 14 13.1046 14 12C14 10.8954 13.1046 10 12 10C10.8954 10 9.99999 10.8954 9.99999 12C9.99999 13.1046 10.8954 14 12 14ZM6.4 14.0001C7.50457 14.0001 8.4 13.1047 8.4 12.0001C8.4 10.8956 7.50457 10.0001 6.4 10.0001C5.29543 10.0001 4.4 10.8956 4.4 12.0001C4.4 13.1047 5.29543 14.0001 6.4 14.0001Z" fill="#7B8896"/>
</svg>
