<svg width="24" height="24" viewBox="0 0 24 24" fill="none" xmlns="http://www.w3.org/2000/svg">
<path d="M11.5 19C12.0523 19 12.5 18.5523 12.5 18C12.5 17.4477 12.0523 17 11.5 17V19ZM20 13C20 13.5523 20.4477 14 21 14C21.5523 14 22 13.5523 22 13H20ZM5 6H19V4H5V6ZM4 16V7H2V16H4ZM11.5 17H5V19H11.5V17ZM20 7V13H22V7H20ZM2 16C2 17.6569 3.34315 19 5 19V17C4.44772 17 4 16.5523 4 16H2ZM19 6C19.5523 6 20 6.44772 20 7H22C22 5.34315 20.6569 4 19 4V6ZM5 4C3.34315 4 2 5.34315 2 7H4C4 6.44772 4.44772 6 5 6V4Z" fill="#7B8896"/>
<path d="M4 6L10.5858 12.5858C11.3668 13.3668 12.6332 13.3668 13.4142 12.5858L20 6" stroke="#7B8896" stroke-width="2" stroke-linecap="round"/>
<path d="M15 17C14.4477 17 14 17.4477 14 18C14 18.5523 14.4477 19 15 19V17ZM20.5 19C21.0523 19 21.5 18.5523 21.5 18C21.5 17.4477 21.0523 17 20.5 17V19ZM20.5 17H15V19H20.5V17Z" fill="#7B8896"/>
<path d="M18.5 20.5L21 18L18.5 15.5" stroke="#7B8896" stroke-width="2" stroke-linecap="round" stroke-linejoin="round"/>
</svg>
