<svg width="24" height="24" viewBox="0 0 24 24" fill="none" xmlns="http://www.w3.org/2000/svg">
<path d="M13 17.5C13 17.2239 13.2239 17 13.5 17H17V15.1227C17 14.6898 17.5127 14.4614 17.8345 14.751L21.5871 18.1284C21.8077 18.327 21.8077 18.673 21.5871 18.8716L17.8345 22.249C17.5127 22.5386 17 22.3102 17 21.8773V20H13.5C13.2239 20 13 19.7761 13 19.5V17.5ZM20 4H4C3.46957 4 2.96086 4.21071 2.58579 4.58579C2.21071 4.96086 2 5.46957 2 6V18C2 18.5304 2.21071 19.0391 2.58579 19.4142C2.96086 19.7893 3.46957 20 4 20H10C10.5523 20 11 19.5523 11 19C11 18.4477 10.5523 18 10 18H5C4.44772 18 4 17.5523 4 17V8L11.47 12.6688C11.7943 12.8714 12.2057 12.8714 12.53 12.6688L20 8V13C20 13.5523 20.4477 14 21 14C21.5523 14 22 13.5523 22 13V6C22 5.46957 21.7893 4.96086 21.4142 4.58579C21.0391 4.21071 20.5304 4 20 4ZM12.53 10.6688C12.2057 10.8714 11.7943 10.8714 11.47 10.6688L4.29568 6.1848C4.21048 6.13155 4.24821 6 4.34868 6H19.6513C19.7518 6 19.7895 6.13155 19.7043 6.1848L12.53 10.6688Z" fill="#7B8896"/>
</svg>
