<svg width="24" height="24" viewBox="0 0 24 24" fill="none" xmlns="http://www.w3.org/2000/svg">
<path d="M9 12.2056C8.44772 12.2056 8 12.6533 8 13.2056C8 13.7579 8.44772 14.2056 9 14.2056V12.2056ZM15 14.2056C15.5523 14.2056 16 13.7579 16 13.2056C16 12.6533 15.5523 12.2056 15 12.2056V14.2056ZM9 16.2056C8.44772 16.2056 8 16.6533 8 17.2056C8 17.7579 8.44772 18.2056 9 18.2056V16.2056ZM11.5714 18.2056C12.1237 18.2056 12.5714 17.7579 12.5714 17.2056C12.5714 16.6533 12.1237 16.2056 11.5714 16.2056V18.2056ZM9 14.2056H15V12.2056H9V14.2056ZM9 18.2056H11.5714V16.2056H9V18.2056Z" fill="#7B8896"/>
<path d="M5 3.20557V2.20557C4.44772 2.20557 4 2.65328 4 3.20557H5ZM13 9.20557H12C12 9.75785 12.4477 10.2056 13 10.2056V9.20557ZM19 21.2056V22.2056C19.5523 22.2056 20 21.7579 20 21.2056H19ZM5 21.2056H4C4 21.7579 4.44772 22.2056 5 22.2056V21.2056ZM19 9.20557H20C20 8.94035 19.8946 8.686 19.7071 8.49846L19 9.20557ZM13 3.20557L13.7071 2.49846C13.5196 2.31092 13.2652 2.20557 13 2.20557V3.20557ZM19 20.2056H5V22.2056H19V20.2056ZM6 21.2056V3.20557H4V21.2056H6ZM13 10.2056H19V8.20557H13V10.2056ZM18 9.20557V21.2056H20V9.20557H18ZM5 4.20557H13V2.20557H5V4.20557ZM12 3.20557V9.20557H14V3.20557H12ZM12.2929 3.91267L18.2929 9.91267L19.7071 8.49846L13.7071 2.49846L12.2929 3.91267Z" fill="#7B8896"/>
</svg>
