<svg width="25" height="24" viewBox="0 0 25 24" fill="none" xmlns="http://www.w3.org/2000/svg">
<path d="M5 3.20557V2.20557C4.44772 2.20557 4 2.65328 4 3.20557H5ZM13 9.20557H12C12 9.75785 12.4477 10.2056 13 10.2056V9.20557ZM19 21.2056V22.2056C19.5523 22.2056 20 21.7579 20 21.2056H19ZM5 21.2056H4C4 21.7579 4.44772 22.2056 5 22.2056V21.2056ZM19 9.20557H20C20 8.94035 19.8946 8.686 19.7071 8.49846L19 9.20557ZM13 3.20557L13.7071 2.49846C13.5196 2.31092 13.2652 2.20557 13 2.20557V3.20557ZM19 20.2056H5V22.2056H19V20.2056ZM6 21.2056V3.20557H4V21.2056H6ZM13 10.2056H19V8.20557H13V10.2056ZM18 9.20557V21.2056H20V9.20557H18ZM5 4.20557H13V2.20557H5V4.20557ZM12 3.20557V9.20557H14V3.20557H12ZM12.2929 3.91267L18.2929 9.91267L19.7071 8.49846L13.7071 2.49846L12.2929 3.91267Z" fill="#7B8896"/>
<path d="M14.3802 15.3956L12.1901 13.2055L10 15.3956" stroke="#7B8896" stroke-width="2" stroke-linecap="round" stroke-linejoin="round"/>
<path d="M12.1902 17.8402L12.1902 13.3959" stroke="#7B8896" stroke-width="2" stroke-linecap="round" stroke-linejoin="round"/>
</svg>
