<svg width="24" height="24" viewBox="0 0 24 24" fill="none" xmlns="http://www.w3.org/2000/svg">
<path d="M5 15.5H7V17H5.5" stroke="#7B8896" stroke-linecap="round" stroke-linejoin="round"/>
<path d="M5 18.5H7V17" stroke="#7B8896" stroke-linecap="round" stroke-linejoin="round"/>
<path d="M10.5 7.5H19.5" stroke="#7B8896" stroke-width="2" stroke-linecap="round" stroke-linejoin="round"/>
<path d="M10.5 12.5H19.5" stroke="#7B8896" stroke-width="2" stroke-linecap="round" stroke-linejoin="round"/>
<path d="M10.5 17.5H19.5" stroke="#7B8896" stroke-width="2" stroke-linecap="round" stroke-linejoin="round"/>
<path d="M4.64645 5.64645C4.45118 5.84171 4.45118 6.15829 4.64645 6.35355C4.84171 6.54882 5.15829 6.54882 5.35355 6.35355L4.64645 5.64645ZM6 5H6.5C6.5 4.79777 6.37818 4.61545 6.19134 4.53806C6.0045 4.46067 5.78945 4.50345 5.64645 4.64645L6 5ZM5.5 8.5C5.5 8.77614 5.72386 9 6 9C6.27614 9 6.5 8.77614 6.5 8.5H5.5ZM5.35355 6.35355L6.35355 5.35355L5.64645 4.64645L4.64645 5.64645L5.35355 6.35355ZM5.5 5V8.5H6.5V5H5.5Z" fill="#7B8896"/>
<path d="M5 10C4.72386 10 4.5 10.2239 4.5 10.5C4.5 10.7761 4.72386 11 5 11V10ZM5 13.5L4.64645 13.1464C4.50345 13.2894 4.46067 13.5045 4.53806 13.6913C4.61545 13.8782 4.79777 14 5 14V13.5ZM7 14C7.27614 14 7.5 13.7761 7.5 13.5C7.5 13.2239 7.27614 13 7 13V14ZM5 11H6.29289V10H5V11ZM5 14H7V13H5V14ZM6.43934 11.3536L4.64645 13.1464L5.35355 13.8536L7.14645 12.0607L6.43934 11.3536ZM6.5 11.2071C6.5 11.262 6.47818 11.3147 6.43934 11.3536L7.14645 12.0607C7.37282 11.8343 7.5 11.5273 7.5 11.2071H6.5ZM6.29289 11C6.40728 11 6.5 11.0927 6.5 11.2071H7.5C7.5 10.5404 6.95956 10 6.29289 10V11Z" fill="#7B8896"/>
</svg>
