<svg width="24" height="24" viewBox="0 0 24 24" fill="none" xmlns="http://www.w3.org/2000/svg">
<path d="M7 6C7 5.44772 7.44772 5 8 5H15C15.5523 5 16 5.44772 16 6V8C16 8.55228 15.5523 9 15 9H8C7.44772 9 7 8.55228 7 8V6Z" fill="#7B8896"/>
<path d="M9.70001 11C9.70001 10.4477 10.1477 10 10.7 10H15C15.5523 10 16 10.4477 16 11C16 11.5523 15.5523 12 15 12H10.7C10.1477 12 9.70001 11.5523 9.70001 11Z" fill="#7B8896"/>
<path d="M9 11C9 11.5523 8.55228 12 8 12C7.44772 12 7 11.5523 7 11C7 10.4477 7.44772 10 8 10C8.55228 10 9 10.4477 9 11Z" fill="#7B8896"/>
<path d="M9.70001 14C9.70001 13.4477 10.1477 13 10.7 13H15C15.5523 13 16 13.4477 16 14C16 14.5523 15.5523 15 15 15H10.7C10.1477 15 9.70001 14.5523 9.70001 14Z" fill="#7B8896"/>
<path d="M9 14C9 14.5523 8.55228 15 8 15C7.44772 15 7 14.5523 7 14C7 13.4477 7.44772 13 8 13C8.55228 13 9 13.4477 9 14Z" fill="#7B8896"/>
<path d="M9.70001 17C9.70001 16.4477 10.1477 16 10.7 16H15C15.5523 16 16 16.4477 16 17C16 17.5523 15.5523 18 15 18H10.7C10.1477 18 9.70001 17.5523 9.70001 17Z" fill="#7B8896"/>
<path d="M9 17C9 17.5523 8.55228 18 8 18C7.44772 18 7 17.5523 7 17C7 16.4477 7.44772 16 8 16C8.55228 16 9 16.4477 9 17Z" fill="#7B8896"/>
<path fill-rule="evenodd" clip-rule="evenodd" d="M4 5C4 3.34315 5.34315 2 7 2H16C17.6569 2 19 3.34315 19 5V18C19 19.6569 17.6569 21 16 21H7C5.34315 21 4 19.6569 4 18V5ZM7 4C6.44772 4 6 4.44772 6 5V18C6 18.5523 6.44772 19 7 19H16C16.5523 19 17 18.5523 17 18V5C17 4.44772 16.5523 4 16 4H7Z" fill="#7B8896"/>
</svg>
