<svg width="24" height="24" viewBox="0 0 24 24" fill="none" xmlns="http://www.w3.org/2000/svg">
<path d="M17 10V8C17 5.23858 14.7614 3 12 3V3C9.23858 3 7 5.23858 7 8V10" stroke="#7B8896" stroke-width="2"/>
<rect x="5" y="11" width="14" height="10" rx="1" stroke="#7B8896" stroke-width="2"/>
<path fill-rule="evenodd" clip-rule="evenodd" d="M12.8711 17.3924C12.8025 16.9422 13.0707 16.52 13.3897 16.195C13.7146 15.8639 13.913 15.4221 13.913 14.9368C13.913 13.9103 13.0253 13.0781 11.9304 13.0781C10.8354 13.0781 9.94775 13.9103 9.94775 14.9368C9.94775 15.4221 10.1461 15.864 10.471 16.195C10.7901 16.5201 11.0584 16.9422 10.9897 17.3925L10.9162 17.8752C10.8239 18.4806 11.2925 19.0259 11.9048 19.0259H11.9561C12.5684 19.0259 13.0369 18.4806 12.9446 17.8752L12.8711 17.3924Z" fill="#7B8896"/>
</svg>
