<svg width="24" height="24" viewBox="0 0 24 24" fill="none" xmlns="http://www.w3.org/2000/svg">
<path d="M9.75476 6.78413C10.123 7.19571 10.7552 7.23083 11.1668 6.86257C11.5784 6.49431 11.6135 5.86212 11.2452 5.45054L9.75476 6.78413ZM6.5 11.7056L6.11346 12.6278L6.5 11.7056ZM2.1424 15.9686C1.71914 15.6138 1.08842 15.6693 0.733629 16.0926C0.378842 16.5158 0.434346 17.1466 0.857601 17.5013L2.1424 15.9686ZM6 18.5932L6.02647 17.5935L6 18.5932ZM5 21.2056C5 21.7579 5.44772 22.2056 6 22.2056C6.55228 22.2056 7 21.7579 7 21.2056H5ZM7.5 2.20557C7.5 1.65328 7.05228 1.20557 6.5 1.20557C5.94772 1.20557 5.5 1.65328 5.5 2.20557H7.5ZM9.8706 18.22C10.2667 17.8351 10.2757 17.202 9.89078 16.806C9.50587 16.4099 8.87276 16.4009 8.47671 16.7858L9.8706 18.22ZM7.6971 13.4464C8.15492 13.7552 8.77647 13.6345 9.08536 13.1767C9.39426 12.7189 9.27353 12.0973 8.81571 11.7884L7.6971 13.4464ZM11.2452 5.45054C10.6065 4.73664 8.85289 3.44086 6.5 3.44086V5.44086C8.14711 5.44086 9.3935 6.38037 9.75476 6.78413L11.2452 5.45054ZM6.5 3.44086C3.53378 3.44086 1.5 5.48274 1.5 7.7938H3.5C3.5 6.75192 4.46622 5.44086 6.5 5.44086V3.44086ZM1.5 7.7938C1.5 8.97576 2.04448 9.94169 2.88261 10.7188C3.69695 11.4738 4.82272 12.0869 6.11346 12.6278L6.88654 10.7833C5.67728 10.2765 4.80305 9.77194 4.24239 9.25212C3.70552 8.75437 3.5 8.28831 3.5 7.7938H1.5ZM6.02647 17.5935C4.88229 17.5632 3.50413 17.1101 2.1424 15.9686L0.857601 17.5013C2.53424 18.9068 4.33868 19.5495 5.97353 19.5928L6.02647 17.5935ZM5 18.5932V21.2056H7V18.5932H5ZM7.5 4.44086V2.20557H5.5V4.44086H7.5ZM8.47671 16.7858C7.98292 17.2657 7.12567 17.6226 6.02647 17.5935L5.97353 19.5928C7.50801 19.6335 8.92197 19.142 9.8706 18.22L8.47671 16.7858ZM6.11346 12.6278C6.73157 12.8869 7.26262 13.1532 7.6971 13.4464L8.81571 11.7884C8.23046 11.3936 7.56772 11.0688 6.88654 10.7833L6.11346 12.6278Z" fill="#7B8896"/>
<circle cx="16.6082" cy="13.5694" r="5.60825" stroke="#7B8896" stroke-width="2"/>
<path d="M16.6086 16.1186L16.6086 11.0204" stroke="#7B8896" stroke-width="2" stroke-linecap="round" stroke-linejoin="round"/>
<path d="M19.157 13.5696L14.0588 13.5696" stroke="#7B8896" stroke-width="2" stroke-linecap="round" stroke-linejoin="round"/>
</svg>
