<svg width="25" height="24" viewBox="0 0 25 24" fill="none" xmlns="http://www.w3.org/2000/svg">
<path d="M9.49478 16.6401C8.04689 13.1125 5.08784 14.4087 5.08784 14.4087C6.19441 17.6758 9.49478 16.6401 9.49478 16.6401Z" fill="#7B8896"/>
<path d="M19.5303 14.505C15.879 13.4057 15.0203 16.52 15.0203 16.52C18.2542 17.7201 19.5303 14.505 19.5303 14.505Z" fill="#7B8896"/>
<path fill-rule="evenodd" clip-rule="evenodd" d="M8.07593 20C8.07593 19.4477 8.52364 19 9.07593 19H15.0759C15.6282 19 16.0759 19.4477 16.0759 20C16.0759 20.5523 15.6282 21 15.0759 21H9.07593C8.52364 21 8.07593 20.5523 8.07593 20Z" fill="#7B8896"/>
<path fill-rule="evenodd" clip-rule="evenodd" d="M12.0759 12C12.6282 12 13.0759 12.3504 13.0759 12.7826V20.2174C13.0759 20.6496 12.6282 21 12.0759 21C11.5236 21 11.0759 20.6496 11.0759 20.2174V12.7826C11.0759 12.3504 11.5236 12 12.0759 12Z" fill="#7B8896"/>
<path fill-rule="evenodd" clip-rule="evenodd" d="M6.87431 13.2096C8.16411 13.3733 9.56383 14.1748 10.4199 16.2605C10.5262 16.5196 10.5191 16.8114 10.4001 17.0649C10.2812 17.3184 10.0614 17.5105 9.79421 17.5943L9.49479 16.6402C9.79421 17.5943 9.79373 17.5945 9.79324 17.5946L9.79219 17.595L9.78986 17.5957L9.78425 17.5974L9.76933 17.6019C9.75776 17.6053 9.74294 17.6096 9.72504 17.6146C9.68928 17.6245 9.64107 17.6372 9.58181 17.6513C9.46362 17.6793 9.29965 17.7133 9.10139 17.7412C8.7094 17.7964 8.15908 17.8319 7.55298 17.7378C6.94297 17.6432 6.25659 17.4139 5.62864 16.9246C4.99454 16.4305 4.47372 15.7128 4.14071 14.7296C3.97425 14.2382 4.21133 13.701 4.6866 13.4928L5.08786 14.4088C4.6866 13.4928 4.68714 13.4926 4.68769 13.4924L4.68886 13.4919L4.6914 13.4908L4.69735 13.4882L4.71265 13.4818C4.72434 13.4769 4.73901 13.4709 4.75653 13.4641C4.79154 13.4503 4.83811 13.4329 4.89508 13.4135C5.00868 13.3748 5.16573 13.3273 5.35674 13.285C5.73477 13.2013 6.2696 13.1328 6.87431 13.2096ZM7.75553 15.7432C7.38274 15.387 7.00433 15.2541 6.69416 15.204C6.7487 15.2572 6.80349 15.3045 6.85791 15.347C7.13028 15.5592 7.4385 15.6811 7.75553 15.7432Z" fill="#7B8896"/>
<path fill-rule="evenodd" clip-rule="evenodd" d="M15.2153 14.3773C16.1554 13.4791 17.6598 12.8976 19.8186 13.5475C20.0868 13.6283 20.3088 13.8178 20.4307 14.0699C20.5526 14.322 20.5631 14.6137 20.4598 14.874L19.5303 14.5051C20.4598 14.874 20.4596 14.8745 20.4594 14.875L20.459 14.876L20.4581 14.8782L20.4559 14.8837L20.45 14.8981C20.4454 14.9092 20.4393 14.9234 20.4319 14.9405C20.4171 14.9745 20.3966 15.0199 20.3701 15.0748C20.3174 15.1842 20.2404 15.3329 20.1371 15.5045C19.933 15.8436 19.6136 16.2932 19.1586 16.7045C18.7006 17.1184 18.09 17.5067 17.3143 17.6859C16.5311 17.8667 15.6456 17.8187 14.6724 17.4576C14.1859 17.277 13.9184 16.7544 14.0563 16.2542L15.0203 16.52C14.0563 16.2542 14.0565 16.2537 14.0566 16.2531L14.057 16.2519L14.0577 16.2492L14.0595 16.243L14.0641 16.227C14.0677 16.2149 14.0723 16.1997 14.078 16.1818C14.0894 16.146 14.1053 16.0988 14.1261 16.0424C14.1676 15.9298 14.2298 15.7779 14.3173 15.603C14.4906 15.2567 14.7745 14.7983 15.2153 14.3773ZM17.7377 15.29C17.2262 15.3549 16.8845 15.5649 16.6501 15.7742C16.7258 15.7653 16.7971 15.7527 16.8643 15.7371C17.2007 15.6594 17.4897 15.497 17.7377 15.29Z" fill="#7B8896"/>
<path fill-rule="evenodd" clip-rule="evenodd" d="M12.2874 14C15.6011 14 18.2874 11.3137 18.2874 8C18.2874 4.68629 15.6011 2 12.2874 2C8.97371 2 6.28741 4.68629 6.28741 8C6.28741 11.3137 8.97371 14 12.2874 14ZM10.0759 9.29168C10.0759 9.75232 10.204 10.1484 10.4587 10.4768C10.6983 10.7782 11.0534 10.9823 11.5263 11.0893V12H12.7031V11.0526C13.1119 10.9121 13.4393 10.6842 13.6868 10.3665C13.9462 10.0349 14.0759 9.6535 14.0759 9.22144C14.0759 8.81225 13.9526 8.45288 13.7082 8.14824C13.4876 7.86565 13.1815 7.64676 12.7924 7.49239L12.4389 7.35518C12.2831 7.29311 12.1534 7.23349 12.0514 7.17468C11.758 7.00398 11.6109 6.7998 11.6109 6.56212C11.6109 6.22563 11.7691 6.05656 12.0854 6.05656C12.3836 6.05656 12.5441 6.24604 12.567 6.6242H13.917V6.57928C13.9296 5.66371 13.5247 5.10832 12.7031 4.91067V4H11.5263V4.9123C10.5947 5.17693 10.1281 5.78458 10.1281 6.73527C10.1281 7.2 10.2562 7.57652 10.5109 7.86646C10.6161 7.98407 10.7473 8.0927 10.9031 8.19153C11.0249 8.2683 11.176 8.34589 11.3555 8.42593L11.8063 8.61378C11.9747 8.68566 12.1044 8.74936 12.1985 8.80817C12.4547 8.96335 12.5828 9.16263 12.5828 9.40194C12.5828 9.75722 12.416 9.93446 12.0838 9.93446C11.7659 9.93446 11.5927 9.72047 11.5682 9.29168H10.0759Z" fill="#7B8896"/>
</svg>
