<svg width="24" height="24" viewBox="0 0 24 24" fill="none" xmlns="http://www.w3.org/2000/svg">
<path d="M2 13.5951V19.3722L6.86266 21.664" stroke="#7B8896" stroke-width="2" stroke-linecap="round" stroke-linejoin="round"/>
<path d="M11.7253 7.59399V19.3722L6.86262 21.664" stroke="#7B8896" stroke-width="2" stroke-linecap="round" stroke-linejoin="round"/>
<path d="M11.7257 13.5953L6.86303 15.9487L2.00037 13.5953L6.86303 11.2418" stroke="#7B8896" stroke-width="2" stroke-linecap="round" stroke-linejoin="round"/>
<path d="M6.86261 16.2848V21.3279" stroke="#7B8896" stroke-width="2" stroke-linecap="round" stroke-linejoin="round"/>
<path d="M21.7257 13.5951V19.3722L16.863 21.664" stroke="#7B8896" stroke-width="2" stroke-linecap="round" stroke-linejoin="round"/>
<path d="M16.8631 21.664L12.0004 19.3722" stroke="#7B8896" stroke-width="2" stroke-linecap="round" stroke-linejoin="round"/>
<path d="M12 13.5953L16.8627 15.9487L21.7253 13.5953L16.8627 11.2418" stroke="#7B8896" stroke-width="2" stroke-linecap="round" stroke-linejoin="round"/>
<path d="M16.8631 16.2848V21.3279" stroke="#7B8896" stroke-width="2" stroke-linecap="round" stroke-linejoin="round"/>
<path d="M7 5.2572V11.0343L11.8627 13.3261" stroke="#7B8896" stroke-width="2" stroke-linecap="round" stroke-linejoin="round"/>
<path d="M16.7253 5.2572V11.0343L11.8626 13.3261" stroke="#7B8896" stroke-width="2" stroke-linecap="round" stroke-linejoin="round"/>
<path d="M16.7257 5.25736L11.863 7.61079L7.00037 5.25736L11.863 2.90393L16.7257 5.25736Z" stroke="#7B8896" stroke-width="2" stroke-linecap="round" stroke-linejoin="round"/>
</svg>
