<svg width="24" height="24" viewBox="0 0 24 24" fill="none" xmlns="http://www.w3.org/2000/svg">
<path fill-rule="evenodd" clip-rule="evenodd" d="M6 6C5.44772 6 5 6.44772 5 7V18C5 18.5523 5.44772 19 6 19H17C17.5523 19 18 18.5523 18 18V14.1071C18 13.5549 18.4477 13.1071 19 13.1071C19.5523 13.1071 20 13.5549 20 14.1071V18C20 19.6569 18.6569 21 17 21H6C4.34315 21 3 19.6569 3 18V7C3 5.34315 4.34315 4 6 4H10C10.5523 4 11 4.44772 11 5C11 5.55228 10.5523 6 10 6H6Z" fill="#7B8896"/>
<path fill-rule="evenodd" clip-rule="evenodd" d="M10 9C10 8.44772 10.4477 8 11 8H19C19.5523 8 20 8.44772 20 9C20 9.55228 19.5523 10 19 10H11C10.4477 10 10 9.55228 10 9Z" fill="#7B8896"/>
<path fill-rule="evenodd" clip-rule="evenodd" d="M15 14C14.4477 14 14 13.5523 14 13L14 5C14 4.44771 14.4477 4 15 4C15.5523 4 16 4.44771 16 5L16 13C16 13.5523 15.5523 14 15 14Z" fill="#7B8896"/>
</svg>
