<svg width="24" height="24" viewBox="0 0 24 24" fill="none" xmlns="http://www.w3.org/2000/svg">
<path d="M4 15.2222L5 15.2222L4 15.2222ZM5.88235 5L17 5L17 3L5.88235 3L5.88235 5ZM19 7L19 19L21 19L21 7L19 7ZM19 19L8.76528 19L8.76528 21L19 21L19 19ZM8.76528 19L8.76529 5.88294L6.76529 5.88294L6.76528 19L8.76528 19ZM7.76528 15.2222L5 15.2222L5 17.2222L7.76528 17.2222L7.76528 15.2222ZM5 15.2222L5 5.88235L3 5.88235L3 15.2222L5 15.2222ZM5 5.88235C5 5.39504 5.39504 5 5.88235 5L5.88235 3C4.29047 3 3 4.29047 3 5.88235L5 5.88235ZM8.76529 5.88294C8.76529 4.29074 7.47455 3 5.88235 3L5.88235 5C6.36998 5 6.76529 5.3953 6.76529 5.88294L8.76529 5.88294ZM17 5C18.1046 5 19 5.89543 19 7L21 7C21 4.79086 19.2091 3 17 3L17 5ZM5 15.2222L3 15.2222C3 16.3268 3.89543 17.2222 5 17.2222L5 15.2222ZM8.76528 19L6.76528 19C6.76528 20.1046 7.66072 21 8.76528 21L8.76528 19ZM19 19L19 19L19 21C20.1046 21 21 20.1046 21 19L19 19Z" fill="#7B8896"/>
<path d="M11 8H17" stroke="#7B8896" stroke-width="2" stroke-linecap="round"/>
<path d="M11 12H17" stroke="#7B8896" stroke-width="2" stroke-linecap="round"/>
<path d="M11 16H17" stroke="#7B8896" stroke-width="2" stroke-linecap="round"/>
</svg>
