<svg width="24" height="24" viewBox="0 0 24 24" fill="none" xmlns="http://www.w3.org/2000/svg">
<path d="M5.92407 7.20557C5.92407 6.65328 6.37179 6.20557 6.92407 6.20557H10.4625C11.0148 6.20557 11.4625 6.65328 11.4625 7.20557V11.8722C11.4625 12.4245 11.0148 12.8722 10.4625 12.8722H6.92407C6.37179 12.8722 5.92407 12.4245 5.92407 11.8722V7.20557ZM12.3856 12.5389C12.3856 11.9866 12.8333 11.5389 13.3856 11.5389H16.9241C17.4764 11.5389 17.9241 11.9866 17.9241 12.5389V17.2056C17.9241 17.7579 17.4764 18.2056 16.9241 18.2056H13.3856C12.8333 18.2056 12.3856 17.7579 12.3856 17.2056V12.5389ZM5.92407 15.2056C5.92407 14.6533 6.37179 14.2056 6.92407 14.2056H10.4625C11.0148 14.2056 11.4625 14.6533 11.4625 15.2056V17.2056C11.4625 17.7579 11.0148 18.2056 10.4625 18.2056H6.92407C6.37179 18.2056 5.92407 17.7579 5.92407 17.2056V15.2056ZM12.3856 7.20557C12.3856 6.65328 12.8333 6.20557 13.3856 6.20557H16.9241C17.4764 6.20557 17.9241 6.65328 17.9241 7.20557V9.20557C17.9241 9.75785 17.4764 10.2056 16.9241 10.2056H13.3856C12.8333 10.2056 12.3856 9.75785 12.3856 9.20557V7.20557Z" fill="#7B8896"/>
<rect x="3" y="3.20557" width="18" height="18" rx="2" stroke="#7B8896" stroke-width="2"/>
</svg>
