<svg width="24" height="24" viewBox="0 0 24 24" fill="none" xmlns="http://www.w3.org/2000/svg">
<path fill-rule="evenodd" clip-rule="evenodd" d="M11.5 19C15.6421 19 19 15.6421 19 11.5C19 7.35786 15.6421 4 11.5 4C7.35786 4 4 7.35786 4 11.5C4 15.6421 7.35786 19 11.5 19ZM11.5 21C16.7467 21 21 16.7467 21 11.5C21 6.25329 16.7467 2 11.5 2C6.25329 2 2 6.25329 2 11.5C2 16.7467 6.25329 21 11.5 21Z" fill="#7B8896"/>
<path fill-rule="evenodd" clip-rule="evenodd" d="M16.6468 13.4335C16.4037 13.3152 14.6693 12.5599 14.4464 12.481C14.2235 12.4022 14.0614 12.3627 13.8992 12.5994C13.7371 12.836 13.2507 13.3684 13.1088 13.5262C12.967 13.6839 12.7612 13.5959 12.582 13.5262C12 13.3 11.6714 13.0351 11.0736 12.5264C10.533 12.0507 10.0685 11.499 9.69549 10.8897C9.55362 10.6531 9.69552 10.515 9.79686 10.3967L10.1616 9.98259V9.86426L10.3238 9.58819C10.3593 9.52463 10.3779 9.45346 10.3779 9.38114C10.3779 9.30882 10.3593 9.23763 10.3238 9.17408C10.3238 9.05576 9.7766 7.87259 9.55367 7.39932C9.33074 6.92605 9.14831 7.00493 9.00644 7.00493H8.54036C8.4139 7.00642 8.28911 7.03348 8.17397 7.0844C8.05884 7.13532 7.95584 7.209 7.87154 7.30073C7.59357 7.55256 7.37255 7.85794 7.22251 8.19744C7.07248 8.53695 6.99674 8.90314 7.00011 9.27268C7.00277 9.5463 7.04368 9.81829 7.1217 10.0812C7.31154 10.6782 7.60638 11.2387 7.99313 11.7376C9.02379 13.2956 10.4848 14.5394 12.2085 15.3266C14.7216 16.2731 14.7215 15.9576 15.1674 15.9182C15.5106 15.8567 15.8365 15.7246 16.1231 15.5308C16.4096 15.3369 16.6504 15.0858 16.8292 14.7941C16.9884 14.441 17.0378 14.0502 16.9711 13.6701C16.9711 13.6701 16.89 13.5518 16.6468 13.4335Z" fill="#7B8896"/>
</svg>
