<svg width="24" height="24" viewBox="0 0 24 24" fill="none" xmlns="http://www.w3.org/2000/svg">
<path d="M4.32477 6C4.1454 6 4 6.14904 4 6.33288V18.6671C4 18.7554 4.03422 18.8401 4.09512 18.9025C4.15603 18.9649 4.23864 19 4.32477 19H19.6781C19.8563 18.9984 20 18.8498 20 18.6671V6.33288C20 6.15018 19.8563 6.00162 19.6781 6H4.32477Z" stroke="#7B8896" stroke-width="2"/>
<path d="M6.48376 18.9998H17.5147C17.695 19.0046 17.8624 18.9142 17.9461 18.7671C18.0298 18.6199 18.0152 18.4416 17.9084 18.3077L16.3868 16.4038C16.3064 16.3013 16.1816 16.2362 16.0449 16.2253C15.9082 16.2144 15.7731 16.2589 15.6748 16.3472L14.1113 17.7186L10.4818 13.1775C10.3901 13.0624 10.2428 12.9961 10.0879 13.0002C9.93293 13.0043 9.79005 13.0783 9.70566 13.1981L6.07614 18.3283C5.98074 18.4637 5.97455 18.6366 6.06005 18.7774C6.14555 18.9183 6.30868 19.0039 6.48376 18.9998Z" fill="#7B8896" stroke="#7B8896" stroke-width="2"/>
<ellipse cx="15.7693" cy="10.7799" rx="1.76932" ry="1.77992" fill="#7B8896"/>
</svg>
