<svg width="25" height="24" viewBox="0 0 25 24" fill="none" xmlns="http://www.w3.org/2000/svg">
<path d="M13.1601 2.22195C13.5033 2.36848 13.8151 2.58325 14.0778 2.85399L17 5.76585C16.4308 5.76585 15.5746 5.76585 15.0759 6.23659L12.7702 8.41319C12.3848 8.77696 11.7831 8.77696 11.3978 8.41319L9.09203 6.23659C8.81153 5.9718 8.39391 5.76585 7.59606 5.76585H7.15602L10.0772 2.85399C10.3399 2.58325 10.6517 2.36848 10.9949 2.22195C11.3381 2.07542 11.706 2 12.0775 2C12.449 2 12.8169 2.07542 13.1601 2.22195Z" fill="#7B8896"/>
<path d="M10.8399 21.0781C10.4967 20.9316 10.1849 20.7168 9.92224 20.4461L7.00002 17.5342C7.56925 17.5342 8.42542 17.5342 8.92408 17.0635L11.2298 14.8869C11.6152 14.5231 12.2169 14.5231 12.6022 14.8869L14.908 17.0635C15.1885 17.3283 15.6061 17.5342 16.4039 17.5342L16.844 17.5342L13.9228 20.4461C13.6601 20.7168 13.3483 20.9316 13.0051 21.0781C12.6619 21.2246 12.294 21.3 11.9225 21.3C11.551 21.3 11.1831 21.2246 10.8399 21.0781Z" fill="#7B8896"/>
<path d="M21.1099 9.60321L18.8078 7.40968C18.7559 7.42991 18.7004 7.44056 18.6443 7.44108H17.5975C17.0528 7.44238 16.5306 7.64852 16.1446 8.01467L13.1449 10.8711C12.8747 11.1281 12.5086 11.2724 12.1269 11.2724C11.7452 11.2724 11.3791 11.1281 11.1089 10.8711L8.09781 8.0038C7.71184 7.63743 7.18966 7.43107 6.64485 7.42961H5.3598C5.30684 7.42847 5.25451 7.41846 5.20519 7.40002L2.88856 9.60321C2.31956 10.1465 2 10.8828 2 11.6503C2 12.4179 2.31956 13.1541 2.88856 13.6974L5.20012 15.9C5.24933 15.8812 5.30173 15.8712 5.35473 15.8704H6.64485C7.18965 15.8689 7.7118 15.6626 8.09781 15.2962L11.1083 12.4277C11.6526 11.9096 12.6012 11.9096 13.1449 12.4277L16.1446 15.2854C16.5306 15.6515 17.0528 15.8577 17.5975 15.859H18.6443C18.7004 15.8593 18.7559 15.87 18.8078 15.8904L21.1099 13.6968C21.3921 13.428 21.6159 13.1089 21.7687 12.7577C21.9214 12.4064 22 12.0299 22 11.6497C22 11.2695 21.9214 10.893 21.7687 10.5418C21.6159 10.1905 21.3921 9.8714 21.1099 9.60261" fill="#7B8896"/>
</svg>
