<svg width="24" height="24" viewBox="0 0 24 24" fill="none" xmlns="http://www.w3.org/2000/svg">
<path d="M10.1595 14.9202C10.1595 16.0689 9.22839 17 8.07977 17C6.93114 17 6 16.0689 6 14.9202V14.0247C6 12.8207 6.10362 11.8734 6.31086 11.1826C6.52796 10.4819 6.9227 9.85526 7.49507 9.30263C7.89046 8.92087 8.3612 8.59563 8.90728 8.32689C9.33778 8.11504 9.84225 8.32986 10.0478 8.76339C10.2882 9.27038 10.0199 9.85909 9.53793 10.1464C9.18921 10.3543 8.91286 10.5961 8.70888 10.8717C8.35362 11.3651 8.16612 12.0214 8.14638 12.8405C9.25822 12.8405 10.1595 13.7418 10.1595 14.8536V14.9202Z" fill="#7B8896"/>
<path d="M17.1595 14.9202C17.1595 16.0689 16.2284 17 15.0798 17C13.9311 17 13 16.0689 13 14.9202V14.0247C13 12.8207 13.1036 11.8734 13.3109 11.1826C13.528 10.4819 13.9227 9.85526 14.4951 9.30263C14.8905 8.92087 15.3612 8.59563 15.9073 8.32689C16.3378 8.11504 16.8423 8.32986 17.0478 8.76339C17.2882 9.27038 17.0199 9.85909 16.5379 10.1464C16.1892 10.3543 15.9129 10.5961 15.7089 10.8717C15.3536 11.3651 15.1661 12.0214 15.1464 12.8405C16.2582 12.8405 17.1595 13.7418 17.1595 14.8536V14.9202Z" fill="#7B8896"/>
</svg>
