<svg width="25" height="24" viewBox="0 0 25 24" fill="none" xmlns="http://www.w3.org/2000/svg">
<path d="M16.3826 17.3004C16.5778 17.4956 16.5788 17.8133 16.3719 17.996C15.1163 19.1051 13.5403 19.795 11.8647 19.961C10.023 20.1435 8.17493 19.6818 6.63545 18.6545C5.09597 17.6272 3.96029 16.0979 3.4219 14.3272C2.88351 12.5565 2.97573 10.6539 3.68284 8.94351C4.38995 7.23315 5.6682 5.82087 7.29982 4.94728C8.93143 4.0737 10.8155 3.79285 12.6309 4.1526C14.4464 4.51234 16.081 5.49041 17.2562 6.92018C18.4314 8.34995 19.0745 10.143 19.0759 11.9937H17.0759C17.0771 10.6055 16.597 9.25985 15.7172 8.18602C14.8375 7.11218 13.6126 6.37662 12.2513 6.10469C10.89 5.83275 9.47649 6.04127 8.2517 6.6947C7.0269 7.34813 6.06658 8.40605 5.53438 9.68817C5.00218 10.9703 4.93102 12.3973 5.33304 13.726C5.73505 15.0547 6.58537 16.2029 7.73908 16.975C8.8928 17.747 10.2785 18.0951 11.6601 17.9599C12.8754 17.841 14.0213 17.3547 14.9481 16.5717C15.1589 16.3936 15.4741 16.3919 15.6693 16.5871L16.3826 17.3004ZM14.9295 12.8473C14.6145 12.5323 14.8376 11.9937 15.283 11.9937H20.8688C21.3143 11.9937 21.5374 12.5323 21.2224 12.8473L18.4295 15.6402C18.2342 15.8354 17.9176 15.8354 17.7224 15.6402L14.9295 12.8473Z" fill="#7B8896"/>
</svg>
