<svg width="24" height="24" viewBox="0 0 24 24" fill="none" xmlns="http://www.w3.org/2000/svg">
<path fill-rule="evenodd" clip-rule="evenodd" d="M12 22C17.5228 22 22 17.5228 22 12C22 6.47715 17.5228 2 12 2C6.47715 2 2 6.47715 2 12C2 17.5228 6.47715 22 12 22Z" fill="#7B8896"/>
<path d="M7.17188 18V6.54688H12.0391C13.263 6.54688 14.151 6.65104 14.7031 6.85938C15.2604 7.0625 15.7057 7.42708 16.0391 7.95312C16.3724 8.47917 16.5391 9.08073 16.5391 9.75781C16.5391 10.6172 16.2865 11.3281 15.7812 11.8906C15.276 12.4479 14.5208 12.7995 13.5156 12.9453C14.0156 13.237 14.4271 13.5573 14.75 13.9062C15.0781 14.2552 15.5182 14.875 16.0703 15.7656L17.4688 18H14.7031L13.0312 15.5078C12.4375 14.6172 12.0312 14.0573 11.8125 13.8281C11.5938 13.5938 11.362 13.4349 11.1172 13.3516C10.8724 13.263 10.4844 13.2188 9.95312 13.2188H9.48438V18H7.17188ZM9.48438 11.3906H11.1953C12.3047 11.3906 12.9974 11.3438 13.2734 11.25C13.5495 11.1562 13.7656 10.9948 13.9219 10.7656C14.0781 10.5365 14.1562 10.25 14.1562 9.90625C14.1562 9.52083 14.0521 9.21094 13.8438 8.97656C13.6406 8.73698 13.3516 8.58594 12.9766 8.52344C12.7891 8.4974 12.2266 8.48438 11.2891 8.48438H9.48438V11.3906Z" fill="white"/>
</svg>
