<svg width="25" height="24" viewBox="0 0 25 24" fill="none" xmlns="http://www.w3.org/2000/svg">
<path d="M4.07593 5V19C4.07593 19.5523 4.52364 20 5.07593 20H19.0759C19.6282 20 20.0759 19.5523 20.0759 19V7.41421C20.0759 7.149 19.9706 6.89464 19.783 6.70711L17.3688 4.29289C17.1813 4.10536 16.9269 4 16.6617 4H5.07593C4.52364 4 4.07593 4.44772 4.07593 5Z" stroke="#7B8896" stroke-width="2"/>
<path d="M8.07593 19V13C8.07593 12.4477 8.52364 12 9.07593 12H15.0759C15.6282 12 16.0759 12.4477 16.0759 13V19" stroke="#7B8896" stroke-width="2"/>
<path d="M8.07593 5V7C8.07593 7.55228 8.52364 8 9.07593 8H14.0759C14.6282 8 15.0759 7.55228 15.0759 7V5" stroke="#7B8896" stroke-width="2"/>
</svg>
