<svg width="24" height="24" viewBox="0 0 24 24" fill="none" xmlns="http://www.w3.org/2000/svg">
<path d="M13.67 4.74752H12.67C12.67 4.76483 12.6704 4.78214 12.6713 4.79942L13.67 4.74752ZM13.9168 5.46874L13.0957 6.03952L13.0957 6.03952L13.9168 5.46874ZM14.5226 5.95806L14.1373 6.88086L14.1373 6.88086L14.5226 5.95806ZM15.2965 6.04477L15.468 7.02995L15.2965 6.04477ZM15.984 5.71211L16.6501 6.45797C16.6619 6.44748 16.6734 6.43671 16.6846 6.42567L15.984 5.71211ZM16.5194 5.18644L17.22 5.9L17.22 5.9L16.5194 5.18644ZM17.9271 5.19289L18.6342 4.48579V4.48579L17.9271 5.19289ZM18.8071 6.07289L19.5142 5.36579L19.5142 5.36579L18.8071 6.07289ZM18.8071 7.48711L18.1 6.78L18.1 6.78L18.8071 7.48711ZM18.2728 8.02137L17.5657 7.31427C17.5613 7.3187 17.5569 7.32318 17.5526 7.3277L18.2728 8.02137ZM17.9143 8.72194L16.9304 8.54338V8.54339L17.9143 8.72194ZM18.0063 9.50948L17.09 9.91L17.09 9.91001L18.0063 9.50948ZM18.0177 9.53665L18.9454 9.16331V9.1633L18.0177 9.53665ZM18.502 10.1388L19.0655 9.3127L19.0655 9.3127L18.502 10.1388ZM19.2353 10.37L19.2231 11.37H19.2353V10.37ZM19.2243 13.66V12.66L19.2144 12.66L19.2243 13.66ZM18.4914 13.8889L17.9305 13.061L18.4914 13.8889ZM18.0059 14.4877L18.9285 14.8735L18.9319 14.8653L18.0059 14.4877ZM17.9992 14.5039L18.9183 14.8978L18.9217 14.8898L17.9992 14.5039ZM17.9138 15.2787L18.8966 15.0944V15.0944L17.9138 15.2787ZM18.274 15.9699L17.56 16.67L17.5605 16.6705L18.274 15.9699ZM18.8136 16.5194L19.5271 15.8188V15.8188L18.8136 16.5194ZM17.9271 18.8071L17.22 18.1L17.22 18.1L17.9271 18.8071ZM16.5129 18.8071L15.8058 19.5142L15.8058 19.5142L16.5129 18.8071ZM15.9786 18.2728L16.6857 17.5657C16.6813 17.5613 16.6768 17.5569 16.6723 17.5525L15.9786 18.2728ZM15.2781 17.9143L15.4566 16.9304H15.4566L15.2781 17.9143ZM14.4905 18.0063L14.09 17.09L14.09 17.09L14.4905 18.0063ZM14.4633 18.0177L14.8367 18.9454L14.8367 18.9454L14.4633 18.0177ZM13.8612 18.502L14.6873 19.0655L14.6873 19.0655L13.8612 18.502ZM13.63 19.2352L12.63 19.223V19.2352H13.63ZM10.3712 20.0493L9.37243 20.0986V20.0986L10.3712 20.0493ZM10.3307 19.2296L9.33148 19.2692L9.33195 19.2789L10.3307 19.2296ZM10.0832 18.4913L9.2621 19.062L9.26211 19.062L10.0832 18.4913ZM9.4774 18.0019L9.09213 18.9247L9.09213 18.9248L9.4774 18.0019ZM8.7035 17.9152L8.53201 16.93H8.53201L8.7035 17.9152ZM8.016 18.2479L7.3499 17.502C7.33815 17.5125 7.32665 17.5233 7.31541 17.5343L8.016 18.2479ZM7.48059 18.7736L8.18118 19.4871H8.18118L7.48059 18.7736ZM6.07289 18.7671L5.36579 19.4742H5.36579L6.07289 18.7671ZM5.19289 17.8871L5.9 17.18L5.9 17.18L5.19289 17.8871ZM5.19289 16.4729L4.48578 15.7658L4.48578 15.7658L5.19289 16.4729ZM5.72717 15.9386L6.43428 16.6457C6.43872 16.6413 6.44311 16.6368 6.44747 16.6323L5.72717 15.9386ZM6.08571 15.2381L7.06964 15.4166V15.4166L6.08571 15.2381ZM5.99371 14.4505L6.91 14.05L6.91 14.05L5.99371 14.4505ZM5.98231 14.4233L5.05462 14.7967L5.05462 14.7967L5.98231 14.4233ZM5.49804 13.8212L4.93446 14.6473H4.93446L5.49804 13.8212ZM4.76476 13.59L4.777 12.59H4.76476V13.59ZM4.74753 10.33V11.33C4.76484 11.33 4.78215 11.3296 4.79944 11.3287L4.74753 10.33ZM5.46874 10.0832L4.89796 9.2621H4.89796L5.46874 10.0832ZM5.95806 9.4774L6.88086 9.86267L5.95806 9.4774ZM6.04477 8.7035L5.05958 8.87499V8.87499L6.04477 8.7035ZM5.71211 8.016L6.45797 7.34989C6.44747 7.33814 6.43671 7.32664 6.42567 7.3154L5.71211 8.016ZM5.18644 7.48059L5.9 6.78L5.18644 7.48059ZM5.19289 6.07289L5.9 6.78V6.78L5.19289 6.07289ZM6.07289 5.19289L5.36579 4.48579L5.36579 4.48579L6.07289 5.19289ZM7.48711 5.19289L8.19421 4.48579L8.19421 4.48579L7.48711 5.19289ZM8.02135 5.72714L7.31425 6.43425C7.31868 6.43868 7.32315 6.44307 7.32767 6.44742L8.02135 5.72714ZM8.72194 6.08571L8.90049 5.10178L8.90049 5.10178L8.72194 6.08571ZM9.50948 5.99371L9.91 6.91L9.91001 6.91L9.50948 5.99371ZM9.53665 5.98231L9.90999 6.91L9.91 6.91L9.53665 5.98231ZM10.1388 5.49804L9.3127 4.93446L9.3127 4.93446L10.1388 5.49804ZM10.37 4.76472L11.37 4.77693V4.76472H10.37ZM11.37 2C10.2654 2 9.37 2.89543 9.37 4H11.37V2ZM12.67 2H11.37V4H12.67V2ZM14.67 4C14.67 2.89543 13.7746 2 12.67 2V4H14.67ZM14.67 4.74752V4H12.67V4.74752H14.67ZM14.7379 4.89796C14.6964 4.83825 14.6724 4.76816 14.6687 4.69561L12.6713 4.79942C12.6945 5.24406 12.8413 5.67361 13.0957 6.03952L14.7379 4.89796ZM14.9079 5.03525C14.8393 5.00662 14.7803 4.95899 14.7379 4.89796L13.0957 6.03952C13.3556 6.41348 13.717 6.70539 14.1373 6.88086L14.9079 5.03525ZM15.125 5.05958C15.0518 5.07233 14.9765 5.06388 14.9079 5.03525L14.1373 6.88086C14.5576 7.05633 15.0193 7.10806 15.468 7.02995L15.125 5.05958ZM15.3179 4.96625C15.2636 5.01474 15.1968 5.04709 15.125 5.05958L15.468 7.02995C15.9079 6.95338 16.3173 6.75515 16.6501 6.45797L15.3179 4.96625ZM15.8188 4.47287L15.2834 4.99854L16.6846 6.42567L17.22 5.9L15.8188 4.47287ZM18.6342 4.48579C17.8582 3.7098 16.6019 3.70404 15.8188 4.47287L17.22 5.9L17.22 5.9L18.6342 4.48579ZM19.5142 5.36579L18.6342 4.48579L17.22 5.9L18.1 6.78L19.5142 5.36579ZM20.1 6.78C20.1 6.24956 19.8893 5.74086 19.5142 5.36579L18.1 6.78L18.1 6.78H20.1ZM19.5142 8.19421C19.8893 7.81914 20.1 7.31044 20.1 6.78H18.1H18.1L19.5142 8.19421ZM18.9799 8.72848L19.5142 8.19421L18.1 6.78L17.5657 7.31427L18.9799 8.72848ZM18.8982 8.90049C18.9109 8.83066 18.9439 8.76615 18.9931 8.71505L17.5526 7.3277C17.2299 7.66269 17.0134 8.08562 16.9304 8.54338L18.8982 8.90049ZM18.9226 9.10896C18.8939 9.04343 18.8855 8.97085 18.8982 8.90049L16.9304 8.54339C16.8467 9.00467 16.9022 9.48043 17.09 9.91L18.9226 9.10896ZM18.9454 9.1633C18.938 9.145 18.9304 9.12688 18.9226 9.10895L17.09 9.91001L17.09 9.91L18.9454 9.1633ZM19.0655 9.3127C19.0116 9.27589 18.9698 9.2239 18.9454 9.16331L17.09 9.91C17.2622 10.3378 17.5574 10.7049 17.9384 10.9648L19.0655 9.3127ZM19.2475 9.37007C19.1825 9.36928 19.1192 9.34933 19.0655 9.3127L17.9384 10.9648C18.3174 11.2234 18.7644 11.3643 19.2231 11.3699L19.2475 9.37007ZM20 9.37H19.2353V11.37H20V9.37ZM22 11.37C22 10.2654 21.1046 9.37 20 9.37V11.37H22ZM22 12.66V11.37H20V12.66H22ZM20 14.66C21.1046 14.66 22 13.7646 22 12.66H20V14.66ZM19.2243 14.66H20V12.66H19.2243V14.66ZM19.0523 14.7167C19.1061 14.6803 19.1693 14.6606 19.2342 14.66L19.2144 12.66C18.7564 12.6646 18.3098 12.804 17.9305 13.061L19.0523 14.7167ZM18.9319 14.8653C18.9565 14.805 18.9984 14.7533 19.0523 14.7167L17.9305 13.061C17.5497 13.3191 17.2537 13.6841 17.08 14.11L18.9319 14.8653ZM18.9217 14.8898L18.9285 14.8735L17.0834 14.1018L17.0766 14.118L18.9217 14.8898ZM18.8966 15.0944C18.8842 15.0281 18.8918 14.9597 18.9183 14.8978L17.08 14.11C16.8973 14.5362 16.8454 15.0072 16.9309 15.463L18.8966 15.0944ZM18.9881 15.2698C18.9409 15.2217 18.9091 15.1606 18.8966 15.0944L16.9309 15.463C17.0164 15.9188 17.2353 16.3389 17.56 16.67L18.9881 15.2698ZM19.5271 15.8188L18.9876 15.2693L17.5605 16.6705L18.1 17.22L19.5271 15.8188ZM19.5142 18.6342C20.2902 17.8582 20.296 16.6019 19.5271 15.8188L18.1 17.22H18.1L19.5142 18.6342ZM18.6342 19.5142L19.5142 18.6342L18.1 17.22L17.22 18.1L18.6342 19.5142ZM17.22 20.1C17.7504 20.1 18.2591 19.8893 18.6342 19.5142L17.22 18.1L17.22 18.1V20.1ZM15.8058 19.5142C16.1809 19.8893 16.6896 20.1 17.22 20.1V18.1L17.22 18.1L15.8058 19.5142ZM15.2715 18.9799L15.8058 19.5142L17.22 18.1L16.6857 17.5657L15.2715 18.9799ZM15.0995 18.8982C15.1693 18.9109 15.2339 18.9439 15.285 18.9931L16.6723 17.5525C16.3373 17.2299 15.9144 17.0134 15.4566 16.9304L15.0995 18.8982ZM14.891 18.9226C14.9566 18.8939 15.0291 18.8855 15.0995 18.8982L15.4566 16.9304C14.9953 16.8467 14.5196 16.9022 14.09 17.09L14.891 18.9226ZM14.8367 18.9454C14.855 18.938 14.8731 18.9304 14.8911 18.9226L14.09 17.09L14.09 17.09L14.8367 18.9454ZM14.6873 19.0655C14.7241 19.0116 14.7761 18.9698 14.8367 18.9454L14.09 17.09C13.6622 17.2622 13.2951 17.5574 13.0352 17.9384L14.6873 19.0655ZM14.6299 19.2475C14.6307 19.1825 14.6507 19.1192 14.6873 19.0655L13.0352 17.9384C12.7766 18.3174 12.6357 18.7643 12.6301 19.223L14.6299 19.2475ZM14.63 20V19.2352H12.63V20H14.63ZM12.63 22C13.7346 22 14.63 21.1046 14.63 20H12.63V22ZM11.37 22H12.63V20H11.37V22ZM9.37243 20.0986C9.42502 21.1636 10.3038 22 11.37 22V20L9.37243 20.0986ZM9.26211 19.062C9.30446 19.123 9.32857 19.1948 9.33152 19.2692L11.33 19.19C11.3119 18.735 11.1643 18.2945 10.9043 17.9205L9.26211 19.062ZM9.09213 18.9248C9.16071 18.9534 9.21968 19.001 9.2621 19.062L10.9043 17.9205C10.6444 17.5465 10.283 17.2546 9.86267 17.0791L9.09213 18.9248ZM8.87499 18.9004C8.94821 18.8877 9.02355 18.8961 9.09213 18.9247L9.86267 17.0791C9.44238 16.9037 8.98071 16.8519 8.53201 16.93L8.87499 18.9004ZM8.6821 18.9938C8.7364 18.9453 8.80322 18.9129 8.87499 18.9004L8.53201 16.93C8.09212 17.0066 7.68266 17.2049 7.3499 17.502L8.6821 18.9938ZM8.18118 19.4871L8.71659 18.9615L7.31541 17.5343L6.78 18.06L8.18118 19.4871ZM5.36579 19.4742C6.14177 20.2502 7.39811 20.256 8.18118 19.4871L6.78 18.06L6.78 18.06L5.36579 19.4742ZM4.48579 18.5942L5.36579 19.4742L6.78 18.06L5.9 17.18L4.48579 18.5942ZM4.48578 15.7658C3.70474 16.5468 3.70474 17.8132 4.48579 18.5942L5.9 17.18L5.9 17.18L4.48578 15.7658ZM5.02006 15.2315L4.48578 15.7658L5.9 17.18L6.43428 16.6457L5.02006 15.2315ZM5.10178 15.0595C5.08911 15.1293 5.05608 15.1938 5.00687 15.245L6.44747 16.6323C6.77007 16.2973 6.98657 15.8744 7.06964 15.4166L5.10178 15.0595ZM5.07743 14.851C5.10607 14.9166 5.11455 14.9891 5.10178 15.0595L7.06964 15.4166C7.15335 14.9553 7.09777 14.4796 6.91 14.05L5.07743 14.851ZM5.05462 14.7967C5.06199 14.815 5.0696 14.8331 5.07743 14.8511L6.91 14.05H6.91L5.05462 14.7967ZM4.93446 14.6473C4.98841 14.6841 5.03023 14.7361 5.05462 14.7967L6.91 14.05C6.73782 13.6222 6.44257 13.2551 6.06161 12.9952L4.93446 14.6473ZM4.75252 14.5899C4.81748 14.5907 4.88078 14.6107 4.93446 14.6473L6.06161 12.9952C5.68259 12.7366 5.23569 12.5957 4.777 12.5901L4.75252 14.5899ZM4 14.59H4.76476V12.59H4V14.59ZM2 12.59C2 13.6946 2.89543 14.59 4 14.59V12.59H2ZM2 11.33V12.59H4V11.33H2ZM4 9.33C2.89543 9.33 2 10.2254 2 11.33H4V9.33ZM4.74753 9.33H4V11.33H4.74753V9.33ZM4.89796 9.2621C4.83825 9.30361 4.76816 9.32758 4.69561 9.33135L4.79944 11.3287C5.24407 11.3055 5.67362 11.1587 6.03952 10.9043L4.89796 9.2621ZM5.03525 9.09213C5.00662 9.16071 4.95899 9.21969 4.89796 9.2621L6.03952 10.9043C6.41348 10.6444 6.70539 10.283 6.88086 9.86267L5.03525 9.09213ZM5.05958 8.87499C5.07233 8.94821 5.06389 9.02355 5.03525 9.09213L6.88086 9.86267C7.05633 9.44239 7.10806 8.98071 7.02995 8.53201L5.05958 8.87499ZM4.96625 8.6821C5.01474 8.7364 5.04709 8.80322 5.05958 8.87499L7.02995 8.53201C6.95338 8.09212 6.75515 7.68266 6.45797 7.34989L4.96625 8.6821ZM4.47287 8.18118L4.99854 8.71659L6.42567 7.3154L5.9 6.78L4.47287 8.18118ZM4.48579 5.36579C3.7098 6.14177 3.70403 7.39811 4.47287 8.18118L5.9 6.78H5.9L4.48579 5.36579ZM5.36579 4.48579L4.48579 5.36579L5.9 6.78L6.78 5.9L5.36579 4.48579ZM8.19421 4.48579C7.41316 3.70474 6.14684 3.70474 5.36579 4.48579L6.78 5.9L8.19421 4.48579ZM8.72846 5.02004L8.19421 4.48579L6.78 5.9L7.31425 6.43425L8.72846 5.02004ZM8.90049 5.10178C8.83066 5.08911 8.76614 5.05608 8.71504 5.00687L7.32767 6.44742C7.66267 6.77006 8.08561 6.98657 8.54339 7.06964L8.90049 5.10178ZM9.10895 5.07743C9.04343 5.10607 8.97085 5.11455 8.90049 5.10178L8.54339 7.06964C9.00467 7.15335 9.48043 7.09777 9.91 6.91L9.10895 5.07743ZM9.16331 5.05461C9.14506 5.06196 9.12694 5.06957 9.10895 5.07743L9.91001 6.91L9.90999 6.91L9.16331 5.05461ZM9.3127 4.93446C9.27589 4.98841 9.2239 5.03023 9.1633 5.05462L9.91 6.91C10.3378 6.73782 10.7049 6.44257 10.9648 6.06161L9.3127 4.93446ZM9.37007 4.75251C9.36928 4.81748 9.34932 4.88078 9.3127 4.93446L10.9648 6.06161C11.2234 5.68257 11.3643 5.23565 11.3699 4.77693L9.37007 4.75251ZM9.37 4V4.76472H11.37V4H9.37ZM9.33195 19.2789L9.37243 20.0986L11.37 20L11.3295 19.1803L9.33195 19.2789Z" fill="#7B8896"/>
<circle cx="12" cy="12" r="1" stroke="#7B8896" stroke-width="2" stroke-linejoin="round"/>
</svg>
