<svg width="24" height="24" viewBox="0 0 24 24" fill="none" xmlns="http://www.w3.org/2000/svg">
<path d="M3 5.81818L12.0682 2L21.1364 5.81818V6.54735C21.1364 13.2241 17.7133 18.4347 12.0682 22C6.42306 18.4347 3 13.2241 3 6.54735V5.81818Z" fill="#7B8896"/>
<path d="M9.40203 10.4256C8.99443 10.0529 8.3619 10.0812 7.98924 10.4888C7.61657 10.8964 7.64489 11.529 8.0525 11.9016L9.40203 10.4256ZM11.2329 13.4545L10.5582 14.1925C10.9416 14.5431 11.5295 14.5417 11.9112 14.1893L11.2329 13.4545ZM16.5646 9.89386C16.9705 9.51926 16.9958 8.8866 16.6212 8.48078C16.2466 8.07496 15.6139 8.04965 15.2081 8.42425L16.5646 9.89386ZM8.0525 11.9016L10.5582 14.1925L11.9077 12.7165L9.40203 10.4256L8.0525 11.9016ZM11.9112 14.1893L16.5646 9.89386L15.2081 8.42425L10.5547 12.7197L11.9112 14.1893Z" fill="white"/>
</svg>
