<svg width="24" height="24" viewBox="0 0 24 24" fill="none" xmlns="http://www.w3.org/2000/svg">
<path fill-rule="evenodd" clip-rule="evenodd" d="M8.87732 11.1763C8.92607 11.0261 9.0097 10.8896 9.12135 10.7779L16.1924 3.70687C17.364 2.5353 19.2635 2.5353 20.4351 3.70687L20.4908 3.7626C21.6624 4.93417 21.6624 6.83367 20.4908 8.00524L13.4197 15.0763C13.3081 15.188 13.1716 15.2716 13.0214 15.3203L8.75088 16.7067C8.3933 16.8228 8.00083 16.7285 7.735 16.4627C7.46917 16.1968 7.37489 15.8044 7.49097 15.4468L8.87732 11.1763ZM10.2756 13.3464L10.8513 13.9221L9.99885 14.1988L10.2756 13.3464ZM12.7126 12.955L17.3088 8.3588L15.8389 6.88885L11.2427 11.485L12.7126 12.955ZM17.2531 5.47464L18.723 6.94458L19.0766 6.59103C19.4671 6.20051 19.4671 5.56734 19.0766 5.17682L19.0208 5.12109C18.6303 4.73056 17.9972 4.73056 17.6066 5.12109L17.2531 5.47464Z" fill="#7B8896"/>
<path fill-rule="evenodd" clip-rule="evenodd" d="M6 6C5.44772 6 5 6.44772 5 7V18C5 18.5523 5.44772 19 6 19H17C17.5523 19 18 18.5523 18 18V14.1071C18 13.5549 18.4477 13.1071 19 13.1071C19.5523 13.1071 20 13.5549 20 14.1071V18C20 19.6569 18.6569 21 17 21H6C4.34315 21 3 19.6569 3 18V7C3 5.34315 4.34315 4 6 4H11.5C12.0523 4 12.5 4.44772 12.5 5C12.5 5.55228 12.0523 6 11.5 6H6Z" fill="#7B8896"/>
</svg>
