<svg width="24" height="24" viewBox="0 0 24 24" fill="none" xmlns="http://www.w3.org/2000/svg">
<path fill-rule="evenodd" clip-rule="evenodd" d="M3 0.5C1.34315 0.5 0 1.84315 0 3.5V20.5C0 22.1569 1.34315 23.5 3 23.5H21C22.6569 23.5 24 22.1569 24 20.5V3.5C24 1.84315 22.6569 0.5 21 0.5H3ZM8 14.099C8 14.8475 8.25623 15.4912 8.76552 16.0248C9.24476 16.5145 9.95492 16.8463 10.9008 17.0202V18.5H13.2543V16.9604C14.072 16.7322 14.7268 16.3619 15.2218 15.8456C15.7406 15.3067 16 14.6869 16 13.9848C16 13.3199 15.7533 12.7359 15.2645 12.2409C14.8232 11.7817 14.2112 11.426 13.433 11.1751L12.726 10.9522C12.4144 10.8513 12.155 10.7544 11.951 10.6589C11.3642 10.3815 11.07 10.0497 11.07 9.66345C11.07 9.11664 11.3863 8.84191 12.019 8.84191C12.6153 8.84191 12.9363 9.14982 12.9822 9.76432H15.6821V9.69132C15.7074 8.20352 14.8976 7.30102 13.2543 6.97984V5.5H10.9008V6.98249C9.03757 7.41251 8.10439 8.39995 8.10439 9.94482C8.10439 10.7 8.36062 11.3118 8.86991 11.783C9.08027 11.9741 9.34282 12.1506 9.65441 12.3112C9.89798 12.436 10.2001 12.5621 10.5591 12.6921L11.4607 12.9974C11.7975 13.1142 12.0569 13.2177 12.2452 13.3133C12.7576 13.5654 13.0138 13.8893 13.0138 14.2782C13.0138 14.8555 12.6801 15.1435 12.0158 15.1435C11.38 15.1435 11.0336 14.7958 10.9846 14.099H8Z" fill="#7B8896"/>
</svg>
