<svg width="24" height="24" viewBox="0 0 24 24" fill="none" xmlns="http://www.w3.org/2000/svg">
<path d="M11.1033 3.81696C11.4701 3.07371 12.53 3.07371 12.8968 3.81696L15.0002 8.07893C15.1458 8.37408 15.4274 8.57865 15.7531 8.62598L20.4565 9.30942C21.2767 9.4286 21.6042 10.4366 21.0107 11.0151L17.6073 14.3326C17.3716 14.5623 17.2641 14.8933 17.3197 15.2177L18.1231 19.9021C18.2633 20.719 17.4058 21.342 16.6722 20.9563L12.4654 18.7446C12.174 18.5915 11.826 18.5915 11.5347 18.7446L7.32787 20.9563C6.59424 21.342 5.73681 20.719 5.87692 19.9021L6.68035 15.2177C6.73599 14.8933 6.62844 14.5623 6.39275 14.3326L2.98936 11.0151C2.39584 10.4366 2.72335 9.4286 3.54357 9.30942L8.24695 8.62598C8.57266 8.57865 8.85422 8.37408 8.99988 8.07893L11.1033 3.81696Z" fill="#7B8896"/>
</svg>
