<svg width="24" height="24" viewBox="0 0 24 24" fill="none" xmlns="http://www.w3.org/2000/svg">
<path d="M20 19.8341C20 20.7588 18.8527 21.1881 18.2457 20.4906L17.6881 19.8499C17.3363 19.4457 16.7285 19.3906 16.3098 19.725L15.0399 20.739C14.647 21.0527 14.0824 21.026 13.7209 20.6766L12.7788 19.7659C12.405 19.4046 11.8168 19.39 11.4255 19.7322L10.3054 20.7118C9.92841 21.0415 9.36571 21.0415 8.98874 20.7118L7.90269 19.762C7.49747 19.4076 6.88441 19.4376 6.51572 19.8298L5.72865 20.6672C5.10821 21.3273 4 20.8882 4 19.9823L4 4.50635C4 3.40178 4.89543 2.50635 6 2.50635L18 2.50635C19.1046 2.50635 20 3.40178 20 4.50635L20 19.8341Z" stroke="#7B8896" stroke-width="2"/>
<path d="M11 15.0063H16" stroke="#7B8896" stroke-width="2" stroke-linecap="round"/>
<path d="M8 15.0063H8.5" stroke="#7B8896" stroke-width="2" stroke-linecap="round"/>
<path d="M11 11.0063H16" stroke="#7B8896" stroke-width="2" stroke-linecap="round"/>
<path d="M8 11.0063H8.5" stroke="#7B8896" stroke-width="2" stroke-linecap="round"/>
<path d="M11 7.00635H16" stroke="#7B8896" stroke-width="2" stroke-linecap="round"/>
<path d="M8 7.00635H8.5" stroke="#7B8896" stroke-width="2" stroke-linecap="round"/>
</svg>
