<svg width="24" height="24" viewBox="0 0 24 24" fill="none" xmlns="http://www.w3.org/2000/svg">
<path d="M11 9H12.5C13.3284 9 14 9.67157 14 10.5V10.5C14 11.3284 13.3284 12 12.5 12H11V9Z" stroke="#7B8896" stroke-linecap="round" stroke-linejoin="round"/>
<path d="M11 12H13.5C14.3284 12 15 12.6716 15 13.5V13.5C15 14.3284 14.3284 15 13.5 15H11V12Z" stroke="#7B8896" stroke-linecap="round" stroke-linejoin="round"/>
<path d="M4 15L6.5 9L9 15" stroke="#7B8896" stroke-linecap="round" stroke-linejoin="round"/>
<path d="M21 9H20C18.3431 9 17 10.3431 17 12V12C17 13.6569 18.3431 15 20 15H21" stroke="#7B8896" stroke-linecap="round" stroke-linejoin="round"/>
<path d="M3 12L21 12" stroke="#7B8896" stroke-linecap="round" stroke-linejoin="round"/>
</svg>
