<svg width="24" height="24" viewBox="0 0 24 24" fill="none" xmlns="http://www.w3.org/2000/svg">
<path d="M4.11254 17.9743C3.8016 18.287 3.80231 18.7923 4.11411 19.1041L4.39589 19.3859C4.70769 19.6977 5.21301 19.6984 5.52568 19.3875L6.19116 18.7257C6.50506 18.4135 6.50577 17.9058 6.19274 17.5927L5.90726 17.3073C5.59423 16.9942 5.08648 16.9949 4.77432 17.3088L4.11254 17.9743ZM11 21.65C11 22.0918 11.3581 22.45 11.7999 22.45C11.9323 22.45 12.0688 22.45 12.2 22.45C12.6419 22.45 13 22.0918 13 21.65V20.3C13 19.8582 12.6418 19.5 12.2 19.5H11.8C11.3582 19.5 11 19.8582 11 20.3V21.65ZM12 5.49999C10.4087 5.49999 8.88258 6.13213 7.75736 7.25735C6.63214 8.38257 6 9.90869 6 11.5C6 13.0913 6.63214 14.6174 7.75736 15.7426C8.88258 16.8678 10.4087 17.5 12 17.5C13.5913 17.5 15.1174 16.8678 16.2426 15.7426C17.3679 14.6174 18 13.0913 18 11.5C18 8.17999 15.31 5.49999 12 5.49999ZM20 11.7C20 12.1418 20.3582 12.5 20.8 12.5H22.2C22.6418 12.5 23 12.1418 23 11.7V11.3C23 10.8582 22.6418 10.5 22.2 10.5H20.8C20.3582 10.5 20 10.8582 20 11.3V11.7ZM17.8073 17.5927C17.4942 17.9058 17.4949 18.4135 17.8088 18.7257L18.4743 19.3875C18.787 19.6984 19.2923 19.6977 19.6041 19.3859L19.8859 19.1041C20.1977 18.7923 20.1984 18.287 19.8875 17.9743L19.2257 17.3088C18.9135 16.9949 18.4058 16.9942 18.0927 17.3073L17.8073 17.5927ZM19.8875 5.02567C20.1984 4.713 20.1977 4.20768 19.8859 3.89588L19.6041 3.6141C19.2923 3.3023 18.787 3.30159 18.4743 3.61253L17.8088 4.27431C17.4949 4.58647 17.4942 5.09422 17.8073 5.40725L18.0927 5.69272C18.4058 6.00576 18.9135 6.00505 19.2257 5.69115L19.8875 5.02567ZM13 1.34999C13 0.908161 12.6418 0.549988 12.2 0.549988H11.8C11.3582 0.549988 11 0.90816 11 1.34999V2.69999C11 3.14181 11.3582 3.49999 11.8 3.49999H12.2C12.6418 3.49999 13 3.14182 13 2.69999V1.34999ZM4 11.3C4 10.8582 3.64183 10.5 3.2 10.5H1.8C1.35817 10.5 1 10.8582 1 11.3V11.7C1 12.1418 1.35817 12.5 1.8 12.5H3.2C3.64183 12.5 4 12.1418 4 11.7V11.3ZM6.19274 5.40725C6.50577 5.09422 6.50506 4.58647 6.19116 4.27431L5.52568 3.61253C5.21301 3.30159 4.70769 3.3023 4.39589 3.6141L4.11411 3.89588C3.80231 4.20768 3.8016 4.713 4.11254 5.02567L4.77432 5.69115C5.08648 6.00505 5.59423 6.00576 5.90726 5.69272L6.19274 5.40725Z" fill="#7B8896"/>
</svg>
