<svg width="25" height="24" viewBox="0 0 25 24" fill="none" xmlns="http://www.w3.org/2000/svg">
<path d="M4.18847 17.9744C3.87753 18.287 3.87824 18.7924 4.19004 19.1042L4.47182 19.3859C4.78362 19.6977 5.28894 19.6984 5.60161 19.3875L6.26709 18.7257C6.58099 18.4136 6.5817 17.9058 6.26866 17.5928L5.98319 17.3073C5.67016 16.9943 5.16241 16.995 4.85025 17.3089L4.18847 17.9744ZM11.0759 21.65C11.0759 22.0919 11.434 22.4501 11.8758 22.4501C12.0083 22.4501 12.1447 22.4501 12.276 22.4501C12.7178 22.4501 13.0759 22.0919 13.0759 21.6501V20.3001C13.0759 19.8582 12.7178 19.5 12.2759 19.5H11.8759C11.4341 19.5 11.0759 19.8582 11.0759 20.3V21.65ZM12.0759 5.50005C10.4846 5.50005 8.95851 6.13219 7.83329 7.25741C6.70807 8.38263 6.07593 9.90875 6.07593 11.5C6.07593 13.0913 6.70807 14.6175 7.83329 15.7427C8.95851 16.8679 10.4846 17.5 12.0759 17.5C13.6672 17.5 15.1934 16.8679 16.3186 15.7427C17.4438 14.6175 18.0759 13.0913 18.0759 11.5C18.0759 8.18005 15.3859 5.50005 12.0759 5.50005ZM20.0759 11.7C20.0759 12.1419 20.4341 12.5 20.8759 12.5H22.2759C22.7178 12.5 23.0759 12.1419 23.0759 11.7V11.3C23.0759 10.8582 22.7178 10.5 22.2759 10.5H20.8759C20.4341 10.5 20.0759 10.8582 20.0759 11.3V11.7ZM17.8832 17.5928C17.5702 17.9058 17.5709 18.4136 17.8848 18.7257L18.5502 19.3875C18.8629 19.6984 19.3682 19.6977 19.68 19.3859L19.9618 19.1042C20.2736 18.7924 20.2743 18.287 19.9634 17.9744L19.3016 17.3089C18.9894 16.995 18.4817 16.9943 18.1687 17.3073L17.8832 17.5928ZM19.9634 5.02573C20.2743 4.71306 20.2736 4.20774 19.9618 3.89594L19.68 3.61416C19.3682 3.30236 18.8629 3.30165 18.5502 3.61259L17.8848 4.27437C17.5709 4.58653 17.5702 5.09428 17.8832 5.40731L18.1687 5.69279C18.4817 6.00582 18.9894 6.00511 19.3016 5.69121L19.9634 5.02573ZM13.0759 1.35005C13.0759 0.908222 12.7178 0.550049 12.2759 0.550049H11.8759C11.4341 0.550049 11.0759 0.908221 11.0759 1.35005V2.70005C11.0759 3.14188 11.4341 3.50005 11.8759 3.50005H12.2759C12.7178 3.50005 13.0759 3.14188 13.0759 2.70005V1.35005ZM4.07593 11.3C4.07593 10.8582 3.71776 10.5 3.27593 10.5H1.87593C1.4341 10.5 1.07593 10.8582 1.07593 11.3V11.7C1.07593 12.1419 1.4341 12.5 1.87593 12.5H3.27593C3.71776 12.5 4.07593 12.1419 4.07593 11.7V11.3ZM6.26866 5.40731C6.5817 5.09428 6.58099 4.58653 6.26709 4.27437L5.60161 3.61259C5.28894 3.30165 4.78362 3.30236 4.47182 3.61416L4.19004 3.89594C3.87824 4.20774 3.87753 4.71306 4.18847 5.02573L4.85025 5.69121C5.16241 6.00511 5.67016 6.00582 5.98319 5.69279L6.26866 5.40731Z" fill="#7B8896"/>
</svg>

