<svg width="24" height="24" viewBox="0 0 24 24" fill="none" xmlns="http://www.w3.org/2000/svg">
<path d="M20 19.8341C20 20.7588 18.8527 21.1881 18.2457 20.4906L17.6881 19.85C17.3363 19.4458 16.7285 19.3907 16.3098 19.725L15.0399 20.7391C14.647 21.0527 14.0824 21.026 13.7209 20.6766L12.7788 19.766C12.405 19.4047 11.8168 19.39 11.4255 19.7322L10.3054 20.7118C9.92841 21.0415 9.36571 21.0415 8.98874 20.7118L7.90269 19.762C7.49747 19.4076 6.88441 19.4376 6.51572 19.8299L5.72865 20.6673C5.10821 21.3274 4 20.8883 4 19.9824L4 4.50641C4 3.40184 4.89543 2.50641 6 2.50641L18 2.50641C19.1046 2.50641 20 3.40184 20 4.50641L20 19.8341Z" stroke="#7B8896" stroke-width="2"/>
<circle cx="9.57143" cy="8.57143" r="0.571429" fill="#7B8896" stroke="#7B8896" stroke-width="2"/>
<circle cx="14.5714" cy="13.5714" r="0.571429" fill="#7B8896" stroke="#7B8896" stroke-width="2"/>
<path d="M9 14L15 8" stroke="#7B8896" stroke-width="2" stroke-linecap="round"/>
</svg>
