<svg width="24" height="24" viewBox="0 0 24 24" fill="none" xmlns="http://www.w3.org/2000/svg">
<path fill-rule="evenodd" clip-rule="evenodd" d="M0 3.5C0 1.84315 1.34315 0.5 3 0.5H21C22.6569 0.5 24 1.84315 24 3.5V20.5C24 22.1569 22.6569 23.5 21 23.5H3C1.34315 23.5 0 22.1569 0 20.5V3.5ZM17.5607 6.43934C18.1464 7.02513 18.1464 7.97487 17.5607 8.56066L13.8713 12.25L17.5607 15.9393C18.1464 16.5251 18.1464 17.4749 17.5607 18.0607C16.9749 18.6464 16.0251 18.6464 15.4393 18.0607L11.75 14.3713L8.06066 18.0607C7.47487 18.6464 6.52513 18.6464 5.93934 18.0607C5.35355 17.4749 5.35355 16.5251 5.93934 15.9393L9.62868 12.25L5.93934 8.56066C5.35355 7.97487 5.35355 7.02513 5.93934 6.43934C6.52513 5.85355 7.47487 5.85355 8.06066 6.43934L11.75 10.1287L15.4393 6.43934C16.0251 5.85355 16.9749 5.85355 17.5607 6.43934Z" fill="#7B8896"/>
</svg>
