<svg width="24" height="24" viewBox="0 0 24 24" fill="none" xmlns="http://www.w3.org/2000/svg">
<path d="M9.5 3C9.22386 3 9 3.22386 9 3.5C9 3.77614 8.77614 4 8.5 4H5C4.44772 4 4 4.44772 4 5C4 5.55228 4.44772 6 5 6V19C5 19.5304 5.21071 20.0391 5.58579 20.4142C5.96086 20.7893 6.46957 21 7 21H17C17.5304 21 18.0391 20.7893 18.4142 20.4142C18.7893 20.0391 19 19.5304 19 19V6C19.5523 6 20 5.55228 20 5C20 4.44772 19.5523 4 19 4H15.5C15.2239 4 15 3.77614 15 3.5C15 3.22386 14.7761 3 14.5 3H9.5ZM7 6H17V18C17 18.5523 16.5523 19 16 19H8C7.44772 19 7 18.5523 7 18V6ZM10 8C9.44772 8 9 8.44772 9 9V16C9 16.5523 9.44772 17 10 17C10.5523 17 11 16.5523 11 16V9C11 8.44772 10.5523 8 10 8ZM14 8C13.4477 8 13 8.44772 13 9V16C13 16.5523 13.4477 17 14 17C14.5523 17 15 16.5523 15 16V9C15 8.44772 14.5523 8 14 8Z" fill="#7B8896"/>
</svg>
