<svg width="24" height="24" viewBox="0 0 24 24" fill="none" xmlns="http://www.w3.org/2000/svg">
<path d="M13.5 7C15.2239 7 16.8772 7.68482 18.0962 8.90381C19.3152 10.1228 20 11.7761 20 13.5C20 15.2239 19.3152 16.8772 18.0962 18.0962C16.8772 19.3152 15.2239 20 13.5 20H11C10.4477 20 10 19.5523 10 19C10 18.4477 10.4477 18 11 18H13.5C16 18 18 16 18 13.5C18 11 16 9 13.5 9H7.83L10.2067 11.3844C10.5953 11.7743 10.5948 12.4052 10.2056 12.7944C9.8159 13.1841 9.1841 13.1841 8.79443 12.7944L4.70711 8.70711C4.31658 8.31658 4.31658 7.68342 4.70711 7.29289L8.79539 3.20461C9.18494 2.81506 9.81657 2.81434 10.2075 3.20251C10.6004 3.59262 10.6019 4.22811 10.2104 4.61961L7.83 7H13.5ZM6 19C6 18.4477 6.44772 18 7 18C7.55228 18 8 18.4477 8 19C8 19.5523 7.55228 20 7 20C6.44772 20 6 19.5523 6 19Z" fill="#7B8896"/>
</svg>
