<svg width="25" height="24" viewBox="0 0 25 24" fill="none" xmlns="http://www.w3.org/2000/svg">
<path d="M19.4295 8.35355C19.2342 8.15829 18.9176 8.15829 18.7224 8.35355L15.9295 11.1464C15.6145 11.4614 15.8376 12 16.283 12H18.0759C18.0759 13.5913 17.4438 15.1174 16.3186 16.2426C15.1934 17.3679 13.6672 18 12.0759 18C11.2072 18 10.361 17.8113 9.60966 17.4667C9.40847 17.3744 9.16859 17.4073 9.01208 17.5638L8.25739 18.3185C8.03097 18.545 8.07269 18.9236 8.35556 19.0736C9.46437 19.6618 10.7297 20 12.0759 20C14.1977 20 16.2325 19.1571 17.7328 17.6569C19.2331 16.1566 20.0759 14.1217 20.0759 12H21.8688C22.3143 12 22.5374 11.4614 22.2224 11.1464L19.4295 8.35355ZM6.07593 12C6.07593 10.4087 6.70807 8.88258 7.83329 7.75736C8.95851 6.63214 10.4846 6 12.0759 6C12.9447 6 13.7908 6.18869 14.5422 6.53329C14.7434 6.62556 14.9833 6.59266 15.1398 6.43616L15.8945 5.68146C16.1209 5.45505 16.0792 5.07642 15.7963 4.92637C14.6875 4.33821 13.4221 4 12.0759 4C9.9542 4 7.91936 4.84285 6.41907 6.34315C4.91878 7.84344 4.07593 9.87827 4.07593 12H2.28303C1.83758 12 1.6145 12.5386 1.92948 12.8536L4.72237 15.6464C4.91764 15.8417 5.23303 15.8429 5.42829 15.6476C6.16011 14.9158 7.87629 13.1996 9.07593 12" fill="#7B8896"/>
</svg>
