<svg width="24" height="24" viewBox="0 0 24 24" fill="none" xmlns="http://www.w3.org/2000/svg">
<circle cx="12" cy="12" r="10" stroke="#7B8896" stroke-width="2"/>
<circle cx="12" cy="9" r="3" stroke="#7B8896" stroke-width="2"/>
<path d="M17 20C17 20.5523 17.4477 21 18 21C18.5523 21 19 20.5523 19 20H17ZM5 20C5 20.5523 5.44772 21 6 21C6.55228 21 7 20.5523 7 20H5ZM10 16H14V14H10V16ZM17 19V20H19V19H17ZM7 20V19H5V20H7ZM14 16C15.6569 16 17 17.3431 17 19H19C19 16.2386 16.7614 14 14 14V16ZM10 14C7.23858 14 5 16.2386 5 19H7C7 17.3431 8.34315 16 10 16V14Z" fill="#7B8896"/>
</svg>
