<svg width="24" height="24" viewBox="0 0 24 24" fill="none" xmlns="http://www.w3.org/2000/svg">
<circle cx="6.80003" cy="6.66667" r="2.66667" stroke="#7B8896" stroke-width="2"/>
<path d="M2 16.2667L1.03848 15.9919C0.952271 16.2937 1.01269 16.6183 1.20165 16.8689C1.39061 17.1194 1.68621 17.2667 2 17.2667V16.2667ZM7.86667 17.2667C8.41895 17.2667 8.86667 16.8189 8.86667 16.2667C8.86667 15.7144 8.41895 15.2667 7.86667 15.2667V17.2667ZM9.71197 13.8987C10.1715 14.2051 10.7924 14.0809 11.0987 13.6214C11.4051 13.1618 11.2809 12.541 10.8214 12.2346L9.71197 13.8987ZM5.32957 13.5333H8.86111V11.5333H5.32957V13.5333ZM2.96152 16.5414L3.40652 14.9839L1.48348 14.4344L1.03848 15.9919L2.96152 16.5414ZM7.86667 15.2667H2V17.2667H7.86667V15.2667ZM9.41581 13.7013L9.71197 13.8987L10.8214 12.2346L10.5252 12.0372L9.41581 13.7013ZM8.86111 13.5333C9.05854 13.5333 9.25155 13.5918 9.41581 13.7013L10.5252 12.0372C10.0324 11.7086 9.45339 11.5333 8.86111 11.5333V13.5333ZM5.32957 11.5333C3.54365 11.5333 1.97411 12.7172 1.48348 14.4344L3.40652 14.9839C3.65184 14.1253 4.43661 13.5333 5.32957 13.5333V11.5333Z" fill="#7B8896"/>
<path d="M10 19C10 16.7909 11.7909 15 14 15H18C20.2091 15 22 16.7909 22 19V20H10V19Z" stroke="#7B8896" stroke-width="2" stroke-linejoin="round"/>
<circle cx="16" cy="9" r="3" stroke="#7B8896" stroke-width="2"/>
</svg>
