<svg width="24" height="24" viewBox="0 0 24 24" fill="none" xmlns="http://www.w3.org/2000/svg">
<path d="M15 4.70557L11.5 1.20557L8 4.70557" stroke="#7B8896" stroke-width="2" stroke-linecap="round" stroke-linejoin="round"/>
<path d="M11.4812 8.20557L11.4812 1.20557" stroke="#7B8896" stroke-width="2" stroke-linecap="round" stroke-linejoin="round"/>
<path d="M18 12C18 12.5523 18.4477 13 19 13C19.5523 13 20 12.5523 20 12H18ZM7 9C7.55228 9 8 8.55228 8 8C8 7.44772 7.55228 7 7 7V9ZM16 7C15.4477 7 15 7.44772 15 8C15 8.55228 15.4477 9 16 9V7ZM17 21H5V23H17V21ZM4 20V10H2V20H4ZM18 10V12H20V10H18ZM18 18V20H20V18H18ZM5 9H7V7H5V9ZM16 9H17V7H16V9ZM5 21C4.44772 21 4 20.5523 4 20H2C2 21.6569 3.34315 23 5 23V21ZM17 23C18.6569 23 20 21.6569 20 20H18C18 20.5523 17.5523 21 17 21V23ZM20 10C20 8.34315 18.6569 7 17 7V9C17.5523 9 18 9.44772 18 10H20ZM4 10C4 9.44772 4.44772 9 5 9V7C3.34315 7 2 8.34315 2 10H4Z" fill="#7B8896"/>
<path d="M12 15C12 13.3431 13.3431 12 15 12H21V18H15C13.3431 18 12 16.6569 12 15V15Z" stroke="#7B8896" stroke-width="2" stroke-linejoin="round"/>
<path d="M15.5 15H16" stroke="#7B8896" stroke-width="2" stroke-linecap="round"/>
</svg>
