<svg width="24" height="24" viewBox="0 0 24 24" fill="none" xmlns="http://www.w3.org/2000/svg">
<path d="M19 9C19 9.55228 19.4477 10 20 10C20.5523 10 21 9.55228 21 9H19ZM6 6H18V4H6V6ZM18 18H6V20H18V18ZM5 17V7H3V17H5ZM19 7V9H21V7H19ZM19 15V17H21V15H19ZM6 18C5.44772 18 5 17.5523 5 17H3C3 18.6569 4.34315 20 6 20V18ZM18 20C19.6569 20 21 18.6569 21 17H19C19 17.5523 18.5523 18 18 18V20ZM18 6C18.5523 6 19 6.44772 19 7H21C21 5.34315 19.6569 4 18 4V6ZM6 4C4.34315 4 3 5.34315 3 7H5C5 6.44772 5.44772 6 6 6V4Z" fill="#7B8896"/>
<path d="M13 12C13 10.3431 14.3431 9 16 9H22V15H16C14.3431 15 13 13.6569 13 12V12Z" stroke="#7B8896" stroke-width="2" stroke-linejoin="round"/>
<path d="M16.5 12H17" stroke="#7B8896" stroke-width="2" stroke-linecap="round"/>
</svg>
