<svg width="24" height="24" viewBox="0 0 24 24" fill="none" xmlns="http://www.w3.org/2000/svg">
<path d="M18 11.2056C18 11.7579 18.4477 12.2056 19 12.2056C19.5523 12.2056 20 11.7579 20 11.2056H18ZM5 8.20557H17V6.20557H5V8.20557ZM17 20.2056H5V22.2056H17V20.2056ZM4 19.2056V9.20557H2V19.2056H4ZM18 9.20557V11.2056H20V9.20557H18ZM18 17.2056V19.2056H20V17.2056H18ZM5 20.2056C4.44772 20.2056 4 19.7579 4 19.2056H2C2 20.8624 3.34315 22.2056 5 22.2056V20.2056ZM17 22.2056C18.6569 22.2056 20 20.8624 20 19.2056H18C18 19.7579 17.5523 20.2056 17 20.2056V22.2056ZM17 8.20557C17.5523 8.20557 18 8.65328 18 9.20557H20C20 7.54871 18.6569 6.20557 17 6.20557V8.20557ZM5 6.20557C3.34315 6.20557 2 7.54871 2 9.20557H4C4 8.65328 4.44772 8.20557 5 8.20557V6.20557Z" fill="#7B8896"/>
<path d="M12 14.2056C12 12.5487 13.3431 11.2056 15 11.2056H21V17.2056H15C13.3431 17.2056 12 15.8624 12 14.2056V14.2056Z" stroke="#7B8896" stroke-width="2" stroke-linejoin="round"/>
<path d="M15.5 14.2056H16" stroke="#7B8896" stroke-width="2" stroke-linecap="round"/>
<path d="M9.8418 2.20557L10.5489 1.49846C10.1584 1.10794 9.52521 1.10794 9.13469 1.49846L9.8418 2.20557ZM9.13469 2.91267L14.3403 8.11824L15.7545 6.70403L10.5489 1.49846L9.13469 2.91267ZM5.48805 7.97353L10.5489 2.91267L9.13469 1.49846L4.07384 6.55931L5.48805 7.97353Z" fill="#7B8896"/>
</svg>
