<svg width="40" height="40" viewBox="0 0 40 40" fill="none" xmlns="http://www.w3.org/2000/svg">
<circle cx="26.1112" cy="28.4444" r="7.77778" stroke="#7B8896" stroke-width="2"/>
<path d="M27.3543 26.4969C27.7226 26.9084 28.3547 26.9436 28.7663 26.5753C29.1779 26.207 29.213 25.5749 28.8448 25.1633L27.3543 26.4969ZM26.2282 28.4444L25.8416 29.3667L26.2282 28.4444ZM24.5314 30.031C24.1082 29.6762 23.4774 29.7317 23.1226 30.155C22.7679 30.5782 22.8234 31.209 23.2466 31.5638L24.5314 30.031ZM25.9943 31.6667L26.0207 30.6671L25.9943 31.6667ZM24.9943 32.8889C24.9943 33.4412 25.442 33.8889 25.9943 33.8889C26.5466 33.8889 26.9943 33.4412 26.9943 32.8889H24.9943ZM27.2282 24C27.2282 23.4477 26.7805 23 26.2282 23C25.6759 23 25.2282 23.4477 25.2282 24H27.2282ZM27.479 31.1567L26.7821 30.4395L27.479 31.1567ZM27.0499 28.871L27.6092 28.0421H27.6092L27.0499 28.871ZM28.8448 25.1633C28.4721 24.7468 27.5168 24.0458 26.2282 24.0458V26.0458C26.5083 26.0458 26.763 26.1242 26.9741 26.2314C27.1944 26.3433 27.3266 26.4659 27.3543 26.4969L28.8448 25.1633ZM26.2282 24.0458C24.5924 24.0458 23.3568 25.1955 23.3568 26.6144H25.3568C25.3568 26.4647 25.5248 26.0458 26.2282 26.0458V24.0458ZM23.3568 26.6144C23.3568 27.3503 23.7018 27.9352 24.174 28.373C24.6225 28.7888 25.2161 29.1045 25.8416 29.3667L26.6147 27.5222C26.0707 27.2941 25.7286 27.087 25.5338 26.9064C25.3628 26.7478 25.3568 26.6628 25.3568 26.6144H23.3568ZM26.0207 30.6671C25.616 30.6564 25.0847 30.4948 24.5314 30.031L23.2466 31.5638C24.1148 32.2915 25.0724 32.6427 25.9678 32.6664L26.0207 30.6671ZM24.9943 31.6667V32.8889H26.9943V31.6667H24.9943ZM27.2282 25.0458V24H25.2282V25.0458H27.2282ZM26.7821 30.4395C26.6721 30.5464 26.4192 30.6776 26.0207 30.6671L25.9678 32.6664C26.8015 32.6884 27.6111 32.4227 28.176 31.8738L26.7821 30.4395ZM25.8416 29.3667C26.114 29.4809 26.3274 29.5899 26.4906 29.7L27.6092 28.0421C27.2953 27.8303 26.9502 27.6628 26.6147 27.5222L25.8416 29.3667ZM26.4906 29.7C26.7666 29.8862 26.8429 30.0775 26.8586 30.1858C26.8752 30.2997 26.839 30.3842 26.7821 30.4395L28.176 31.8738C29.3054 30.7762 29.0005 28.9808 27.6092 28.0421L26.4906 29.7Z" fill="#7B8896"/>
<path d="M31.4148 17.1036C30.9811 17.4456 30.9067 18.0744 31.2487 18.508C31.5906 18.9417 32.2194 19.0161 32.6531 18.6742L31.4148 17.1036ZM18.5332 10.5251C18.455 11.0718 18.8348 11.5784 19.3816 11.6566C19.9283 11.7348 20.4349 11.355 20.5131 10.8083L18.5332 10.5251ZM27.2222 5C30.9654 5 34 8.03451 34 11.7778H36C36 6.92994 32.07 3 27.2222 3V5ZM34 11.7778C34 13.9374 32.991 15.8608 31.4148 17.1036L32.6531 18.6742C34.6896 17.0684 36 14.5758 36 11.7778H34ZM20.5131 10.8083C20.9828 7.5246 23.8085 5 27.2222 5V3C22.7992 3 19.1418 6.2703 18.5332 10.5251L20.5131 10.8083Z" fill="#7B8896"/>
<path d="M28.4652 9.83023C28.8334 10.2418 29.4656 10.2769 29.8772 9.90868C30.2888 9.54042 30.3239 8.90823 29.9556 8.49664L28.4652 9.83023ZM27.3391 11.7778L26.9525 12.7001L27.3391 11.7778ZM25.6423 13.3644C25.219 13.0096 24.5883 13.0651 24.2335 13.4884C23.8787 13.9116 23.9342 14.5423 24.3575 14.8971L25.6423 13.3644ZM27.1051 15.0001L27.1316 14.0004L27.1051 15.0001ZM26.1051 16.2223C26.1051 16.7745 26.5529 17.2223 27.1051 17.2223C27.6574 17.2223 28.1051 16.7745 28.1051 16.2223H26.1051ZM28.3391 7.33337C28.3391 6.78109 27.8913 6.33337 27.3391 6.33337C26.7868 6.33337 26.3391 6.78109 26.3391 7.33337H28.3391ZM28.5899 14.49L27.8929 13.7729L28.5899 14.49ZM28.1608 12.2044L28.7201 11.3754H28.7201L28.1608 12.2044ZM29.9556 8.49664C29.583 8.08014 28.6276 7.37913 27.3391 7.37913V9.37913C27.6192 9.37913 27.8739 9.45755 28.085 9.56479C28.3052 9.6767 28.4375 9.79927 28.4652 9.83023L29.9556 8.49664ZM27.3391 7.37913C25.7033 7.37913 24.4677 8.52885 24.4677 9.94775H26.4677C26.4677 9.79803 26.6357 9.37913 27.3391 9.37913V7.37913ZM24.4677 9.94775C24.4677 10.6836 24.8126 11.2685 25.2849 11.7064C25.7334 12.1222 26.327 12.4379 26.9525 12.7001L27.7256 10.8555C27.1815 10.6275 26.8395 10.4204 26.6447 10.2398C26.4737 10.0812 26.4677 9.99618 26.4677 9.94775H24.4677ZM27.1316 14.0004C26.7269 13.9897 26.1956 13.8282 25.6423 13.3644L24.3575 14.8971C25.2257 15.6249 26.1833 15.976 27.0787 15.9997L27.1316 14.0004ZM26.1051 15.0001V16.2223H28.1051V15.0001H26.1051ZM28.3391 8.37913V7.33337H26.3391V8.37913H28.3391ZM27.8929 13.7729C27.783 13.8798 27.53 14.011 27.1316 14.0004L27.0787 15.9997C27.9124 16.0218 28.722 15.7561 29.2868 15.2072L27.8929 13.7729ZM26.9525 12.7001C27.2249 12.8143 27.4383 12.9233 27.6015 13.0334L28.7201 11.3754C28.4062 11.1636 28.0611 10.9961 27.7256 10.8555L26.9525 12.7001ZM27.6015 13.0334C27.8775 13.2196 27.9538 13.4109 27.9695 13.5192C27.986 13.6331 27.9498 13.7176 27.8929 13.7729L29.2868 15.2072C30.4162 14.1095 30.1114 12.3142 28.7201 11.3754L27.6015 13.0334Z" fill="#7B8896"/>
<path d="M12.7778 29.4445C13.3301 29.4445 13.7778 28.9968 13.7778 28.4445C13.7778 27.8923 13.3301 27.4445 12.7778 27.4445V29.4445ZM18.9038 17.7625C19.1408 18.2614 19.7373 18.4737 20.2362 18.2367C20.735 17.9997 20.9473 17.4032 20.7103 16.9043L18.9038 17.7625ZM12.7778 27.4445C9.03451 27.4445 6 24.41 6 20.6668H4C4 25.5146 7.92995 29.4445 12.7778 29.4445V27.4445ZM6 20.6668C6 16.9235 9.03451 13.889 12.7778 13.889V11.889C7.92995 11.889 4 15.8189 4 20.6668H6ZM12.7778 13.889C15.48 13.889 17.8149 15.4703 18.9038 17.7625L20.7103 16.9043C19.3027 13.9411 16.2809 11.889 12.7778 11.889V13.889Z" fill="#7B8896"/>
<path d="M14.0207 18.7192C14.389 19.1308 15.0212 19.1659 15.4327 18.7977C15.8443 18.4294 15.8794 17.7972 15.5112 17.3856L14.0207 18.7192ZM12.8946 20.6668L12.5081 21.5891L12.8946 20.6668ZM11.1978 22.2534C10.7746 21.8986 10.1438 21.9541 9.78905 22.3773C9.43426 22.8006 9.48977 23.4313 9.91302 23.7861L11.1978 22.2534ZM12.6607 23.8891L12.6872 22.8894L12.6607 23.8891ZM11.6607 25.1112C11.6607 25.6635 12.1084 26.1112 12.6607 26.1112C13.213 26.1112 13.6607 25.6635 13.6607 25.1112H11.6607ZM13.8946 16.2224C13.8946 15.6701 13.4469 15.2224 12.8946 15.2224C12.3423 15.2224 11.8946 15.6701 11.8946 16.2224H13.8946ZM14.1454 23.379L13.4485 22.6619L14.1454 23.379ZM13.7163 21.0934L14.2756 20.2644H14.2756L13.7163 21.0934ZM15.5112 17.3856C15.1385 16.9691 14.1832 16.2681 12.8946 16.2681V18.2681C13.1747 18.2681 13.4294 18.3465 13.6405 18.4538C13.8608 18.5657 13.993 18.6882 14.0207 18.7192L15.5112 17.3856ZM12.8946 16.2681C11.2588 16.2681 10.0233 17.4178 10.0233 18.8367H12.0233C12.0233 18.687 12.1912 18.2681 12.8946 18.2681V16.2681ZM10.0233 18.8367C10.0233 19.5726 10.3682 20.1575 10.8404 20.5954C11.2889 21.0112 11.8825 21.3269 12.5081 21.5891L13.2811 19.7445C12.7371 19.5165 12.395 19.3094 12.2002 19.1287C12.0292 18.9702 12.0233 18.8852 12.0233 18.8367H10.0233ZM12.6872 22.8894C12.2824 22.8787 11.7511 22.7171 11.1978 22.2534L9.91302 23.7861C10.7812 24.5138 11.7388 24.865 12.6342 24.8887L12.6872 22.8894ZM11.6607 23.8891V25.1112H13.6607V23.8891H11.6607ZM13.8946 17.2681V16.2224H11.8946V17.2681H13.8946ZM13.4485 22.6619C13.3385 22.7688 13.0856 22.9 12.6872 22.8894L12.6342 24.8887C13.4679 24.9108 14.2776 24.6451 14.8424 24.0961L13.4485 22.6619ZM12.5081 21.5891C12.7805 21.7032 12.9939 21.8123 13.157 21.9223L14.2756 20.2644C13.9617 20.0526 13.6166 19.8851 13.2811 19.7445L12.5081 21.5891ZM13.157 21.9223C13.433 22.1086 13.5093 22.2999 13.525 22.4082C13.5416 22.522 13.5054 22.6066 13.4485 22.6619L14.8424 24.0961C15.9718 22.9985 15.6669 21.2032 14.2756 20.2644L13.157 21.9223Z" fill="#7B8896"/>
</svg>
